G04 #@! TF.GenerationSoftware,KiCad,Pcbnew,8.0.7*
G04 #@! TF.CreationDate,2025-06-23T12:01:53+08:00*
G04 #@! TF.ProjectId,Pagtingin_Final,50616774-696e-4676-996e-5f46696e616c,rev?*
G04 #@! TF.SameCoordinates,Original*
G04 #@! TF.FileFunction,Soldermask,Bot*
G04 #@! TF.FilePolarity,Negative*
%FSLAX46Y46*%
G04 Gerber Fmt 4.6, Leading zero omitted, Abs format (unit mm)*
G04 Created by KiCad (PCBNEW 8.0.7) date 2025-06-23 12:01:53*
%MOMM*%
%LPD*%
G01*
G04 APERTURE LIST*
G04 APERTURE END LIST*
G36*
X0095851834Y0012824871D02*
G01*
X0095858847Y0012878137D01*
X0095865094Y0012891535D01*
X0095868952Y0012910927D01*
X0095886113Y0012936610D01*
X0095896081Y0012957987D01*
X0095909085Y0012970991D01*
X0095923145Y0012992033D01*
X0095944186Y0013006092D01*
X0095957190Y0013019096D01*
X0095978564Y0013029063D01*
X0096004251Y0013046226D01*
X0096023642Y0013050083D01*
X0096037037Y0013056329D01*
X0096090280Y0013063338D01*
X0096099921Y0013065256D01*
X0097349921Y0013065256D01*
X0097359552Y0013063340D01*
X0097412803Y0013056330D01*
X0097426198Y0013050083D01*
X0097445593Y0013046226D01*
X0097471281Y0013029061D01*
X0097492652Y0013019096D01*
X0097505654Y0013006094D01*
X0097526699Y0012992033D01*
X0097540760Y0012970988D01*
X0097553762Y0012957987D01*
X0097563727Y0012936615D01*
X0097580892Y0012910927D01*
X0097584748Y0012891533D01*
X0097590994Y0012878140D01*
X0097598003Y0012824899D01*
X0097599921Y0012815256D01*
X0097599921Y0012115256D01*
X0097598006Y0012105627D01*
X0097590995Y0012052374D01*
X0097584748Y0012038978D01*
X0097580892Y0012019585D01*
X0097563728Y0011993898D01*
X0097553762Y0011972524D01*
X0097540758Y0011959520D01*
X0097526699Y0011938479D01*
X0097505657Y0011924419D01*
X0097492652Y0011911415D01*
X0097471275Y0011901446D01*
X0097445593Y0011884286D01*
X0097426202Y0011880429D01*
X0097412805Y0011874182D01*
X0097359550Y0011867171D01*
X0097349921Y0011865256D01*
X0096099921Y0011865256D01*
X0096090307Y0011867168D01*
X0096037039Y0011874181D01*
X0096023640Y0011880429D01*
X0096004251Y0011884286D01*
X0095978569Y0011901445D01*
X0095957190Y0011911415D01*
X0095944183Y0011924421D01*
X0095923145Y0011938479D01*
X0095909087Y0011959517D01*
X0095896081Y0011972524D01*
X0095886111Y0011993903D01*
X0095868952Y0012019585D01*
X0095865095Y0012038973D01*
X0095858848Y0012052371D01*
X0095851835Y0012105629D01*
X0095849921Y0012115256D01*
X0095849921Y0012815256D01*
X0095851834Y0012824871D01*
G37*
G36*
X0095855055Y0010533496D02*
G01*
X0095855055Y0010543572D01*
X0095862833Y0010572604D01*
X0095876105Y0010639322D01*
X0095889148Y0010670812D01*
X0095895593Y0010694866D01*
X0095908046Y0010716433D01*
X0095921089Y0010747924D01*
X0095958882Y0010804486D01*
X0095973909Y0010830513D01*
X0095981033Y0010837636D01*
X0095986396Y0010845662D01*
X0096069515Y0010928781D01*
X0096077540Y0010934143D01*
X0096084665Y0010941268D01*
X0096110695Y0010956296D01*
X0096167252Y0010994087D01*
X0096198739Y0011007129D01*
X0096220312Y0011019584D01*
X0096244369Y0011026030D01*
X0096275855Y0011039072D01*
X0096342567Y0011052342D01*
X0096371606Y0011060123D01*
X0096386636Y0011061108D01*
X0096392965Y0011062367D01*
X0096444392Y0011064893D01*
X0096449921Y0011065256D01*
X0096999922Y0011065256D01*
X0097005452Y0011064893D01*
X0097056878Y0011062367D01*
X0097063206Y0011061108D01*
X0097078238Y0011060123D01*
X0097107279Y0011052341D01*
X0097173988Y0011039072D01*
X0097205470Y0011026031D01*
X0097229532Y0011019584D01*
X0097251105Y0011007128D01*
X0097282590Y0010994087D01*
X0097339141Y0010956301D01*
X0097365179Y0010941268D01*
X0097372305Y0010934141D01*
X0097380327Y0010928781D01*
X0097463447Y0010845662D01*
X0097468807Y0010837639D01*
X0097475934Y0010830513D01*
X0097490967Y0010804475D01*
X0097528753Y0010747924D01*
X0097541794Y0010716439D01*
X0097554250Y0010694866D01*
X0097560697Y0010670805D01*
X0097573737Y0010639322D01*
X0097587008Y0010572610D01*
X0097594788Y0010543572D01*
X0097594788Y0010533495D01*
X0097596672Y0010524029D01*
X0097596672Y0010406483D01*
X0097594788Y0010397017D01*
X0097594788Y0010386940D01*
X0097587008Y0010357903D01*
X0097573737Y0010291189D01*
X0097560696Y0010259703D01*
X0097554250Y0010235646D01*
X0097541795Y0010214074D01*
X0097528753Y0010182587D01*
X0097490962Y0010126029D01*
X0097475934Y0010099999D01*
X0097468809Y0010092874D01*
X0097463447Y0010084849D01*
X0097380327Y0010001730D01*
X0097372301Y0009996367D01*
X0097365179Y0009989244D01*
X0097339152Y0009974217D01*
X0097282590Y0009936424D01*
X0097251099Y0009923380D01*
X0097229532Y0009910928D01*
X0097205478Y0009904482D01*
X0097173988Y0009891439D01*
X0097107265Y0009878166D01*
X0097078238Y0009870389D01*
X0097063212Y0009869404D01*
X0097056878Y0009868144D01*
X0097005446Y0009865618D01*
X0096999922Y0009865256D01*
X0096449921Y0009865256D01*
X0096444400Y0009865617D01*
X0096392965Y0009868144D01*
X0096386628Y0009869404D01*
X0096371606Y0009870389D01*
X0096342581Y0009878166D01*
X0096275855Y0009891439D01*
X0096244363Y0009904483D01*
X0096220312Y0009910928D01*
X0096198746Y0009923378D01*
X0096167252Y0009936424D01*
X0096110683Y0009974221D01*
X0096084665Y0009989244D01*
X0096077542Y0009996365D01*
X0096069515Y0010001730D01*
X0095986396Y0010084849D01*
X0095981031Y0010092877D01*
X0095973909Y0010099999D01*
X0095958887Y0010126018D01*
X0095921089Y0010182587D01*
X0095908043Y0010214080D01*
X0095895593Y0010235646D01*
X0095889149Y0010259697D01*
X0095876105Y0010291189D01*
X0095862833Y0010357909D01*
X0095855055Y0010386940D01*
X0095855055Y0010397016D01*
X0095853172Y0010406483D01*
X0095853172Y0010524029D01*
X0095855055Y0010533496D01*
G37*
G36*
X0069876834Y0030474871D02*
G01*
X0069883847Y0030528137D01*
X0069890094Y0030541535D01*
X0069893952Y0030560927D01*
X0069911113Y0030586610D01*
X0069921081Y0030607987D01*
X0069934085Y0030620991D01*
X0069948145Y0030642033D01*
X0069969186Y0030656092D01*
X0069982190Y0030669096D01*
X0070003564Y0030679063D01*
X0070029251Y0030696226D01*
X0070048642Y0030700083D01*
X0070062037Y0030706329D01*
X0070115280Y0030713338D01*
X0070124922Y0030715256D01*
X0071324922Y0030715256D01*
X0071334552Y0030713340D01*
X0071387803Y0030706330D01*
X0071401198Y0030700083D01*
X0071420593Y0030696226D01*
X0071446281Y0030679061D01*
X0071467653Y0030669096D01*
X0071480654Y0030656094D01*
X0071501699Y0030642033D01*
X0071515760Y0030620988D01*
X0071528762Y0030607987D01*
X0071538727Y0030586615D01*
X0071555892Y0030560927D01*
X0071559749Y0030541533D01*
X0071565995Y0030528140D01*
X0071573003Y0030474899D01*
X0071574922Y0030465256D01*
X0071574922Y0028965256D01*
X0071573006Y0028955627D01*
X0071565996Y0028902374D01*
X0071559749Y0028888978D01*
X0071555892Y0028869585D01*
X0071538728Y0028843898D01*
X0071528762Y0028822524D01*
X0071515758Y0028809520D01*
X0071501699Y0028788479D01*
X0071480657Y0028774419D01*
X0071467653Y0028761415D01*
X0071446276Y0028751446D01*
X0071420593Y0028734286D01*
X0071401203Y0028730429D01*
X0071387806Y0028724182D01*
X0071334550Y0028717171D01*
X0071324922Y0028715256D01*
X0070124922Y0028715256D01*
X0070115307Y0028717168D01*
X0070062040Y0028724181D01*
X0070048640Y0028730429D01*
X0070029251Y0028734286D01*
X0070003569Y0028751445D01*
X0069982190Y0028761415D01*
X0069969183Y0028774421D01*
X0069948145Y0028788479D01*
X0069934087Y0028809517D01*
X0069921081Y0028822524D01*
X0069911111Y0028843903D01*
X0069893952Y0028869585D01*
X0069890095Y0028888973D01*
X0069883848Y0028902371D01*
X0069876836Y0028955629D01*
X0069874922Y0028965256D01*
X0069874922Y0030465256D01*
X0069876834Y0030474871D01*
G37*
G36*
X0069626834Y0012724871D02*
G01*
X0069633847Y0012778137D01*
X0069640094Y0012791535D01*
X0069643952Y0012810927D01*
X0069661113Y0012836610D01*
X0069671081Y0012857987D01*
X0069684085Y0012870991D01*
X0069698145Y0012892033D01*
X0069719186Y0012906092D01*
X0069732190Y0012919096D01*
X0069753564Y0012929063D01*
X0069779251Y0012946226D01*
X0069798642Y0012950083D01*
X0069812037Y0012956329D01*
X0069865280Y0012963338D01*
X0069874922Y0012965256D01*
X0071074922Y0012965256D01*
X0071084552Y0012963340D01*
X0071137803Y0012956330D01*
X0071151198Y0012950083D01*
X0071170593Y0012946226D01*
X0071196281Y0012929061D01*
X0071217653Y0012919096D01*
X0071230654Y0012906094D01*
X0071251699Y0012892033D01*
X0071265760Y0012870988D01*
X0071278762Y0012857987D01*
X0071288727Y0012836615D01*
X0071305892Y0012810927D01*
X0071309749Y0012791533D01*
X0071315995Y0012778140D01*
X0071323003Y0012724899D01*
X0071324922Y0012715256D01*
X0071324922Y0011215256D01*
X0071323006Y0011205627D01*
X0071315996Y0011152374D01*
X0071309749Y0011138978D01*
X0071305892Y0011119585D01*
X0071288728Y0011093898D01*
X0071278762Y0011072524D01*
X0071265758Y0011059520D01*
X0071251699Y0011038479D01*
X0071230657Y0011024419D01*
X0071217653Y0011011415D01*
X0071196276Y0011001446D01*
X0071170593Y0010984286D01*
X0071151203Y0010980429D01*
X0071137806Y0010974182D01*
X0071084550Y0010967171D01*
X0071074922Y0010965256D01*
X0069874922Y0010965256D01*
X0069865307Y0010967168D01*
X0069812040Y0010974181D01*
X0069798640Y0010980429D01*
X0069779251Y0010984286D01*
X0069753569Y0011001445D01*
X0069732190Y0011011415D01*
X0069719183Y0011024421D01*
X0069698145Y0011038479D01*
X0069684087Y0011059517D01*
X0069671081Y0011072524D01*
X0069661111Y0011093903D01*
X0069643952Y0011119585D01*
X0069640095Y0011138973D01*
X0069633848Y0011152371D01*
X0069626836Y0011205629D01*
X0069624922Y0011215256D01*
X0069624922Y0012715256D01*
X0069626834Y0012724871D01*
G37*
G36*
X0067379015Y0029948571D02*
G01*
X0067411523Y0030111998D01*
X0067475289Y0030265943D01*
X0067567863Y0030404490D01*
X0067685688Y0030522315D01*
X0067824235Y0030614889D01*
X0067978180Y0030678655D01*
X0068141607Y0030711163D01*
X0068308237Y0030711163D01*
X0068471664Y0030678655D01*
X0068625609Y0030614889D01*
X0068764156Y0030522315D01*
X0068881981Y0030404490D01*
X0068974555Y0030265943D01*
X0069038321Y0030111998D01*
X0069070829Y0029948571D01*
X0069074922Y0029865256D01*
X0069074922Y0029863408D01*
X0069074922Y0029567104D01*
X0069074922Y0029565256D01*
X0069070829Y0029481941D01*
X0069038321Y0029318514D01*
X0068974555Y0029164569D01*
X0068881981Y0029026022D01*
X0068764156Y0028908197D01*
X0068625609Y0028815623D01*
X0068471664Y0028751857D01*
X0068308237Y0028719349D01*
X0068141607Y0028719349D01*
X0067978180Y0028751857D01*
X0067824235Y0028815623D01*
X0067685688Y0028908197D01*
X0067567863Y0029026022D01*
X0067475289Y0029164569D01*
X0067411523Y0029318514D01*
X0067379015Y0029481941D01*
X0067374922Y0029565256D01*
X0067374922Y0029865256D01*
X0067379015Y0029948571D01*
G37*
G36*
X0067129015Y0012198571D02*
G01*
X0067161523Y0012361998D01*
X0067225289Y0012515943D01*
X0067317863Y0012654490D01*
X0067435688Y0012772315D01*
X0067574235Y0012864889D01*
X0067728180Y0012928655D01*
X0067891607Y0012961163D01*
X0068058237Y0012961163D01*
X0068221664Y0012928655D01*
X0068375609Y0012864889D01*
X0068514156Y0012772315D01*
X0068631981Y0012654490D01*
X0068724555Y0012515943D01*
X0068788321Y0012361998D01*
X0068820829Y0012198571D01*
X0068824922Y0012115256D01*
X0068824922Y0012113408D01*
X0068824922Y0011817104D01*
X0068824922Y0011815256D01*
X0068820829Y0011731941D01*
X0068788321Y0011568514D01*
X0068724555Y0011414569D01*
X0068631981Y0011276022D01*
X0068514156Y0011158197D01*
X0068375609Y0011065623D01*
X0068221664Y0011001857D01*
X0068058237Y0010969349D01*
X0067891607Y0010969349D01*
X0067728180Y0011001857D01*
X0067574235Y0011065623D01*
X0067435688Y0011158197D01*
X0067317863Y0011276022D01*
X0067225289Y0011414569D01*
X0067161523Y0011568514D01*
X0067129015Y0011731941D01*
X0067124922Y0011815256D01*
X0067124922Y0012115256D01*
X0067129015Y0012198571D01*
G37*
G36*
X0044425579Y0027408832D02*
G01*
X0044455927Y0027454251D01*
X0044501346Y0027484599D01*
X0044554922Y0027495256D01*
X0044894921Y0027495256D01*
X0044948498Y0027484599D01*
X0044993916Y0027454251D01*
X0045024265Y0027408832D01*
X0045034921Y0027355256D01*
X0045034921Y0027075256D01*
X0045024265Y0027021680D01*
X0044993916Y0026976261D01*
X0044948498Y0026945913D01*
X0044894921Y0026935256D01*
X0044554922Y0026935256D01*
X0044501346Y0026945913D01*
X0044455927Y0026976261D01*
X0044425579Y0027021680D01*
X0044414922Y0027075256D01*
X0044414922Y0027355256D01*
X0044425579Y0027408832D01*
G37*
G36*
X0044425579Y0028368832D02*
G01*
X0044455927Y0028414251D01*
X0044501346Y0028444599D01*
X0044554922Y0028455256D01*
X0044894921Y0028455256D01*
X0044948498Y0028444599D01*
X0044993916Y0028414251D01*
X0045024265Y0028368832D01*
X0045034921Y0028315256D01*
X0045034921Y0028035256D01*
X0045024265Y0027981680D01*
X0044993916Y0027936261D01*
X0044948498Y0027905913D01*
X0044894921Y0027895256D01*
X0044554922Y0027895256D01*
X0044501346Y0027905913D01*
X0044455927Y0027936261D01*
X0044425579Y0027981680D01*
X0044414922Y0028035256D01*
X0044414922Y0028315256D01*
X0044425579Y0028368832D01*
G37*
G36*
X0043200362Y0011505531D02*
G01*
X0043202648Y0011552057D01*
X0043203787Y0011557784D01*
X0043204705Y0011571788D01*
X0043211952Y0011598838D01*
X0043224029Y0011659550D01*
X0043235899Y0011688205D01*
X0043241866Y0011710475D01*
X0043253395Y0011730443D01*
X0043265264Y0011759097D01*
X0043299653Y0011810565D01*
X0043313655Y0011834818D01*
X0043320293Y0011841455D01*
X0043325124Y0011848685D01*
X0043401313Y0011924874D01*
X0043408542Y0011929704D01*
X0043415181Y0011936343D01*
X0043439437Y0011950347D01*
X0043490900Y0011984734D01*
X0043519551Y0011996601D01*
X0043539524Y0012008133D01*
X0043561797Y0012014101D01*
X0043590447Y0012025969D01*
X0043651151Y0012038043D01*
X0043678211Y0012045294D01*
X0043687602Y0012045294D01*
X0043696124Y0012046989D01*
X0043803873Y0012046989D01*
X0043812394Y0012045294D01*
X0043821788Y0012045294D01*
X0043848850Y0012038042D01*
X0043909550Y0012025969D01*
X0043938199Y0012014101D01*
X0043960476Y0012008133D01*
X0043980450Y0011996600D01*
X0044009097Y0011984734D01*
X0044060554Y0011950351D01*
X0044084818Y0011936343D01*
X0044091459Y0011929702D01*
X0044098686Y0011924874D01*
X0044174875Y0011848685D01*
X0044179703Y0011841458D01*
X0044186344Y0011834818D01*
X0044200351Y0011810554D01*
X0044234735Y0011759097D01*
X0044246601Y0011730449D01*
X0044258134Y0011710475D01*
X0044264101Y0011688199D01*
X0044275970Y0011659550D01*
X0044288043Y0011598852D01*
X0044295294Y0011571788D01*
X0044296212Y0011557776D01*
X0044297351Y0011552057D01*
X0044299636Y0011505539D01*
X0044300000Y0011499999D01*
X0044300000Y0011498150D01*
X0044300000Y0010901848D01*
X0044300000Y0010899999D01*
X0044299636Y0010894458D01*
X0044297351Y0010847940D01*
X0044296212Y0010842219D01*
X0044295294Y0010828210D01*
X0044288043Y0010801148D01*
X0044275970Y0010740447D01*
X0044264101Y0010711796D01*
X0044258134Y0010689523D01*
X0044246601Y0010669550D01*
X0044234735Y0010640900D01*
X0044200348Y0010589436D01*
X0044186344Y0010565180D01*
X0044179705Y0010558541D01*
X0044174875Y0010551312D01*
X0044098686Y0010475123D01*
X0044091455Y0010470292D01*
X0044084818Y0010463655D01*
X0044060565Y0010449652D01*
X0044009097Y0010415263D01*
X0043980444Y0010403394D01*
X0043960476Y0010391865D01*
X0043938205Y0010385898D01*
X0043909550Y0010374028D01*
X0043848845Y0010361953D01*
X0043821788Y0010354704D01*
X0043812394Y0010354704D01*
X0043803873Y0010353009D01*
X0043696124Y0010353009D01*
X0043687602Y0010354704D01*
X0043678211Y0010354704D01*
X0043651157Y0010361953D01*
X0043590447Y0010374028D01*
X0043561790Y0010385898D01*
X0043539524Y0010391865D01*
X0043519557Y0010403392D01*
X0043490900Y0010415263D01*
X0043439426Y0010449657D01*
X0043415181Y0010463655D01*
X0043408545Y0010470290D01*
X0043401313Y0010475123D01*
X0043325124Y0010551312D01*
X0043320291Y0010558544D01*
X0043313655Y0010565180D01*
X0043299657Y0010589425D01*
X0043265264Y0010640900D01*
X0043253393Y0010669556D01*
X0043241866Y0010689523D01*
X0043235899Y0010711789D01*
X0043224029Y0010740447D01*
X0043211952Y0010801162D01*
X0043204705Y0010828210D01*
X0043203787Y0010842212D01*
X0043202648Y0010847940D01*
X0043200362Y0010894467D01*
X0043200000Y0010899999D01*
X0043200000Y0011499999D01*
X0043200362Y0011505531D01*
G37*
G36*
X0043200362Y0015305531D02*
G01*
X0043202648Y0015352057D01*
X0043203787Y0015357784D01*
X0043204705Y0015371788D01*
X0043211952Y0015398838D01*
X0043224029Y0015459550D01*
X0043235899Y0015488205D01*
X0043241866Y0015510475D01*
X0043253395Y0015530443D01*
X0043265264Y0015559097D01*
X0043299653Y0015610565D01*
X0043313655Y0015634818D01*
X0043320293Y0015641455D01*
X0043325124Y0015648685D01*
X0043401313Y0015724874D01*
X0043408542Y0015729704D01*
X0043415181Y0015736343D01*
X0043439437Y0015750347D01*
X0043490900Y0015784734D01*
X0043519551Y0015796601D01*
X0043539524Y0015808133D01*
X0043561797Y0015814101D01*
X0043590447Y0015825969D01*
X0043651151Y0015838043D01*
X0043678211Y0015845294D01*
X0043687602Y0015845294D01*
X0043696124Y0015846989D01*
X0043803873Y0015846989D01*
X0043812394Y0015845294D01*
X0043821788Y0015845294D01*
X0043848850Y0015838042D01*
X0043909550Y0015825969D01*
X0043938199Y0015814101D01*
X0043960476Y0015808133D01*
X0043980450Y0015796600D01*
X0044009097Y0015784734D01*
X0044060554Y0015750351D01*
X0044084818Y0015736343D01*
X0044091459Y0015729702D01*
X0044098686Y0015724874D01*
X0044174875Y0015648685D01*
X0044179703Y0015641458D01*
X0044186344Y0015634818D01*
X0044200351Y0015610554D01*
X0044234735Y0015559097D01*
X0044246601Y0015530449D01*
X0044258134Y0015510475D01*
X0044264101Y0015488199D01*
X0044275970Y0015459550D01*
X0044288043Y0015398852D01*
X0044295294Y0015371788D01*
X0044296212Y0015357776D01*
X0044297351Y0015352057D01*
X0044299636Y0015305539D01*
X0044300000Y0015299999D01*
X0044300000Y0015298150D01*
X0044300000Y0014701848D01*
X0044300000Y0014699999D01*
X0044299636Y0014694458D01*
X0044297351Y0014647940D01*
X0044296212Y0014642219D01*
X0044295294Y0014628210D01*
X0044288043Y0014601148D01*
X0044275970Y0014540447D01*
X0044264101Y0014511796D01*
X0044258134Y0014489523D01*
X0044246601Y0014469550D01*
X0044234735Y0014440900D01*
X0044200348Y0014389436D01*
X0044186344Y0014365180D01*
X0044179705Y0014358541D01*
X0044174875Y0014351312D01*
X0044098686Y0014275123D01*
X0044091455Y0014270292D01*
X0044084818Y0014263655D01*
X0044060565Y0014249652D01*
X0044009097Y0014215263D01*
X0043980444Y0014203394D01*
X0043960476Y0014191865D01*
X0043938205Y0014185898D01*
X0043909550Y0014174028D01*
X0043848845Y0014161953D01*
X0043821788Y0014154704D01*
X0043812394Y0014154704D01*
X0043803873Y0014153009D01*
X0043696124Y0014153009D01*
X0043687602Y0014154704D01*
X0043678211Y0014154704D01*
X0043651157Y0014161953D01*
X0043590447Y0014174028D01*
X0043561790Y0014185898D01*
X0043539524Y0014191865D01*
X0043519557Y0014203392D01*
X0043490900Y0014215263D01*
X0043439426Y0014249657D01*
X0043415181Y0014263655D01*
X0043408545Y0014270290D01*
X0043401313Y0014275123D01*
X0043325124Y0014351312D01*
X0043320291Y0014358544D01*
X0043313655Y0014365180D01*
X0043299657Y0014389425D01*
X0043265264Y0014440900D01*
X0043253393Y0014469556D01*
X0043241866Y0014489523D01*
X0043235899Y0014511789D01*
X0043224029Y0014540447D01*
X0043211952Y0014601162D01*
X0043204705Y0014628210D01*
X0043203787Y0014642212D01*
X0043202648Y0014647940D01*
X0043200362Y0014694467D01*
X0043200000Y0014699999D01*
X0043200000Y0015299999D01*
X0043200362Y0015305531D01*
G37*
G36*
X0042915198Y0027151918D02*
G01*
X0042944463Y0027195715D01*
X0042988260Y0027224980D01*
X0043039922Y0027235256D01*
X0043409921Y0027235256D01*
X0043461584Y0027224980D01*
X0043505381Y0027195715D01*
X0043534645Y0027151918D01*
X0043544922Y0027100256D01*
X0043544922Y0026830256D01*
X0043534645Y0026778594D01*
X0043505381Y0026734797D01*
X0043461584Y0026705532D01*
X0043409921Y0026695256D01*
X0043039922Y0026695256D01*
X0042988260Y0026705532D01*
X0042944463Y0026734797D01*
X0042915198Y0026778594D01*
X0042904922Y0026830256D01*
X0042904922Y0027100256D01*
X0042915198Y0027151918D01*
G37*
G36*
X0042915198Y0028171918D02*
G01*
X0042944463Y0028215715D01*
X0042988260Y0028244980D01*
X0043039922Y0028255256D01*
X0043409921Y0028255256D01*
X0043461584Y0028244980D01*
X0043505381Y0028215715D01*
X0043534645Y0028171918D01*
X0043544922Y0028120256D01*
X0043544922Y0027850256D01*
X0043534645Y0027798594D01*
X0043505381Y0027754797D01*
X0043461584Y0027725532D01*
X0043409921Y0027715256D01*
X0043039922Y0027715256D01*
X0042988260Y0027725532D01*
X0042944463Y0027754797D01*
X0042915198Y0027798594D01*
X0042904922Y0027850256D01*
X0042904922Y0028120256D01*
X0042915198Y0028171918D01*
G37*
G36*
X0042925579Y0024908832D02*
G01*
X0042955927Y0024954251D01*
X0043001346Y0024984599D01*
X0043054922Y0024995256D01*
X0043394921Y0024995256D01*
X0043448498Y0024984599D01*
X0043493916Y0024954251D01*
X0043524265Y0024908832D01*
X0043534921Y0024855256D01*
X0043534921Y0024575256D01*
X0043524265Y0024521680D01*
X0043493916Y0024476261D01*
X0043448498Y0024445913D01*
X0043394921Y0024435256D01*
X0043054922Y0024435256D01*
X0043001346Y0024445913D01*
X0042955927Y0024476261D01*
X0042925579Y0024521680D01*
X0042914922Y0024575256D01*
X0042914922Y0024855256D01*
X0042925579Y0024908832D01*
G37*
G36*
X0042925579Y0025868832D02*
G01*
X0042955927Y0025914251D01*
X0043001346Y0025944599D01*
X0043054922Y0025955256D01*
X0043394921Y0025955256D01*
X0043448498Y0025944599D01*
X0043493916Y0025914251D01*
X0043524265Y0025868832D01*
X0043534921Y0025815256D01*
X0043534921Y0025535256D01*
X0043524265Y0025481680D01*
X0043493916Y0025436261D01*
X0043448498Y0025405913D01*
X0043394921Y0025395256D01*
X0043054922Y0025395256D01*
X0043001346Y0025405913D01*
X0042955927Y0025436261D01*
X0042925579Y0025481680D01*
X0042914922Y0025535256D01*
X0042914922Y0025815256D01*
X0042925579Y0025868832D01*
G37*
G36*
X0041915198Y0032631918D02*
G01*
X0041944463Y0032675715D01*
X0041988260Y0032704980D01*
X0042039922Y0032715256D01*
X0042409921Y0032715256D01*
X0042461584Y0032704980D01*
X0042505381Y0032675715D01*
X0042534645Y0032631918D01*
X0042544922Y0032580256D01*
X0042544922Y0032310256D01*
X0042534645Y0032258594D01*
X0042505381Y0032214797D01*
X0042461584Y0032185532D01*
X0042409921Y0032175256D01*
X0042039922Y0032175256D01*
X0041988260Y0032185532D01*
X0041944463Y0032214797D01*
X0041915198Y0032258594D01*
X0041904922Y0032310256D01*
X0041904922Y0032580256D01*
X0041915198Y0032631918D01*
G37*
G36*
X0041915198Y0033651918D02*
G01*
X0041944463Y0033695715D01*
X0041988260Y0033724980D01*
X0042039922Y0033735256D01*
X0042409921Y0033735256D01*
X0042461584Y0033724980D01*
X0042505381Y0033695715D01*
X0042534645Y0033651918D01*
X0042544922Y0033600256D01*
X0042544922Y0033330256D01*
X0042534645Y0033278594D01*
X0042505381Y0033234797D01*
X0042461584Y0033205532D01*
X0042409921Y0033195256D01*
X0042039922Y0033195256D01*
X0041988260Y0033205532D01*
X0041944463Y0033234797D01*
X0041915198Y0033278594D01*
X0041904922Y0033330256D01*
X0041904922Y0033600256D01*
X0041915198Y0033651918D01*
G37*
G36*
X0040126834Y0010874871D02*
G01*
X0040133847Y0010928137D01*
X0040140094Y0010941535D01*
X0040143952Y0010960927D01*
X0040161113Y0010986610D01*
X0040171081Y0011007987D01*
X0040184084Y0011020991D01*
X0040198145Y0011042033D01*
X0040219185Y0011056092D01*
X0040232190Y0011069096D01*
X0040253564Y0011079063D01*
X0040279251Y0011096226D01*
X0040298642Y0011100083D01*
X0040312037Y0011106329D01*
X0040365280Y0011113338D01*
X0040374922Y0011115256D01*
X0041024922Y0011115256D01*
X0041034552Y0011113340D01*
X0041087802Y0011106330D01*
X0041101198Y0011100083D01*
X0041120593Y0011096226D01*
X0041146281Y0011079061D01*
X0041167653Y0011069096D01*
X0041180654Y0011056094D01*
X0041201699Y0011042033D01*
X0041215760Y0011020988D01*
X0041228762Y0011007987D01*
X0041238727Y0010986615D01*
X0041255892Y0010960927D01*
X0041259749Y0010941533D01*
X0041265995Y0010928140D01*
X0041273003Y0010874899D01*
X0041274922Y0010865256D01*
X0041274922Y0009565256D01*
X0041273005Y0009555627D01*
X0041265996Y0009502374D01*
X0041259749Y0009488978D01*
X0041255892Y0009469585D01*
X0041238727Y0009443898D01*
X0041228762Y0009422524D01*
X0041215757Y0009409520D01*
X0041201699Y0009388479D01*
X0041180657Y0009374419D01*
X0041167653Y0009361415D01*
X0041146276Y0009351446D01*
X0041120593Y0009334286D01*
X0041101203Y0009330429D01*
X0041087806Y0009324182D01*
X0041034549Y0009317171D01*
X0041024922Y0009315256D01*
X0040374922Y0009315256D01*
X0040365307Y0009317168D01*
X0040312039Y0009324181D01*
X0040298640Y0009330429D01*
X0040279251Y0009334286D01*
X0040253569Y0009351445D01*
X0040232190Y0009361415D01*
X0040219183Y0009374421D01*
X0040198145Y0009388479D01*
X0040184087Y0009409517D01*
X0040171081Y0009422524D01*
X0040161111Y0009443903D01*
X0040143952Y0009469585D01*
X0040140095Y0009488973D01*
X0040133848Y0009502371D01*
X0040126836Y0009555629D01*
X0040124922Y0009565256D01*
X0040124922Y0010865256D01*
X0040126834Y0010874871D01*
G37*
G36*
X0039501834Y0025524871D02*
G01*
X0039508847Y0025578137D01*
X0039515094Y0025591535D01*
X0039518952Y0025610927D01*
X0039536113Y0025636610D01*
X0039546081Y0025657987D01*
X0039559084Y0025670991D01*
X0039573145Y0025692033D01*
X0039594185Y0025706092D01*
X0039607190Y0025719096D01*
X0039628564Y0025729063D01*
X0039654251Y0025746226D01*
X0039673642Y0025750083D01*
X0039687037Y0025756329D01*
X0039740280Y0025763338D01*
X0039749922Y0025765256D01*
X0040699922Y0025765256D01*
X0040709552Y0025763340D01*
X0040762803Y0025756330D01*
X0040776197Y0025750083D01*
X0040795593Y0025746226D01*
X0040821281Y0025729061D01*
X0040842653Y0025719096D01*
X0040855654Y0025706094D01*
X0040876699Y0025692033D01*
X0040890760Y0025670988D01*
X0040903762Y0025657987D01*
X0040913726Y0025636615D01*
X0040930892Y0025610927D01*
X0040934749Y0025591533D01*
X0040940995Y0025578140D01*
X0040948003Y0025524899D01*
X0040949922Y0025515256D01*
X0040949922Y0025015256D01*
X0040948006Y0025005627D01*
X0040940996Y0024952374D01*
X0040934749Y0024938978D01*
X0040930892Y0024919585D01*
X0040913728Y0024893898D01*
X0040903762Y0024872524D01*
X0040890758Y0024859520D01*
X0040876699Y0024838479D01*
X0040855656Y0024824419D01*
X0040842653Y0024811415D01*
X0040821276Y0024801446D01*
X0040795593Y0024784286D01*
X0040776202Y0024780429D01*
X0040762806Y0024774182D01*
X0040709549Y0024767171D01*
X0040699922Y0024765256D01*
X0039749922Y0024765256D01*
X0039740307Y0024767168D01*
X0039687039Y0024774181D01*
X0039673640Y0024780429D01*
X0039654251Y0024784286D01*
X0039628569Y0024801445D01*
X0039607190Y0024811415D01*
X0039594183Y0024824421D01*
X0039573145Y0024838479D01*
X0039559087Y0024859517D01*
X0039546081Y0024872524D01*
X0039536111Y0024893903D01*
X0039518952Y0024919585D01*
X0039515095Y0024938973D01*
X0039508848Y0024952371D01*
X0039501836Y0025005629D01*
X0039499922Y0025015256D01*
X0039499922Y0025515256D01*
X0039501834Y0025524871D01*
G37*
G36*
X0039501834Y0027424871D02*
G01*
X0039508847Y0027478137D01*
X0039515094Y0027491535D01*
X0039518952Y0027510927D01*
X0039536113Y0027536610D01*
X0039546081Y0027557987D01*
X0039559084Y0027570991D01*
X0039573145Y0027592033D01*
X0039594185Y0027606092D01*
X0039607190Y0027619096D01*
X0039628564Y0027629063D01*
X0039654251Y0027646226D01*
X0039673642Y0027650083D01*
X0039687037Y0027656329D01*
X0039740280Y0027663338D01*
X0039749922Y0027665256D01*
X0040699922Y0027665256D01*
X0040709552Y0027663340D01*
X0040762803Y0027656330D01*
X0040776197Y0027650083D01*
X0040795593Y0027646226D01*
X0040821281Y0027629061D01*
X0040842653Y0027619096D01*
X0040855654Y0027606094D01*
X0040876699Y0027592033D01*
X0040890760Y0027570988D01*
X0040903762Y0027557987D01*
X0040913726Y0027536615D01*
X0040930892Y0027510927D01*
X0040934749Y0027491533D01*
X0040940995Y0027478140D01*
X0040948003Y0027424899D01*
X0040949922Y0027415256D01*
X0040949922Y0026915256D01*
X0040948006Y0026905627D01*
X0040940996Y0026852374D01*
X0040934749Y0026838978D01*
X0040930892Y0026819585D01*
X0040913728Y0026793898D01*
X0040903762Y0026772524D01*
X0040890758Y0026759520D01*
X0040876699Y0026738479D01*
X0040855656Y0026724419D01*
X0040842653Y0026711415D01*
X0040821276Y0026701446D01*
X0040795593Y0026684286D01*
X0040776202Y0026680429D01*
X0040762806Y0026674182D01*
X0040709549Y0026667171D01*
X0040699922Y0026665256D01*
X0039749922Y0026665256D01*
X0039740307Y0026667168D01*
X0039687039Y0026674181D01*
X0039673640Y0026680429D01*
X0039654251Y0026684286D01*
X0039628569Y0026701445D01*
X0039607190Y0026711415D01*
X0039594183Y0026724421D01*
X0039573145Y0026738479D01*
X0039559087Y0026759517D01*
X0039546081Y0026772524D01*
X0039536111Y0026793903D01*
X0039518952Y0026819585D01*
X0039515095Y0026838973D01*
X0039508848Y0026852371D01*
X0039501836Y0026905629D01*
X0039499922Y0026915256D01*
X0039499922Y0027415256D01*
X0039501834Y0027424871D01*
G37*
G36*
X0040001127Y0032446323D02*
G01*
X0040006083Y0032489024D01*
X0040012524Y0032503611D01*
X0040017049Y0032526360D01*
X0040033321Y0032550713D01*
X0040040370Y0032566679D01*
X0040051275Y0032577583D01*
X0040065822Y0032599355D01*
X0040087593Y0032613902D01*
X0040098498Y0032624806D01*
X0040114462Y0032631854D01*
X0040138818Y0032648129D01*
X0040161568Y0032652654D01*
X0040176153Y0032659094D01*
X0040218846Y0032664047D01*
X0040224922Y0032665256D01*
X0040724922Y0032665256D01*
X0040731001Y0032664046D01*
X0040773690Y0032659094D01*
X0040788273Y0032652654D01*
X0040811026Y0032648129D01*
X0040835382Y0032631853D01*
X0040851344Y0032624806D01*
X0040862246Y0032613904D01*
X0040884021Y0032599355D01*
X0040898570Y0032577580D01*
X0040909471Y0032566679D01*
X0040916518Y0032550717D01*
X0040932795Y0032526360D01*
X0040937320Y0032503607D01*
X0040943760Y0032489024D01*
X0040948713Y0032446333D01*
X0040949922Y0032440256D01*
X0040949922Y0031990256D01*
X0040948712Y0031984177D01*
X0040943760Y0031941487D01*
X0040937320Y0031926902D01*
X0040932795Y0031904152D01*
X0040916520Y0031879796D01*
X0040909471Y0031863832D01*
X0040898568Y0031852928D01*
X0040884021Y0031831157D01*
X0040862249Y0031816609D01*
X0040851344Y0031805705D01*
X0040835379Y0031798655D01*
X0040811026Y0031782383D01*
X0040788276Y0031777858D01*
X0040773690Y0031771417D01*
X0040730987Y0031766462D01*
X0040724922Y0031765256D01*
X0040224922Y0031765256D01*
X0040218855Y0031766462D01*
X0040176153Y0031771417D01*
X0040161564Y0031777858D01*
X0040138818Y0031782383D01*
X0040114465Y0031798654D01*
X0040098498Y0031805705D01*
X0040087591Y0031816611D01*
X0040065822Y0031831157D01*
X0040051277Y0031852925D01*
X0040040370Y0031863832D01*
X0040033320Y0031879800D01*
X0040017049Y0031904152D01*
X0040012524Y0031926898D01*
X0040006083Y0031941487D01*
X0040001127Y0031984192D01*
X0039999922Y0031990256D01*
X0039999922Y0032440256D01*
X0040001127Y0032446323D01*
G37*
G36*
X0040001127Y0033996323D02*
G01*
X0040006083Y0034039024D01*
X0040012524Y0034053611D01*
X0040017049Y0034076360D01*
X0040033321Y0034100714D01*
X0040040370Y0034116679D01*
X0040051275Y0034127583D01*
X0040065822Y0034149355D01*
X0040087593Y0034163902D01*
X0040098498Y0034174806D01*
X0040114462Y0034181854D01*
X0040138818Y0034198129D01*
X0040161568Y0034202654D01*
X0040176153Y0034209094D01*
X0040218846Y0034214047D01*
X0040224922Y0034215256D01*
X0040724922Y0034215256D01*
X0040731001Y0034214046D01*
X0040773690Y0034209094D01*
X0040788273Y0034202654D01*
X0040811026Y0034198129D01*
X0040835382Y0034181853D01*
X0040851344Y0034174806D01*
X0040862246Y0034163904D01*
X0040884021Y0034149355D01*
X0040898570Y0034127580D01*
X0040909471Y0034116679D01*
X0040916518Y0034100717D01*
X0040932795Y0034076360D01*
X0040937320Y0034053607D01*
X0040943760Y0034039024D01*
X0040948713Y0033996333D01*
X0040949922Y0033990256D01*
X0040949922Y0033540256D01*
X0040948712Y0033534177D01*
X0040943760Y0033491487D01*
X0040937320Y0033476902D01*
X0040932795Y0033454152D01*
X0040916520Y0033429796D01*
X0040909471Y0033413832D01*
X0040898568Y0033402928D01*
X0040884021Y0033381157D01*
X0040862249Y0033366609D01*
X0040851344Y0033355705D01*
X0040835379Y0033348655D01*
X0040811026Y0033332383D01*
X0040788276Y0033327858D01*
X0040773690Y0033321417D01*
X0040730987Y0033316462D01*
X0040724922Y0033315256D01*
X0040224922Y0033315256D01*
X0040218855Y0033316462D01*
X0040176153Y0033321417D01*
X0040161564Y0033327858D01*
X0040138818Y0033332383D01*
X0040114465Y0033348654D01*
X0040098498Y0033355705D01*
X0040087591Y0033366611D01*
X0040065822Y0033381157D01*
X0040051277Y0033402925D01*
X0040040370Y0033413832D01*
X0040033320Y0033429800D01*
X0040017049Y0033454152D01*
X0040012524Y0033476898D01*
X0040006083Y0033491487D01*
X0040001127Y0033534192D01*
X0039999922Y0033540256D01*
X0039999922Y0033990256D01*
X0040001127Y0033996323D01*
G37*
G36*
X0038601912Y0005634614D02*
G01*
X0038608925Y0005687880D01*
X0038615172Y0005701278D01*
X0038619029Y0005720670D01*
X0038636191Y0005746353D01*
X0038646159Y0005767730D01*
X0038659163Y0005780734D01*
X0038673222Y0005801776D01*
X0038694264Y0005815835D01*
X0038707268Y0005828839D01*
X0038728641Y0005838806D01*
X0038754329Y0005855969D01*
X0038773720Y0005859826D01*
X0038787115Y0005866072D01*
X0038840357Y0005873081D01*
X0038849999Y0005874999D01*
X0040150000Y0005874999D01*
X0040159630Y0005873083D01*
X0040212880Y0005866073D01*
X0040226276Y0005859826D01*
X0040245671Y0005855969D01*
X0040271359Y0005838804D01*
X0040292731Y0005828839D01*
X0040305732Y0005815837D01*
X0040326777Y0005801776D01*
X0040340838Y0005780731D01*
X0040353840Y0005767730D01*
X0040363805Y0005746358D01*
X0040380970Y0005720670D01*
X0040384827Y0005701276D01*
X0040391073Y0005687883D01*
X0040398081Y0005634642D01*
X0040400000Y0005624999D01*
X0040400000Y0004974999D01*
X0040398084Y0004965370D01*
X0040391074Y0004912117D01*
X0040384827Y0004898721D01*
X0040380970Y0004879328D01*
X0040363806Y0004853641D01*
X0040353840Y0004832267D01*
X0040340835Y0004819263D01*
X0040326777Y0004798222D01*
X0040305735Y0004784162D01*
X0040292731Y0004771158D01*
X0040271354Y0004761189D01*
X0040245671Y0004744029D01*
X0040226281Y0004740172D01*
X0040212884Y0004733925D01*
X0040159628Y0004726914D01*
X0040150000Y0004724999D01*
X0038849999Y0004724999D01*
X0038840385Y0004726911D01*
X0038787118Y0004733924D01*
X0038773718Y0004740172D01*
X0038754329Y0004744029D01*
X0038728646Y0004761188D01*
X0038707268Y0004771158D01*
X0038694261Y0004784164D01*
X0038673222Y0004798222D01*
X0038659165Y0004819260D01*
X0038646159Y0004832267D01*
X0038636189Y0004853646D01*
X0038619029Y0004879328D01*
X0038615173Y0004898716D01*
X0038608926Y0004912114D01*
X0038601913Y0004965372D01*
X0038599999Y0004974999D01*
X0038599999Y0005624999D01*
X0038601912Y0005634614D01*
G37*
G36*
X0038601912Y0008584614D02*
G01*
X0038608925Y0008637880D01*
X0038615172Y0008651278D01*
X0038619029Y0008670670D01*
X0038636191Y0008696353D01*
X0038646159Y0008717730D01*
X0038659163Y0008730734D01*
X0038673222Y0008751776D01*
X0038694264Y0008765835D01*
X0038707268Y0008778839D01*
X0038728641Y0008788806D01*
X0038754329Y0008805969D01*
X0038773720Y0008809826D01*
X0038787115Y0008816072D01*
X0038840357Y0008823081D01*
X0038849999Y0008824999D01*
X0040150000Y0008824999D01*
X0040159630Y0008823083D01*
X0040212880Y0008816073D01*
X0040226276Y0008809826D01*
X0040245671Y0008805969D01*
X0040271359Y0008788804D01*
X0040292731Y0008778839D01*
X0040305732Y0008765837D01*
X0040326777Y0008751776D01*
X0040340838Y0008730731D01*
X0040353840Y0008717730D01*
X0040363805Y0008696358D01*
X0040380970Y0008670670D01*
X0040384827Y0008651276D01*
X0040391073Y0008637883D01*
X0040398081Y0008584642D01*
X0040400000Y0008574999D01*
X0040400000Y0007924999D01*
X0040398084Y0007915370D01*
X0040391074Y0007862117D01*
X0040384827Y0007848721D01*
X0040380970Y0007829328D01*
X0040363806Y0007803641D01*
X0040353840Y0007782267D01*
X0040340835Y0007769263D01*
X0040326777Y0007748222D01*
X0040305735Y0007734162D01*
X0040292731Y0007721158D01*
X0040271354Y0007711189D01*
X0040245671Y0007694029D01*
X0040226281Y0007690172D01*
X0040212884Y0007683925D01*
X0040159628Y0007676914D01*
X0040150000Y0007674999D01*
X0038849999Y0007674999D01*
X0038840385Y0007676911D01*
X0038787118Y0007683924D01*
X0038773718Y0007690172D01*
X0038754329Y0007694029D01*
X0038728646Y0007711188D01*
X0038707268Y0007721158D01*
X0038694261Y0007734164D01*
X0038673222Y0007748222D01*
X0038659165Y0007769260D01*
X0038646159Y0007782267D01*
X0038636189Y0007803646D01*
X0038619029Y0007829328D01*
X0038615173Y0007848716D01*
X0038608926Y0007862114D01*
X0038601913Y0007915372D01*
X0038599999Y0007924999D01*
X0038599999Y0008574999D01*
X0038601912Y0008584614D01*
G37*
G36*
X0038207533Y0026778524D02*
G01*
X0038229211Y0026810967D01*
X0038261653Y0026832644D01*
X0038299921Y0026840256D01*
X0038499922Y0026840256D01*
X0038538190Y0026832644D01*
X0038570633Y0026810967D01*
X0038592310Y0026778524D01*
X0038599922Y0026740256D01*
X0038599922Y0025465256D01*
X0038592310Y0025426988D01*
X0038570633Y0025394545D01*
X0038538190Y0025372868D01*
X0038499922Y0025365256D01*
X0038299921Y0025365256D01*
X0038261653Y0025372868D01*
X0038229211Y0025394545D01*
X0038207533Y0025426988D01*
X0038199922Y0025465256D01*
X0038199922Y0026740256D01*
X0038207533Y0026778524D01*
G37*
G36*
X0038207533Y0032503524D02*
G01*
X0038229211Y0032535967D01*
X0038261653Y0032557644D01*
X0038299921Y0032565256D01*
X0038499922Y0032565256D01*
X0038538190Y0032557644D01*
X0038570633Y0032535967D01*
X0038592310Y0032503524D01*
X0038599922Y0032465256D01*
X0038599922Y0031190256D01*
X0038592310Y0031151988D01*
X0038570633Y0031119545D01*
X0038538190Y0031097868D01*
X0038499922Y0031090256D01*
X0038299921Y0031090256D01*
X0038261653Y0031097868D01*
X0038229211Y0031119545D01*
X0038207533Y0031151988D01*
X0038199922Y0031190256D01*
X0038199922Y0032465256D01*
X0038207533Y0032503524D01*
G37*
G36*
X0037176834Y0010874871D02*
G01*
X0037183847Y0010928137D01*
X0037190094Y0010941535D01*
X0037193951Y0010960927D01*
X0037211113Y0010986610D01*
X0037221081Y0011007987D01*
X0037234084Y0011020991D01*
X0037248144Y0011042033D01*
X0037269186Y0011056092D01*
X0037282190Y0011069096D01*
X0037303563Y0011079063D01*
X0037329251Y0011096226D01*
X0037348642Y0011100083D01*
X0037362037Y0011106329D01*
X0037415279Y0011113338D01*
X0037424921Y0011115256D01*
X0038074922Y0011115256D01*
X0038084552Y0011113340D01*
X0038137803Y0011106330D01*
X0038151197Y0011100083D01*
X0038170593Y0011096226D01*
X0038196281Y0011079061D01*
X0038217653Y0011069096D01*
X0038230654Y0011056094D01*
X0038251699Y0011042033D01*
X0038265760Y0011020988D01*
X0038278762Y0011007987D01*
X0038288726Y0010986615D01*
X0038305892Y0010960927D01*
X0038309749Y0010941533D01*
X0038315995Y0010928140D01*
X0038323003Y0010874899D01*
X0038324922Y0010865256D01*
X0038324922Y0009565256D01*
X0038323006Y0009555627D01*
X0038315996Y0009502374D01*
X0038309749Y0009488978D01*
X0038305892Y0009469585D01*
X0038288728Y0009443898D01*
X0038278762Y0009422524D01*
X0038265758Y0009409520D01*
X0038251699Y0009388479D01*
X0038230656Y0009374419D01*
X0038217653Y0009361415D01*
X0038196276Y0009351446D01*
X0038170593Y0009334286D01*
X0038151202Y0009330429D01*
X0038137806Y0009324182D01*
X0038084549Y0009317171D01*
X0038074922Y0009315256D01*
X0037424921Y0009315256D01*
X0037415307Y0009317168D01*
X0037362039Y0009324181D01*
X0037348640Y0009330429D01*
X0037329251Y0009334286D01*
X0037303568Y0009351445D01*
X0037282190Y0009361415D01*
X0037269183Y0009374421D01*
X0037248144Y0009388479D01*
X0037234087Y0009409517D01*
X0037221081Y0009422524D01*
X0037211111Y0009443903D01*
X0037193951Y0009469585D01*
X0037190095Y0009488973D01*
X0037183848Y0009502371D01*
X0037176835Y0009555629D01*
X0037174921Y0009565256D01*
X0037174921Y0010865256D01*
X0037176834Y0010874871D01*
G37*
G36*
X0037557534Y0026778524D02*
G01*
X0037579211Y0026810967D01*
X0037611654Y0026832644D01*
X0037649922Y0026840256D01*
X0037849922Y0026840256D01*
X0037888189Y0026832644D01*
X0037920632Y0026810967D01*
X0037942310Y0026778524D01*
X0037949922Y0026740256D01*
X0037949922Y0025465256D01*
X0037942310Y0025426988D01*
X0037920632Y0025394545D01*
X0037888189Y0025372868D01*
X0037849922Y0025365256D01*
X0037649922Y0025365256D01*
X0037611654Y0025372868D01*
X0037579211Y0025394545D01*
X0037557534Y0025426988D01*
X0037549921Y0025465256D01*
X0037549921Y0026740256D01*
X0037557534Y0026778524D01*
G37*
G36*
X0037557534Y0032503524D02*
G01*
X0037579211Y0032535967D01*
X0037611654Y0032557644D01*
X0037649922Y0032565256D01*
X0037849922Y0032565256D01*
X0037888189Y0032557644D01*
X0037920632Y0032535967D01*
X0037942310Y0032503524D01*
X0037949922Y0032465256D01*
X0037949922Y0031190256D01*
X0037942310Y0031151988D01*
X0037920632Y0031119545D01*
X0037888189Y0031097868D01*
X0037849922Y0031090256D01*
X0037649922Y0031090256D01*
X0037611654Y0031097868D01*
X0037579211Y0031119545D01*
X0037557534Y0031151988D01*
X0037549921Y0031190256D01*
X0037549921Y0032465256D01*
X0037557534Y0032503524D01*
G37*
G36*
X0036907534Y0026778524D02*
G01*
X0036929210Y0026810967D01*
X0036961653Y0026832644D01*
X0036999922Y0026840256D01*
X0037199922Y0026840256D01*
X0037238190Y0026832644D01*
X0037270633Y0026810967D01*
X0037292310Y0026778524D01*
X0037299921Y0026740256D01*
X0037299921Y0025465256D01*
X0037292310Y0025426988D01*
X0037270633Y0025394545D01*
X0037238190Y0025372868D01*
X0037199922Y0025365256D01*
X0036999922Y0025365256D01*
X0036961653Y0025372868D01*
X0036929210Y0025394545D01*
X0036907534Y0025426988D01*
X0036899922Y0025465256D01*
X0036899922Y0026740256D01*
X0036907534Y0026778524D01*
G37*
G36*
X0036907534Y0032503524D02*
G01*
X0036929210Y0032535967D01*
X0036961653Y0032557644D01*
X0036999922Y0032565256D01*
X0037199922Y0032565256D01*
X0037238190Y0032557644D01*
X0037270633Y0032535967D01*
X0037292310Y0032503524D01*
X0037299921Y0032465256D01*
X0037299921Y0031190256D01*
X0037292310Y0031151988D01*
X0037270633Y0031119545D01*
X0037238190Y0031097868D01*
X0037199922Y0031090256D01*
X0036999922Y0031090256D01*
X0036961653Y0031097868D01*
X0036929210Y0031119545D01*
X0036907534Y0031151988D01*
X0036899922Y0031190256D01*
X0036899922Y0032465256D01*
X0036907534Y0032503524D01*
G37*
G36*
X0036257534Y0026778524D02*
G01*
X0036279211Y0026810967D01*
X0036311654Y0026832644D01*
X0036349922Y0026840256D01*
X0036549921Y0026840256D01*
X0036588190Y0026832644D01*
X0036620633Y0026810967D01*
X0036642309Y0026778524D01*
X0036649922Y0026740256D01*
X0036649922Y0025465256D01*
X0036642309Y0025426988D01*
X0036620633Y0025394545D01*
X0036588190Y0025372868D01*
X0036549921Y0025365256D01*
X0036349922Y0025365256D01*
X0036311654Y0025372868D01*
X0036279211Y0025394545D01*
X0036257534Y0025426988D01*
X0036249922Y0025465256D01*
X0036249922Y0026740256D01*
X0036257534Y0026778524D01*
G37*
G36*
X0036257534Y0032503524D02*
G01*
X0036279211Y0032535967D01*
X0036311654Y0032557644D01*
X0036349922Y0032565256D01*
X0036549921Y0032565256D01*
X0036588190Y0032557644D01*
X0036620633Y0032535967D01*
X0036642309Y0032503524D01*
X0036649922Y0032465256D01*
X0036649922Y0031190256D01*
X0036642309Y0031151988D01*
X0036620633Y0031119545D01*
X0036588190Y0031097868D01*
X0036549921Y0031090256D01*
X0036349922Y0031090256D01*
X0036311654Y0031097868D01*
X0036279211Y0031119545D01*
X0036257534Y0031151988D01*
X0036249922Y0031190256D01*
X0036249922Y0032465256D01*
X0036257534Y0032503524D01*
G37*
G36*
X0036292100Y0006272799D02*
G01*
X0036292100Y0004951999D01*
X0035733300Y0004951999D01*
X0035733300Y0006272799D01*
X0036292100Y0006272799D01*
G37*
G36*
X0036279399Y0008660399D02*
G01*
X0036279399Y0007339599D01*
X0035720600Y0007339599D01*
X0035720600Y0008660399D01*
X0036279399Y0008660399D01*
G37*
G36*
X0035607534Y0026778524D02*
G01*
X0035629211Y0026810967D01*
X0035661654Y0026832644D01*
X0035699922Y0026840256D01*
X0035899922Y0026840256D01*
X0035938190Y0026832644D01*
X0035970633Y0026810967D01*
X0035992310Y0026778524D01*
X0035999922Y0026740256D01*
X0035999922Y0025465256D01*
X0035992310Y0025426988D01*
X0035970633Y0025394545D01*
X0035938190Y0025372868D01*
X0035899922Y0025365256D01*
X0035699922Y0025365256D01*
X0035661654Y0025372868D01*
X0035629211Y0025394545D01*
X0035607534Y0025426988D01*
X0035599922Y0025465256D01*
X0035599922Y0026740256D01*
X0035607534Y0026778524D01*
G37*
G36*
X0035607534Y0032503524D02*
G01*
X0035629211Y0032535967D01*
X0035661654Y0032557644D01*
X0035699922Y0032565256D01*
X0035899922Y0032565256D01*
X0035938190Y0032557644D01*
X0035970633Y0032535967D01*
X0035992310Y0032503524D01*
X0035999922Y0032465256D01*
X0035999922Y0031190256D01*
X0035992310Y0031151988D01*
X0035970633Y0031119545D01*
X0035938190Y0031097868D01*
X0035899922Y0031090256D01*
X0035699922Y0031090256D01*
X0035661654Y0031097868D01*
X0035629211Y0031119545D01*
X0035607534Y0031151988D01*
X0035599922Y0031190256D01*
X0035599922Y0032465256D01*
X0035607534Y0032503524D01*
G37*
G36*
X0035001127Y0033921323D02*
G01*
X0035006083Y0033964024D01*
X0035012524Y0033978611D01*
X0035017049Y0034001360D01*
X0035033321Y0034025713D01*
X0035040370Y0034041679D01*
X0035051275Y0034052583D01*
X0035065822Y0034074355D01*
X0035087593Y0034088902D01*
X0035098498Y0034099806D01*
X0035114462Y0034106854D01*
X0035138818Y0034123129D01*
X0035161568Y0034127654D01*
X0035176153Y0034134094D01*
X0035218846Y0034139047D01*
X0035224922Y0034140256D01*
X0035724922Y0034140256D01*
X0035731001Y0034139046D01*
X0035773690Y0034134094D01*
X0035788273Y0034127654D01*
X0035811026Y0034123129D01*
X0035835382Y0034106853D01*
X0035851344Y0034099806D01*
X0035862246Y0034088904D01*
X0035884021Y0034074355D01*
X0035898570Y0034052581D01*
X0035909471Y0034041679D01*
X0035916518Y0034025717D01*
X0035932795Y0034001360D01*
X0035937320Y0033978607D01*
X0035943760Y0033964024D01*
X0035948713Y0033921333D01*
X0035949922Y0033915256D01*
X0035949922Y0033465256D01*
X0035948712Y0033459177D01*
X0035943760Y0033416487D01*
X0035937320Y0033401902D01*
X0035932795Y0033379152D01*
X0035916520Y0033354796D01*
X0035909471Y0033338832D01*
X0035898568Y0033327928D01*
X0035884021Y0033306157D01*
X0035862249Y0033291609D01*
X0035851344Y0033280705D01*
X0035835379Y0033273655D01*
X0035811026Y0033257383D01*
X0035788276Y0033252858D01*
X0035773690Y0033246417D01*
X0035730987Y0033241462D01*
X0035724922Y0033240256D01*
X0035224922Y0033240256D01*
X0035218855Y0033241462D01*
X0035176153Y0033246417D01*
X0035161564Y0033252858D01*
X0035138818Y0033257383D01*
X0035114465Y0033273654D01*
X0035098498Y0033280705D01*
X0035087591Y0033291611D01*
X0035065822Y0033306157D01*
X0035051277Y0033327925D01*
X0035040370Y0033338832D01*
X0035033320Y0033354800D01*
X0035017049Y0033379152D01*
X0035012524Y0033401898D01*
X0035006083Y0033416487D01*
X0035001127Y0033459192D01*
X0034999922Y0033465256D01*
X0034999922Y0033915256D01*
X0035001127Y0033921323D01*
G37*
G36*
X0035001127Y0035471323D02*
G01*
X0035006083Y0035514024D01*
X0035012524Y0035528611D01*
X0035017049Y0035551360D01*
X0035033321Y0035575713D01*
X0035040370Y0035591679D01*
X0035051275Y0035602583D01*
X0035065822Y0035624355D01*
X0035087593Y0035638902D01*
X0035098498Y0035649806D01*
X0035114462Y0035656854D01*
X0035138818Y0035673129D01*
X0035161568Y0035677654D01*
X0035176153Y0035684094D01*
X0035218846Y0035689047D01*
X0035224922Y0035690256D01*
X0035724922Y0035690256D01*
X0035731001Y0035689046D01*
X0035773690Y0035684094D01*
X0035788273Y0035677654D01*
X0035811026Y0035673129D01*
X0035835382Y0035656853D01*
X0035851344Y0035649806D01*
X0035862246Y0035638904D01*
X0035884021Y0035624355D01*
X0035898570Y0035602580D01*
X0035909471Y0035591679D01*
X0035916518Y0035575717D01*
X0035932795Y0035551360D01*
X0035937320Y0035528607D01*
X0035943760Y0035514024D01*
X0035948713Y0035471333D01*
X0035949922Y0035465256D01*
X0035949922Y0035015256D01*
X0035948712Y0035009177D01*
X0035943760Y0034966487D01*
X0035937320Y0034951902D01*
X0035932795Y0034929152D01*
X0035916520Y0034904796D01*
X0035909471Y0034888832D01*
X0035898568Y0034877928D01*
X0035884021Y0034856157D01*
X0035862249Y0034841609D01*
X0035851344Y0034830705D01*
X0035835379Y0034823655D01*
X0035811026Y0034807383D01*
X0035788276Y0034802858D01*
X0035773690Y0034796417D01*
X0035730987Y0034791462D01*
X0035724922Y0034790256D01*
X0035224922Y0034790256D01*
X0035218855Y0034791462D01*
X0035176153Y0034796417D01*
X0035161564Y0034802858D01*
X0035138818Y0034807383D01*
X0035114465Y0034823654D01*
X0035098498Y0034830705D01*
X0035087591Y0034841611D01*
X0035065822Y0034856157D01*
X0035051277Y0034877925D01*
X0035040370Y0034888832D01*
X0035033320Y0034904800D01*
X0035017049Y0034929152D01*
X0035012524Y0034951898D01*
X0035006083Y0034966487D01*
X0035001127Y0035009192D01*
X0034999922Y0035015256D01*
X0034999922Y0035465256D01*
X0035001127Y0035471323D01*
G37*
G36*
X0034560362Y0011505531D02*
G01*
X0034562647Y0011552057D01*
X0034563787Y0011557784D01*
X0034564705Y0011571788D01*
X0034571952Y0011598838D01*
X0034584029Y0011659550D01*
X0034595899Y0011688205D01*
X0034601866Y0011710475D01*
X0034613395Y0011730443D01*
X0034625264Y0011759097D01*
X0034659653Y0011810565D01*
X0034673655Y0011834818D01*
X0034680293Y0011841455D01*
X0034685124Y0011848685D01*
X0034761313Y0011924874D01*
X0034768542Y0011929704D01*
X0034775181Y0011936343D01*
X0034799437Y0011950347D01*
X0034850900Y0011984734D01*
X0034879551Y0011996601D01*
X0034899524Y0012008133D01*
X0034921797Y0012014101D01*
X0034950447Y0012025969D01*
X0035011151Y0012038043D01*
X0035038211Y0012045294D01*
X0035047602Y0012045294D01*
X0035056124Y0012046989D01*
X0035163874Y0012046989D01*
X0035172394Y0012045294D01*
X0035181788Y0012045294D01*
X0035208850Y0012038042D01*
X0035269551Y0012025969D01*
X0035298199Y0012014101D01*
X0035320476Y0012008133D01*
X0035340450Y0011996600D01*
X0035369097Y0011984734D01*
X0035420554Y0011950351D01*
X0035444818Y0011936343D01*
X0035451459Y0011929702D01*
X0035458686Y0011924874D01*
X0035534875Y0011848685D01*
X0035539703Y0011841458D01*
X0035546344Y0011834818D01*
X0035560351Y0011810554D01*
X0035594735Y0011759097D01*
X0035606601Y0011730449D01*
X0035618134Y0011710475D01*
X0035624101Y0011688199D01*
X0035635970Y0011659550D01*
X0035648043Y0011598852D01*
X0035655294Y0011571788D01*
X0035656212Y0011557776D01*
X0035657351Y0011552057D01*
X0035659636Y0011505539D01*
X0035660000Y0011499999D01*
X0035660000Y0011498150D01*
X0035660000Y0010901848D01*
X0035660000Y0010899999D01*
X0035659636Y0010894458D01*
X0035657351Y0010847940D01*
X0035656212Y0010842219D01*
X0035655294Y0010828210D01*
X0035648043Y0010801148D01*
X0035635970Y0010740447D01*
X0035624101Y0010711796D01*
X0035618134Y0010689523D01*
X0035606601Y0010669550D01*
X0035594735Y0010640900D01*
X0035560348Y0010589436D01*
X0035546344Y0010565180D01*
X0035539705Y0010558541D01*
X0035534875Y0010551312D01*
X0035458686Y0010475123D01*
X0035451455Y0010470292D01*
X0035444818Y0010463655D01*
X0035420565Y0010449652D01*
X0035369097Y0010415263D01*
X0035340444Y0010403394D01*
X0035320476Y0010391865D01*
X0035298205Y0010385898D01*
X0035269551Y0010374028D01*
X0035208845Y0010361953D01*
X0035181788Y0010354704D01*
X0035172394Y0010354704D01*
X0035163874Y0010353009D01*
X0035056124Y0010353009D01*
X0035047602Y0010354704D01*
X0035038211Y0010354704D01*
X0035011157Y0010361953D01*
X0034950447Y0010374028D01*
X0034921790Y0010385898D01*
X0034899524Y0010391865D01*
X0034879557Y0010403392D01*
X0034850900Y0010415263D01*
X0034799426Y0010449657D01*
X0034775181Y0010463655D01*
X0034768545Y0010470290D01*
X0034761313Y0010475123D01*
X0034685124Y0010551312D01*
X0034680291Y0010558544D01*
X0034673655Y0010565180D01*
X0034659657Y0010589425D01*
X0034625264Y0010640900D01*
X0034613393Y0010669556D01*
X0034601866Y0010689523D01*
X0034595899Y0010711789D01*
X0034584029Y0010740447D01*
X0034571951Y0010801162D01*
X0034564705Y0010828210D01*
X0034563787Y0010842212D01*
X0034562647Y0010847940D01*
X0034560362Y0010894467D01*
X0034560000Y0010899999D01*
X0034560000Y0011499999D01*
X0034560362Y0011505531D01*
G37*
G36*
X0034560362Y0015305531D02*
G01*
X0034562647Y0015352057D01*
X0034563787Y0015357784D01*
X0034564705Y0015371788D01*
X0034571952Y0015398838D01*
X0034584029Y0015459550D01*
X0034595899Y0015488205D01*
X0034601866Y0015510475D01*
X0034613395Y0015530443D01*
X0034625264Y0015559097D01*
X0034659653Y0015610565D01*
X0034673655Y0015634818D01*
X0034680293Y0015641455D01*
X0034685124Y0015648685D01*
X0034761313Y0015724874D01*
X0034768542Y0015729704D01*
X0034775181Y0015736343D01*
X0034799437Y0015750347D01*
X0034850900Y0015784734D01*
X0034879551Y0015796601D01*
X0034899524Y0015808133D01*
X0034921797Y0015814101D01*
X0034950447Y0015825969D01*
X0035011151Y0015838043D01*
X0035038211Y0015845294D01*
X0035047602Y0015845294D01*
X0035056124Y0015846989D01*
X0035163874Y0015846989D01*
X0035172394Y0015845294D01*
X0035181788Y0015845294D01*
X0035208850Y0015838042D01*
X0035269551Y0015825969D01*
X0035298199Y0015814101D01*
X0035320476Y0015808133D01*
X0035340450Y0015796600D01*
X0035369097Y0015784734D01*
X0035420554Y0015750351D01*
X0035444818Y0015736343D01*
X0035451459Y0015729702D01*
X0035458686Y0015724874D01*
X0035534875Y0015648685D01*
X0035539703Y0015641458D01*
X0035546344Y0015634818D01*
X0035560351Y0015610554D01*
X0035594735Y0015559097D01*
X0035606601Y0015530449D01*
X0035618134Y0015510475D01*
X0035624101Y0015488199D01*
X0035635970Y0015459550D01*
X0035648043Y0015398852D01*
X0035655294Y0015371788D01*
X0035656212Y0015357776D01*
X0035657351Y0015352057D01*
X0035659636Y0015305539D01*
X0035660000Y0015299999D01*
X0035660000Y0015298150D01*
X0035660000Y0014701848D01*
X0035660000Y0014699999D01*
X0035659636Y0014694458D01*
X0035657351Y0014647940D01*
X0035656212Y0014642219D01*
X0035655294Y0014628210D01*
X0035648043Y0014601148D01*
X0035635970Y0014540447D01*
X0035624101Y0014511796D01*
X0035618134Y0014489523D01*
X0035606601Y0014469550D01*
X0035594735Y0014440900D01*
X0035560348Y0014389436D01*
X0035546344Y0014365180D01*
X0035539705Y0014358541D01*
X0035534875Y0014351312D01*
X0035458686Y0014275123D01*
X0035451455Y0014270292D01*
X0035444818Y0014263655D01*
X0035420565Y0014249652D01*
X0035369097Y0014215263D01*
X0035340444Y0014203394D01*
X0035320476Y0014191865D01*
X0035298205Y0014185898D01*
X0035269551Y0014174028D01*
X0035208845Y0014161953D01*
X0035181788Y0014154704D01*
X0035172394Y0014154704D01*
X0035163874Y0014153009D01*
X0035056124Y0014153009D01*
X0035047602Y0014154704D01*
X0035038211Y0014154704D01*
X0035011157Y0014161953D01*
X0034950447Y0014174028D01*
X0034921790Y0014185898D01*
X0034899524Y0014191865D01*
X0034879557Y0014203392D01*
X0034850900Y0014215263D01*
X0034799426Y0014249657D01*
X0034775181Y0014263655D01*
X0034768545Y0014270290D01*
X0034761313Y0014275123D01*
X0034685124Y0014351312D01*
X0034680291Y0014358544D01*
X0034673655Y0014365180D01*
X0034659657Y0014389425D01*
X0034625264Y0014440900D01*
X0034613393Y0014469556D01*
X0034601866Y0014489523D01*
X0034595899Y0014511789D01*
X0034584029Y0014540447D01*
X0034571951Y0014601162D01*
X0034564705Y0014628210D01*
X0034563787Y0014642212D01*
X0034562647Y0014647940D01*
X0034560362Y0014694467D01*
X0034560000Y0014699999D01*
X0034560000Y0015299999D01*
X0034560362Y0015305531D01*
G37*
G36*
X0034957533Y0026778524D02*
G01*
X0034979211Y0026810967D01*
X0035011653Y0026832644D01*
X0035049921Y0026840256D01*
X0035249922Y0026840256D01*
X0035288190Y0026832644D01*
X0035320633Y0026810967D01*
X0035342310Y0026778524D01*
X0035349922Y0026740256D01*
X0035349922Y0025465256D01*
X0035342310Y0025426988D01*
X0035320633Y0025394545D01*
X0035288190Y0025372868D01*
X0035249922Y0025365256D01*
X0035049921Y0025365256D01*
X0035011653Y0025372868D01*
X0034979211Y0025394545D01*
X0034957533Y0025426988D01*
X0034949922Y0025465256D01*
X0034949922Y0026740256D01*
X0034957533Y0026778524D01*
G37*
G36*
X0034957533Y0032503524D02*
G01*
X0034979211Y0032535967D01*
X0035011653Y0032557644D01*
X0035049921Y0032565256D01*
X0035249922Y0032565256D01*
X0035288190Y0032557644D01*
X0035320633Y0032535967D01*
X0035342310Y0032503524D01*
X0035349922Y0032465256D01*
X0035349922Y0031190256D01*
X0035342310Y0031151988D01*
X0035320633Y0031119545D01*
X0035288190Y0031097868D01*
X0035249922Y0031090256D01*
X0035049921Y0031090256D01*
X0035011653Y0031097868D01*
X0034979211Y0031119545D01*
X0034957533Y0031151988D01*
X0034949922Y0031190256D01*
X0034949922Y0032465256D01*
X0034957533Y0032503524D01*
G37*
G36*
X0035339600Y0008660399D02*
G01*
X0035339600Y0007339599D01*
X0034780800Y0007339599D01*
X0034780800Y0008660399D01*
X0035339600Y0008660399D01*
G37*
G36*
X0034307534Y0026778524D02*
G01*
X0034329211Y0026810967D01*
X0034361654Y0026832644D01*
X0034399922Y0026840256D01*
X0034599922Y0026840256D01*
X0034638189Y0026832644D01*
X0034670632Y0026810967D01*
X0034692310Y0026778524D01*
X0034699922Y0026740256D01*
X0034699922Y0025465256D01*
X0034692310Y0025426988D01*
X0034670632Y0025394545D01*
X0034638189Y0025372868D01*
X0034599922Y0025365256D01*
X0034399922Y0025365256D01*
X0034361654Y0025372868D01*
X0034329211Y0025394545D01*
X0034307534Y0025426988D01*
X0034299921Y0025465256D01*
X0034299921Y0026740256D01*
X0034307534Y0026778524D01*
G37*
G36*
X0034307534Y0032503524D02*
G01*
X0034329211Y0032535967D01*
X0034361654Y0032557644D01*
X0034399922Y0032565256D01*
X0034599922Y0032565256D01*
X0034638189Y0032557644D01*
X0034670632Y0032535967D01*
X0034692310Y0032503524D01*
X0034699922Y0032465256D01*
X0034699922Y0031190256D01*
X0034692310Y0031151988D01*
X0034670632Y0031119545D01*
X0034638189Y0031097868D01*
X0034599922Y0031090256D01*
X0034399922Y0031090256D01*
X0034361654Y0031097868D01*
X0034329211Y0031119545D01*
X0034307534Y0031151988D01*
X0034299921Y0031190256D01*
X0034299921Y0032465256D01*
X0034307534Y0032503524D01*
G37*
G36*
X0034399800Y0008660399D02*
G01*
X0034399800Y0007339599D01*
X0033840999Y0007339599D01*
X0033840999Y0008660399D01*
X0034399800Y0008660399D01*
G37*
G36*
X0034387100Y0006272799D02*
G01*
X0034387100Y0004951999D01*
X0033828300Y0004951999D01*
X0033828300Y0006272799D01*
X0034387100Y0006272799D01*
G37*
G36*
X0033657534Y0026778524D02*
G01*
X0033679210Y0026810967D01*
X0033711653Y0026832644D01*
X0033749922Y0026840256D01*
X0033949922Y0026840256D01*
X0033988190Y0026832644D01*
X0034020633Y0026810967D01*
X0034042310Y0026778524D01*
X0034049921Y0026740256D01*
X0034049921Y0025465256D01*
X0034042310Y0025426988D01*
X0034020633Y0025394545D01*
X0033988190Y0025372868D01*
X0033949922Y0025365256D01*
X0033749922Y0025365256D01*
X0033711653Y0025372868D01*
X0033679210Y0025394545D01*
X0033657534Y0025426988D01*
X0033649922Y0025465256D01*
X0033649922Y0026740256D01*
X0033657534Y0026778524D01*
G37*
G36*
X0033657534Y0032503524D02*
G01*
X0033679210Y0032535967D01*
X0033711653Y0032557644D01*
X0033749922Y0032565256D01*
X0033949922Y0032565256D01*
X0033988190Y0032557644D01*
X0034020633Y0032535967D01*
X0034042310Y0032503524D01*
X0034049921Y0032465256D01*
X0034049921Y0031190256D01*
X0034042310Y0031151988D01*
X0034020633Y0031119545D01*
X0033988190Y0031097868D01*
X0033949922Y0031090256D01*
X0033749922Y0031090256D01*
X0033711653Y0031097868D01*
X0033679210Y0031119545D01*
X0033657534Y0031151988D01*
X0033649922Y0031190256D01*
X0033649922Y0032465256D01*
X0033657534Y0032503524D01*
G37*
G36*
X0033051128Y0024471323D02*
G01*
X0033056083Y0024514024D01*
X0033062523Y0024528611D01*
X0033067048Y0024551360D01*
X0033083320Y0024575713D01*
X0033090371Y0024591679D01*
X0033101275Y0024602583D01*
X0033115823Y0024624355D01*
X0033137594Y0024638902D01*
X0033148498Y0024649806D01*
X0033164462Y0024656854D01*
X0033188817Y0024673129D01*
X0033211568Y0024677654D01*
X0033226152Y0024684094D01*
X0033268845Y0024689047D01*
X0033274922Y0024690256D01*
X0033724922Y0024690256D01*
X0033731001Y0024689046D01*
X0033773690Y0024684094D01*
X0033788273Y0024677654D01*
X0033811026Y0024673129D01*
X0033835382Y0024656853D01*
X0033851344Y0024649806D01*
X0033862246Y0024638904D01*
X0033884021Y0024624355D01*
X0033898570Y0024602580D01*
X0033909471Y0024591679D01*
X0033916518Y0024575717D01*
X0033932795Y0024551360D01*
X0033937320Y0024528607D01*
X0033943760Y0024514024D01*
X0033948713Y0024471333D01*
X0033949922Y0024465256D01*
X0033949922Y0023965256D01*
X0033948712Y0023959177D01*
X0033943760Y0023916487D01*
X0033937320Y0023901902D01*
X0033932795Y0023879152D01*
X0033916520Y0023854796D01*
X0033909471Y0023838832D01*
X0033898568Y0023827928D01*
X0033884021Y0023806157D01*
X0033862249Y0023791609D01*
X0033851344Y0023780705D01*
X0033835379Y0023773655D01*
X0033811026Y0023757383D01*
X0033788276Y0023752858D01*
X0033773690Y0023746417D01*
X0033730987Y0023741462D01*
X0033724922Y0023740256D01*
X0033274922Y0023740256D01*
X0033268855Y0023741462D01*
X0033226152Y0023746417D01*
X0033211563Y0023752858D01*
X0033188817Y0023757383D01*
X0033164466Y0023773654D01*
X0033148498Y0023780705D01*
X0033137591Y0023791611D01*
X0033115823Y0023806157D01*
X0033101276Y0023827925D01*
X0033090371Y0023838832D01*
X0033083320Y0023854800D01*
X0033067048Y0023879152D01*
X0033062523Y0023901898D01*
X0033056083Y0023916487D01*
X0033051128Y0023959192D01*
X0033049921Y0023965256D01*
X0033049921Y0024465256D01*
X0033051128Y0024471323D01*
G37*
G36*
X0033007534Y0026778524D02*
G01*
X0033029211Y0026810967D01*
X0033061654Y0026832644D01*
X0033099922Y0026840256D01*
X0033299921Y0026840256D01*
X0033338189Y0026832644D01*
X0033370632Y0026810967D01*
X0033392309Y0026778524D01*
X0033399922Y0026740256D01*
X0033399922Y0025465256D01*
X0033392309Y0025426988D01*
X0033370632Y0025394545D01*
X0033338189Y0025372868D01*
X0033299921Y0025365256D01*
X0033099922Y0025365256D01*
X0033061654Y0025372868D01*
X0033029211Y0025394545D01*
X0033007534Y0025426988D01*
X0032999921Y0025465256D01*
X0032999921Y0026740256D01*
X0033007534Y0026778524D01*
G37*
G36*
X0033007534Y0032503524D02*
G01*
X0033029211Y0032535967D01*
X0033061654Y0032557644D01*
X0033099922Y0032565256D01*
X0033299921Y0032565256D01*
X0033338189Y0032557644D01*
X0033370632Y0032535967D01*
X0033392309Y0032503524D01*
X0033399922Y0032465256D01*
X0033399922Y0031190256D01*
X0033392309Y0031151988D01*
X0033370632Y0031119545D01*
X0033338189Y0031097868D01*
X0033299921Y0031090256D01*
X0033099922Y0031090256D01*
X0033061654Y0031097868D01*
X0033029211Y0031119545D01*
X0033007534Y0031151988D01*
X0032999921Y0031190256D01*
X0032999921Y0032465256D01*
X0033007534Y0032503524D01*
G37*
G36*
X0032015146Y0015091793D02*
G01*
X0032058501Y0015156677D01*
X0032123385Y0015200032D01*
X0032199922Y0015215256D01*
X0032749921Y0015215256D01*
X0032826459Y0015200032D01*
X0032891343Y0015156677D01*
X0032934697Y0015091793D01*
X0032949922Y0015015256D01*
X0032949922Y0014615256D01*
X0032934697Y0014538719D01*
X0032891343Y0014473835D01*
X0032826459Y0014430480D01*
X0032749921Y0014415256D01*
X0032199922Y0014415256D01*
X0032123385Y0014430480D01*
X0032058501Y0014473835D01*
X0032015146Y0014538719D01*
X0031999921Y0014615256D01*
X0031999921Y0015015256D01*
X0032015146Y0015091793D01*
G37*
G36*
X0032015146Y0016741793D02*
G01*
X0032058501Y0016806677D01*
X0032123385Y0016850032D01*
X0032199922Y0016865256D01*
X0032749921Y0016865256D01*
X0032826459Y0016850032D01*
X0032891343Y0016806677D01*
X0032934697Y0016741793D01*
X0032949922Y0016665256D01*
X0032949922Y0016265256D01*
X0032934697Y0016188719D01*
X0032891343Y0016123835D01*
X0032826459Y0016080480D01*
X0032749921Y0016065256D01*
X0032199922Y0016065256D01*
X0032123385Y0016080480D01*
X0032058501Y0016123835D01*
X0032015146Y0016188719D01*
X0031999921Y0016265256D01*
X0031999921Y0016665256D01*
X0032015146Y0016741793D01*
G37*
G36*
X0032357534Y0026778524D02*
G01*
X0032379210Y0026810967D01*
X0032411654Y0026832644D01*
X0032449922Y0026840256D01*
X0032649922Y0026840256D01*
X0032688190Y0026832644D01*
X0032720633Y0026810967D01*
X0032742310Y0026778524D01*
X0032749921Y0026740256D01*
X0032749921Y0025465256D01*
X0032742310Y0025426988D01*
X0032720633Y0025394545D01*
X0032688190Y0025372868D01*
X0032649922Y0025365256D01*
X0032449922Y0025365256D01*
X0032411654Y0025372868D01*
X0032379210Y0025394545D01*
X0032357534Y0025426988D01*
X0032349922Y0025465256D01*
X0032349922Y0026740256D01*
X0032357534Y0026778524D01*
G37*
G36*
X0032357534Y0032503524D02*
G01*
X0032379210Y0032535967D01*
X0032411654Y0032557644D01*
X0032449922Y0032565256D01*
X0032649922Y0032565256D01*
X0032688190Y0032557644D01*
X0032720633Y0032535967D01*
X0032742310Y0032503524D01*
X0032749921Y0032465256D01*
X0032749921Y0031190256D01*
X0032742310Y0031151988D01*
X0032720633Y0031119545D01*
X0032688190Y0031097868D01*
X0032649922Y0031090256D01*
X0032449922Y0031090256D01*
X0032411654Y0031097868D01*
X0032379210Y0031119545D01*
X0032357534Y0031151988D01*
X0032349922Y0031190256D01*
X0032349922Y0032465256D01*
X0032357534Y0032503524D01*
G37*
G36*
X0031751127Y0005902573D02*
G01*
X0031755916Y0005943843D01*
X0031762141Y0005957941D01*
X0031766572Y0005980218D01*
X0031782508Y0006004066D01*
X0031789277Y0006019397D01*
X0031799746Y0006029867D01*
X0031813992Y0006051186D01*
X0031835310Y0006065430D01*
X0031845780Y0006075900D01*
X0031861108Y0006082668D01*
X0031884960Y0006098605D01*
X0031907238Y0006103036D01*
X0031921334Y0006109260D01*
X0031962594Y0006114047D01*
X0031968671Y0006115256D01*
X0032481172Y0006115256D01*
X0032487251Y0006114046D01*
X0032528509Y0006109260D01*
X0032542603Y0006103036D01*
X0032564884Y0006098605D01*
X0032588736Y0006082666D01*
X0032604062Y0006075900D01*
X0032614530Y0006065432D01*
X0032635852Y0006051186D01*
X0032650098Y0006029864D01*
X0032660566Y0006019397D01*
X0032667332Y0006004071D01*
X0032683271Y0005980218D01*
X0032687702Y0005957937D01*
X0032693926Y0005943843D01*
X0032698712Y0005902583D01*
X0032699922Y0005896506D01*
X0032699922Y0005459006D01*
X0032698712Y0005452927D01*
X0032693926Y0005411668D01*
X0032687702Y0005397572D01*
X0032683271Y0005375294D01*
X0032667333Y0005351442D01*
X0032660566Y0005336114D01*
X0032650096Y0005325644D01*
X0032635852Y0005304326D01*
X0032614532Y0005290081D01*
X0032604062Y0005279611D01*
X0032588731Y0005272842D01*
X0032564884Y0005256907D01*
X0032542607Y0005252476D01*
X0032528509Y0005246251D01*
X0032487236Y0005241462D01*
X0032481172Y0005240256D01*
X0031968671Y0005240256D01*
X0031962604Y0005241462D01*
X0031921334Y0005246251D01*
X0031907234Y0005252476D01*
X0031884960Y0005256907D01*
X0031861113Y0005272840D01*
X0031845780Y0005279611D01*
X0031835307Y0005290083D01*
X0031813992Y0005304326D01*
X0031799749Y0005325641D01*
X0031789277Y0005336114D01*
X0031782505Y0005351447D01*
X0031766572Y0005375294D01*
X0031762141Y0005397568D01*
X0031755916Y0005411668D01*
X0031751127Y0005452941D01*
X0031749921Y0005459006D01*
X0031749921Y0005896506D01*
X0031751127Y0005902573D01*
G37*
G36*
X0031751127Y0007477573D02*
G01*
X0031755916Y0007518843D01*
X0031762141Y0007532941D01*
X0031766572Y0007555218D01*
X0031782508Y0007579066D01*
X0031789277Y0007594397D01*
X0031799746Y0007604867D01*
X0031813992Y0007626186D01*
X0031835310Y0007640430D01*
X0031845780Y0007650900D01*
X0031861108Y0007657668D01*
X0031884960Y0007673605D01*
X0031907238Y0007678036D01*
X0031921334Y0007684260D01*
X0031962594Y0007689047D01*
X0031968671Y0007690256D01*
X0032481172Y0007690256D01*
X0032487251Y0007689046D01*
X0032528509Y0007684260D01*
X0032542603Y0007678036D01*
X0032564884Y0007673605D01*
X0032588736Y0007657666D01*
X0032604062Y0007650900D01*
X0032614530Y0007640432D01*
X0032635852Y0007626186D01*
X0032650098Y0007604864D01*
X0032660566Y0007594397D01*
X0032667332Y0007579071D01*
X0032683271Y0007555218D01*
X0032687702Y0007532937D01*
X0032693926Y0007518843D01*
X0032698712Y0007477583D01*
X0032699922Y0007471506D01*
X0032699922Y0007034006D01*
X0032698712Y0007027927D01*
X0032693926Y0006986668D01*
X0032687702Y0006972572D01*
X0032683271Y0006950294D01*
X0032667333Y0006926442D01*
X0032660566Y0006911114D01*
X0032650096Y0006900644D01*
X0032635852Y0006879326D01*
X0032614532Y0006865081D01*
X0032604062Y0006854611D01*
X0032588731Y0006847842D01*
X0032564884Y0006831907D01*
X0032542607Y0006827476D01*
X0032528509Y0006821251D01*
X0032487236Y0006816462D01*
X0032481172Y0006815256D01*
X0031968671Y0006815256D01*
X0031962604Y0006816462D01*
X0031921334Y0006821251D01*
X0031907234Y0006827476D01*
X0031884960Y0006831907D01*
X0031861113Y0006847840D01*
X0031845780Y0006854611D01*
X0031835307Y0006865083D01*
X0031813992Y0006879326D01*
X0031799749Y0006900641D01*
X0031789277Y0006911114D01*
X0031782505Y0006926447D01*
X0031766572Y0006950294D01*
X0031762141Y0006972568D01*
X0031755916Y0006986668D01*
X0031751127Y0007027941D01*
X0031749921Y0007034006D01*
X0031749921Y0007471506D01*
X0031751127Y0007477573D01*
G37*
G36*
X0031501127Y0024471323D02*
G01*
X0031506083Y0024514024D01*
X0031512524Y0024528611D01*
X0031517049Y0024551360D01*
X0031533321Y0024575713D01*
X0031540370Y0024591679D01*
X0031551275Y0024602583D01*
X0031565822Y0024624355D01*
X0031587593Y0024638902D01*
X0031598498Y0024649806D01*
X0031614462Y0024656854D01*
X0031638818Y0024673129D01*
X0031661568Y0024677654D01*
X0031676153Y0024684094D01*
X0031718846Y0024689047D01*
X0031724922Y0024690256D01*
X0032174921Y0024690256D01*
X0032181000Y0024689046D01*
X0032223690Y0024684094D01*
X0032238273Y0024677654D01*
X0032261026Y0024673129D01*
X0032285382Y0024656853D01*
X0032301344Y0024649806D01*
X0032312246Y0024638904D01*
X0032334021Y0024624355D01*
X0032348569Y0024602580D01*
X0032359471Y0024591679D01*
X0032366518Y0024575717D01*
X0032382795Y0024551360D01*
X0032387320Y0024528607D01*
X0032393760Y0024514024D01*
X0032398713Y0024471333D01*
X0032399922Y0024465256D01*
X0032399922Y0023965256D01*
X0032398712Y0023959177D01*
X0032393760Y0023916487D01*
X0032387320Y0023901902D01*
X0032382795Y0023879152D01*
X0032366519Y0023854796D01*
X0032359471Y0023838832D01*
X0032348568Y0023827928D01*
X0032334021Y0023806157D01*
X0032312248Y0023791609D01*
X0032301344Y0023780705D01*
X0032285379Y0023773655D01*
X0032261026Y0023757383D01*
X0032238276Y0023752858D01*
X0032223690Y0023746417D01*
X0032180987Y0023741462D01*
X0032174921Y0023740256D01*
X0031724922Y0023740256D01*
X0031718855Y0023741462D01*
X0031676153Y0023746417D01*
X0031661564Y0023752858D01*
X0031638818Y0023757383D01*
X0031614465Y0023773654D01*
X0031598498Y0023780705D01*
X0031587591Y0023791611D01*
X0031565822Y0023806157D01*
X0031551277Y0023827925D01*
X0031540370Y0023838832D01*
X0031533320Y0023854800D01*
X0031517049Y0023879152D01*
X0031512524Y0023901898D01*
X0031506083Y0023916487D01*
X0031501127Y0023959192D01*
X0031499921Y0023965256D01*
X0031499921Y0024465256D01*
X0031501127Y0024471323D01*
G37*
G36*
X0031175579Y0031698832D02*
G01*
X0031205927Y0031744251D01*
X0031251345Y0031774599D01*
X0031304922Y0031785256D01*
X0031644921Y0031785256D01*
X0031698498Y0031774599D01*
X0031743916Y0031744251D01*
X0031774265Y0031698832D01*
X0031784921Y0031645256D01*
X0031784921Y0031365256D01*
X0031774265Y0031311680D01*
X0031743916Y0031266261D01*
X0031698498Y0031235913D01*
X0031644921Y0031225256D01*
X0031304922Y0031225256D01*
X0031251345Y0031235913D01*
X0031205927Y0031266261D01*
X0031175579Y0031311680D01*
X0031164922Y0031365256D01*
X0031164922Y0031645256D01*
X0031175579Y0031698832D01*
G37*
G36*
X0031175579Y0032658832D02*
G01*
X0031205927Y0032704251D01*
X0031251345Y0032734599D01*
X0031304922Y0032745256D01*
X0031644921Y0032745256D01*
X0031698498Y0032734599D01*
X0031743916Y0032704251D01*
X0031774265Y0032658832D01*
X0031784921Y0032605256D01*
X0031784921Y0032325256D01*
X0031774265Y0032271680D01*
X0031743916Y0032226261D01*
X0031698498Y0032195913D01*
X0031644921Y0032185256D01*
X0031304922Y0032185256D01*
X0031251345Y0032195913D01*
X0031205927Y0032226261D01*
X0031175579Y0032271680D01*
X0031164922Y0032325256D01*
X0031164922Y0032605256D01*
X0031175579Y0032658832D01*
G37*
G36*
X0030751128Y0028671323D02*
G01*
X0030756082Y0028714024D01*
X0030762524Y0028728611D01*
X0030767049Y0028751360D01*
X0030783321Y0028775713D01*
X0030790371Y0028791679D01*
X0030801274Y0028802583D01*
X0030815823Y0028824355D01*
X0030837594Y0028838902D01*
X0030848498Y0028849806D01*
X0030864462Y0028856854D01*
X0030888818Y0028873129D01*
X0030911568Y0028877654D01*
X0030926153Y0028884094D01*
X0030968846Y0028889047D01*
X0030974922Y0028890256D01*
X0031474922Y0028890256D01*
X0031481001Y0028889046D01*
X0031523690Y0028884094D01*
X0031538273Y0028877654D01*
X0031561026Y0028873129D01*
X0031585382Y0028856853D01*
X0031601344Y0028849806D01*
X0031612246Y0028838904D01*
X0031634021Y0028824355D01*
X0031648570Y0028802580D01*
X0031659471Y0028791679D01*
X0031666518Y0028775717D01*
X0031682795Y0028751360D01*
X0031687320Y0028728607D01*
X0031693759Y0028714024D01*
X0031698712Y0028671333D01*
X0031699922Y0028665256D01*
X0031699922Y0028215256D01*
X0031698712Y0028209177D01*
X0031693759Y0028166487D01*
X0031687320Y0028151902D01*
X0031682795Y0028129152D01*
X0031666520Y0028104796D01*
X0031659471Y0028088832D01*
X0031648567Y0028077928D01*
X0031634021Y0028056157D01*
X0031612249Y0028041609D01*
X0031601344Y0028030705D01*
X0031585379Y0028023655D01*
X0031561026Y0028007383D01*
X0031538276Y0028002858D01*
X0031523690Y0027996417D01*
X0031480987Y0027991462D01*
X0031474922Y0027990256D01*
X0030974922Y0027990256D01*
X0030968854Y0027991462D01*
X0030926153Y0027996417D01*
X0030911564Y0028002858D01*
X0030888818Y0028007383D01*
X0030864466Y0028023654D01*
X0030848498Y0028030705D01*
X0030837591Y0028041611D01*
X0030815823Y0028056157D01*
X0030801277Y0028077925D01*
X0030790371Y0028088832D01*
X0030783320Y0028104800D01*
X0030767049Y0028129152D01*
X0030762524Y0028151898D01*
X0030756082Y0028166487D01*
X0030751128Y0028209192D01*
X0030749921Y0028215256D01*
X0030749921Y0028665256D01*
X0030751128Y0028671323D01*
G37*
G36*
X0030751128Y0030221323D02*
G01*
X0030756083Y0030264024D01*
X0030762524Y0030278611D01*
X0030767049Y0030301360D01*
X0030783321Y0030325713D01*
X0030790371Y0030341679D01*
X0030801275Y0030352583D01*
X0030815823Y0030374355D01*
X0030837594Y0030388902D01*
X0030848498Y0030399806D01*
X0030864462Y0030406854D01*
X0030888818Y0030423129D01*
X0030911568Y0030427654D01*
X0030926153Y0030434094D01*
X0030968846Y0030439047D01*
X0030974922Y0030440256D01*
X0031474922Y0030440256D01*
X0031481001Y0030439046D01*
X0031523690Y0030434094D01*
X0031538273Y0030427654D01*
X0031561026Y0030423129D01*
X0031585382Y0030406853D01*
X0031601344Y0030399806D01*
X0031612246Y0030388904D01*
X0031634021Y0030374355D01*
X0031648570Y0030352580D01*
X0031659471Y0030341679D01*
X0031666518Y0030325717D01*
X0031682795Y0030301360D01*
X0031687320Y0030278607D01*
X0031693759Y0030264024D01*
X0031698712Y0030221333D01*
X0031699922Y0030215256D01*
X0031699922Y0029765256D01*
X0031698712Y0029759177D01*
X0031693759Y0029716487D01*
X0031687320Y0029701902D01*
X0031682795Y0029679152D01*
X0031666520Y0029654796D01*
X0031659471Y0029638832D01*
X0031648567Y0029627928D01*
X0031634021Y0029606157D01*
X0031612249Y0029591609D01*
X0031601344Y0029580705D01*
X0031585379Y0029573655D01*
X0031561026Y0029557383D01*
X0031538276Y0029552858D01*
X0031523690Y0029546417D01*
X0031480987Y0029541462D01*
X0031474922Y0029540256D01*
X0030974922Y0029540256D01*
X0030968854Y0029541462D01*
X0030926153Y0029546417D01*
X0030911564Y0029552858D01*
X0030888818Y0029557383D01*
X0030864466Y0029573654D01*
X0030848498Y0029580705D01*
X0030837591Y0029591611D01*
X0030815823Y0029606157D01*
X0030801277Y0029627925D01*
X0030790371Y0029638832D01*
X0030783320Y0029654800D01*
X0030767049Y0029679152D01*
X0030762524Y0029701898D01*
X0030756082Y0029716487D01*
X0030751128Y0029759192D01*
X0030749921Y0029765256D01*
X0030749922Y0030215256D01*
X0030751128Y0030221323D01*
G37*
G36*
X0030265146Y0008591793D02*
G01*
X0030308501Y0008656677D01*
X0030373385Y0008700032D01*
X0030449922Y0008715256D01*
X0030999921Y0008715256D01*
X0031076459Y0008700032D01*
X0031141343Y0008656677D01*
X0031184697Y0008591793D01*
X0031199922Y0008515256D01*
X0031199922Y0008115256D01*
X0031184697Y0008038719D01*
X0031141343Y0007973835D01*
X0031076459Y0007930480D01*
X0030999921Y0007915256D01*
X0030449922Y0007915256D01*
X0030373385Y0007930480D01*
X0030308501Y0007973835D01*
X0030265146Y0008038719D01*
X0030249921Y0008115256D01*
X0030249921Y0008515256D01*
X0030265146Y0008591793D01*
G37*
G36*
X0030265146Y0010241793D02*
G01*
X0030308501Y0010306677D01*
X0030373385Y0010350032D01*
X0030449922Y0010365256D01*
X0030999921Y0010365256D01*
X0031076459Y0010350032D01*
X0031141343Y0010306677D01*
X0031184697Y0010241793D01*
X0031199922Y0010165256D01*
X0031199922Y0009765256D01*
X0031184697Y0009688719D01*
X0031141343Y0009623835D01*
X0031076459Y0009580480D01*
X0030999921Y0009565256D01*
X0030449922Y0009565256D01*
X0030373385Y0009580480D01*
X0030308501Y0009623835D01*
X0030265146Y0009688719D01*
X0030249921Y0009765256D01*
X0030249921Y0010165256D01*
X0030265146Y0010241793D01*
G37*
G36*
X0030152890Y0025740720D02*
G01*
X0030152890Y0025772039D01*
X0030161671Y0025796167D01*
X0030164816Y0025816018D01*
X0030179102Y0025844056D01*
X0030191732Y0025878756D01*
X0030204591Y0025894081D01*
X0030211129Y0025906912D01*
X0030237405Y0025933188D01*
X0030264730Y0025965753D01*
X0030277127Y0025972910D01*
X0030283265Y0025979048D01*
X0030321517Y0025998538D01*
X0030363081Y0026022535D01*
X0030371540Y0026024026D01*
X0030374159Y0026025361D01*
X0030422773Y0026033060D01*
X0030474922Y0026042256D01*
X0030527073Y0026033060D01*
X0030575684Y0026025361D01*
X0030578302Y0026024026D01*
X0030586762Y0026022535D01*
X0030628334Y0025998534D01*
X0030666578Y0025979048D01*
X0030672713Y0025972912D01*
X0030685114Y0025965753D01*
X0030712443Y0025933182D01*
X0030738714Y0025906912D01*
X0030745249Y0025894084D01*
X0030758111Y0025878756D01*
X0030770744Y0025844049D01*
X0030785027Y0025816018D01*
X0030788170Y0025796171D01*
X0030796954Y0025772039D01*
X0030796954Y0025740713D01*
X0030800986Y0025715256D01*
X0030796954Y0025689798D01*
X0030796954Y0025658473D01*
X0030788170Y0025634340D01*
X0030785027Y0025614493D01*
X0030770742Y0025586459D01*
X0030758111Y0025551756D01*
X0030745251Y0025536428D01*
X0030738714Y0025523599D01*
X0030712438Y0025497323D01*
X0030685114Y0025464759D01*
X0030672716Y0025457601D01*
X0030666578Y0025451463D01*
X0030628318Y0025431969D01*
X0030586762Y0025407977D01*
X0030578305Y0025406485D01*
X0030575684Y0025405150D01*
X0030527018Y0025397442D01*
X0030474922Y0025388256D01*
X0030422829Y0025397441D01*
X0030374159Y0025405150D01*
X0030371536Y0025406485D01*
X0030363081Y0025407977D01*
X0030321531Y0025431964D01*
X0030283265Y0025451463D01*
X0030277124Y0025457602D01*
X0030264730Y0025464759D01*
X0030237411Y0025497316D01*
X0030211129Y0025523599D01*
X0030204590Y0025536431D01*
X0030191732Y0025551756D01*
X0030179102Y0025586452D01*
X0030164816Y0025614493D01*
X0030161671Y0025634345D01*
X0030152890Y0025658473D01*
X0030152890Y0025689792D01*
X0030148857Y0025715256D01*
X0030152890Y0025740720D01*
G37*
G36*
X0029425579Y0005948832D02*
G01*
X0029455927Y0005994251D01*
X0029501345Y0006024599D01*
X0029554921Y0006035256D01*
X0029894922Y0006035256D01*
X0029948498Y0006024599D01*
X0029993917Y0005994251D01*
X0030024265Y0005948832D01*
X0030034922Y0005895256D01*
X0030034922Y0005615256D01*
X0030024265Y0005561680D01*
X0029993917Y0005516261D01*
X0029948498Y0005485913D01*
X0029894922Y0005475256D01*
X0029554921Y0005475256D01*
X0029501345Y0005485913D01*
X0029455927Y0005516261D01*
X0029425579Y0005561680D01*
X0029414921Y0005615256D01*
X0029414921Y0005895256D01*
X0029425579Y0005948832D01*
G37*
G36*
X0029425579Y0006908832D02*
G01*
X0029455927Y0006954251D01*
X0029501345Y0006984599D01*
X0029554921Y0006995256D01*
X0029894922Y0006995256D01*
X0029948498Y0006984599D01*
X0029993917Y0006954251D01*
X0030024265Y0006908832D01*
X0030034922Y0006855256D01*
X0030034922Y0006575256D01*
X0030024265Y0006521680D01*
X0029993917Y0006476261D01*
X0029948498Y0006445913D01*
X0029894922Y0006435256D01*
X0029554921Y0006435256D01*
X0029501345Y0006445913D01*
X0029455927Y0006476261D01*
X0029425579Y0006521680D01*
X0029414921Y0006575256D01*
X0029414921Y0006855256D01*
X0029425579Y0006908832D01*
G37*
G36*
X0029152890Y0025740720D02*
G01*
X0029152890Y0025772039D01*
X0029161671Y0025796167D01*
X0029164816Y0025816018D01*
X0029179102Y0025844056D01*
X0029191732Y0025878756D01*
X0029204591Y0025894081D01*
X0029211129Y0025906912D01*
X0029237405Y0025933188D01*
X0029264730Y0025965753D01*
X0029277127Y0025972910D01*
X0029283265Y0025979048D01*
X0029321517Y0025998538D01*
X0029363081Y0026022535D01*
X0029371540Y0026024026D01*
X0029374159Y0026025361D01*
X0029422773Y0026033060D01*
X0029474922Y0026042256D01*
X0029527073Y0026033060D01*
X0029575684Y0026025361D01*
X0029578302Y0026024026D01*
X0029586762Y0026022535D01*
X0029628334Y0025998534D01*
X0029666578Y0025979048D01*
X0029672713Y0025972912D01*
X0029685114Y0025965753D01*
X0029712443Y0025933182D01*
X0029738714Y0025906912D01*
X0029745249Y0025894084D01*
X0029758111Y0025878756D01*
X0029770744Y0025844049D01*
X0029785027Y0025816018D01*
X0029788170Y0025796171D01*
X0029796954Y0025772039D01*
X0029796954Y0025740713D01*
X0029800986Y0025715256D01*
X0029796954Y0025689798D01*
X0029796954Y0025658473D01*
X0029788170Y0025634340D01*
X0029785027Y0025614493D01*
X0029770742Y0025586459D01*
X0029758111Y0025551756D01*
X0029745251Y0025536428D01*
X0029738714Y0025523599D01*
X0029712438Y0025497323D01*
X0029685114Y0025464759D01*
X0029672716Y0025457601D01*
X0029666578Y0025451463D01*
X0029628318Y0025431969D01*
X0029586762Y0025407977D01*
X0029578305Y0025406485D01*
X0029575684Y0025405150D01*
X0029527018Y0025397442D01*
X0029474922Y0025388256D01*
X0029422829Y0025397441D01*
X0029374159Y0025405150D01*
X0029371536Y0025406485D01*
X0029363081Y0025407977D01*
X0029321531Y0025431964D01*
X0029283265Y0025451463D01*
X0029277124Y0025457602D01*
X0029264730Y0025464759D01*
X0029237411Y0025497316D01*
X0029211129Y0025523599D01*
X0029204590Y0025536431D01*
X0029191732Y0025551756D01*
X0029179102Y0025586452D01*
X0029164816Y0025614493D01*
X0029161671Y0025634345D01*
X0029152890Y0025658473D01*
X0029152890Y0025689792D01*
X0029148857Y0025715256D01*
X0029152890Y0025740720D01*
G37*
G36*
X0027501834Y0008524871D02*
G01*
X0027508847Y0008578137D01*
X0027515093Y0008591535D01*
X0027518952Y0008610927D01*
X0027536113Y0008636610D01*
X0027546081Y0008657987D01*
X0027559085Y0008670991D01*
X0027573144Y0008692033D01*
X0027594186Y0008706092D01*
X0027607190Y0008719096D01*
X0027628563Y0008729063D01*
X0027654251Y0008746226D01*
X0027673642Y0008750083D01*
X0027687036Y0008756329D01*
X0027740280Y0008763338D01*
X0027749921Y0008765256D01*
X0028699922Y0008765256D01*
X0028709552Y0008763340D01*
X0028762802Y0008756330D01*
X0028776198Y0008750083D01*
X0028795592Y0008746226D01*
X0028821281Y0008729061D01*
X0028842653Y0008719096D01*
X0028855654Y0008706094D01*
X0028876699Y0008692033D01*
X0028890760Y0008670988D01*
X0028903762Y0008657987D01*
X0028913727Y0008636615D01*
X0028930892Y0008610927D01*
X0028934748Y0008591533D01*
X0028940995Y0008578140D01*
X0028948003Y0008524899D01*
X0028949922Y0008515256D01*
X0028949922Y0008015256D01*
X0028948006Y0008005627D01*
X0028940996Y0007952374D01*
X0028934748Y0007938978D01*
X0028930892Y0007919585D01*
X0028913728Y0007893898D01*
X0028903762Y0007872524D01*
X0028890758Y0007859520D01*
X0028876699Y0007838479D01*
X0028855657Y0007824419D01*
X0028842653Y0007811415D01*
X0028821275Y0007801446D01*
X0028795592Y0007784286D01*
X0028776203Y0007780429D01*
X0028762805Y0007774182D01*
X0028709550Y0007767171D01*
X0028699922Y0007765256D01*
X0027749921Y0007765256D01*
X0027740307Y0007767168D01*
X0027687040Y0007774181D01*
X0027673640Y0007780429D01*
X0027654251Y0007784286D01*
X0027628569Y0007801445D01*
X0027607190Y0007811415D01*
X0027594183Y0007824421D01*
X0027573144Y0007838479D01*
X0027559086Y0007859517D01*
X0027546081Y0007872524D01*
X0027536111Y0007893903D01*
X0027518952Y0007919585D01*
X0027515095Y0007938973D01*
X0027508848Y0007952371D01*
X0027501835Y0008005629D01*
X0027499921Y0008015256D01*
X0027499921Y0008515256D01*
X0027501834Y0008524871D01*
G37*
G36*
X0027501834Y0010424871D02*
G01*
X0027508847Y0010478137D01*
X0027515093Y0010491535D01*
X0027518952Y0010510927D01*
X0027536113Y0010536610D01*
X0027546081Y0010557987D01*
X0027559085Y0010570991D01*
X0027573144Y0010592033D01*
X0027594186Y0010606092D01*
X0027607190Y0010619096D01*
X0027628563Y0010629063D01*
X0027654251Y0010646226D01*
X0027673642Y0010650083D01*
X0027687036Y0010656329D01*
X0027740280Y0010663338D01*
X0027749921Y0010665256D01*
X0028699922Y0010665256D01*
X0028709552Y0010663340D01*
X0028762802Y0010656330D01*
X0028776198Y0010650083D01*
X0028795592Y0010646226D01*
X0028821281Y0010629061D01*
X0028842653Y0010619096D01*
X0028855654Y0010606094D01*
X0028876699Y0010592033D01*
X0028890760Y0010570988D01*
X0028903762Y0010557987D01*
X0028913727Y0010536615D01*
X0028930892Y0010510927D01*
X0028934748Y0010491533D01*
X0028940995Y0010478140D01*
X0028948003Y0010424899D01*
X0028949922Y0010415256D01*
X0028949922Y0009915256D01*
X0028948006Y0009905627D01*
X0028940996Y0009852374D01*
X0028934748Y0009838978D01*
X0028930892Y0009819585D01*
X0028913728Y0009793898D01*
X0028903762Y0009772524D01*
X0028890758Y0009759520D01*
X0028876699Y0009738479D01*
X0028855657Y0009724419D01*
X0028842653Y0009711415D01*
X0028821275Y0009701446D01*
X0028795592Y0009684286D01*
X0028776203Y0009680429D01*
X0028762805Y0009674182D01*
X0028709550Y0009667171D01*
X0028699922Y0009665256D01*
X0027749921Y0009665256D01*
X0027740307Y0009667168D01*
X0027687040Y0009674181D01*
X0027673640Y0009680429D01*
X0027654251Y0009684286D01*
X0027628569Y0009701445D01*
X0027607190Y0009711415D01*
X0027594183Y0009724421D01*
X0027573144Y0009738479D01*
X0027559086Y0009759517D01*
X0027546081Y0009772524D01*
X0027536111Y0009793903D01*
X0027518952Y0009819585D01*
X0027515095Y0009838973D01*
X0027508848Y0009852371D01*
X0027501835Y0009905629D01*
X0027499921Y0009915256D01*
X0027499921Y0010415256D01*
X0027501834Y0010424871D01*
G37*
G36*
X0028262938Y0025715481D02*
G01*
X0028262938Y0025746800D01*
X0028271718Y0025770928D01*
X0028274864Y0025790779D01*
X0028289150Y0025818817D01*
X0028301780Y0025853517D01*
X0028314639Y0025868842D01*
X0028321177Y0025881673D01*
X0028347453Y0025907949D01*
X0028374778Y0025940514D01*
X0028387175Y0025947671D01*
X0028393313Y0025953809D01*
X0028431565Y0025973299D01*
X0028473129Y0025997296D01*
X0028481588Y0025998787D01*
X0028484206Y0026000122D01*
X0028532822Y0026007821D01*
X0028584970Y0026017017D01*
X0028637121Y0026007821D01*
X0028685732Y0026000122D01*
X0028688350Y0025998787D01*
X0028696810Y0025997296D01*
X0028738382Y0025973295D01*
X0028776626Y0025953809D01*
X0028782761Y0025947673D01*
X0028795161Y0025940514D01*
X0028822491Y0025907943D01*
X0028848762Y0025881673D01*
X0028855297Y0025868845D01*
X0028868160Y0025853517D01*
X0028880792Y0025818810D01*
X0028895075Y0025790779D01*
X0028898218Y0025770932D01*
X0028907002Y0025746800D01*
X0028907002Y0025715474D01*
X0028911034Y0025690017D01*
X0028907002Y0025664559D01*
X0028907002Y0025633234D01*
X0028898218Y0025609101D01*
X0028895075Y0025589254D01*
X0028880789Y0025561220D01*
X0028868160Y0025526517D01*
X0028855299Y0025511189D01*
X0028848762Y0025498360D01*
X0028822485Y0025472084D01*
X0028795161Y0025439520D01*
X0028782764Y0025432362D01*
X0028776626Y0025426224D01*
X0028738366Y0025406730D01*
X0028696810Y0025382738D01*
X0028688353Y0025381246D01*
X0028685732Y0025379911D01*
X0028637065Y0025372203D01*
X0028584970Y0025363017D01*
X0028532877Y0025372202D01*
X0028484206Y0025379911D01*
X0028481585Y0025381246D01*
X0028473129Y0025382738D01*
X0028431579Y0025406725D01*
X0028393313Y0025426224D01*
X0028387172Y0025432363D01*
X0028374778Y0025439520D01*
X0028347459Y0025472077D01*
X0028321177Y0025498360D01*
X0028314638Y0025511192D01*
X0028301780Y0025526517D01*
X0028289150Y0025561213D01*
X0028274864Y0025589254D01*
X0028271718Y0025609106D01*
X0028262938Y0025633234D01*
X0028262938Y0025664553D01*
X0028258905Y0025690017D01*
X0028262938Y0025715481D01*
G37*
G36*
X0027265146Y0005376536D02*
G01*
X0027308501Y0005441420D01*
X0027373385Y0005484775D01*
X0027449922Y0005499999D01*
X0027999921Y0005499999D01*
X0028076459Y0005484775D01*
X0028141343Y0005441420D01*
X0028184697Y0005376536D01*
X0028199922Y0005299999D01*
X0028199922Y0004899999D01*
X0028184697Y0004823462D01*
X0028141343Y0004758578D01*
X0028076459Y0004715223D01*
X0027999921Y0004699999D01*
X0027449922Y0004699999D01*
X0027373385Y0004715223D01*
X0027308501Y0004758578D01*
X0027265146Y0004823462D01*
X0027249921Y0004899999D01*
X0027249921Y0005299999D01*
X0027265146Y0005376536D01*
G37*
G36*
X0027265146Y0007026536D02*
G01*
X0027308501Y0007091420D01*
X0027373385Y0007134775D01*
X0027449922Y0007149999D01*
X0027999921Y0007149999D01*
X0028076459Y0007134775D01*
X0028141343Y0007091420D01*
X0028184697Y0007026536D01*
X0028199922Y0006949999D01*
X0028199922Y0006549999D01*
X0028184697Y0006473462D01*
X0028141343Y0006408578D01*
X0028076459Y0006365223D01*
X0027999921Y0006349999D01*
X0027449922Y0006349999D01*
X0027373385Y0006365223D01*
X0027308501Y0006408578D01*
X0027265146Y0006473462D01*
X0027249921Y0006549999D01*
X0027249921Y0006949999D01*
X0027265146Y0007026536D01*
G37*
G36*
X0027152890Y0025692156D02*
G01*
X0027152890Y0025723475D01*
X0027161671Y0025747603D01*
X0027164816Y0025767454D01*
X0027179102Y0025795492D01*
X0027191732Y0025830192D01*
X0027204591Y0025845517D01*
X0027211129Y0025858348D01*
X0027237405Y0025884624D01*
X0027264730Y0025917189D01*
X0027277127Y0025924346D01*
X0027283265Y0025930484D01*
X0027321517Y0025949974D01*
X0027363081Y0025973971D01*
X0027371540Y0025975462D01*
X0027374159Y0025976797D01*
X0027422773Y0025984496D01*
X0027474922Y0025993692D01*
X0027527073Y0025984496D01*
X0027575684Y0025976797D01*
X0027578302Y0025975462D01*
X0027586762Y0025973971D01*
X0027628334Y0025949970D01*
X0027666578Y0025930484D01*
X0027672713Y0025924348D01*
X0027685114Y0025917189D01*
X0027712443Y0025884618D01*
X0027738714Y0025858348D01*
X0027745249Y0025845520D01*
X0027758111Y0025830192D01*
X0027770744Y0025795485D01*
X0027785027Y0025767454D01*
X0027788170Y0025747607D01*
X0027796954Y0025723475D01*
X0027796954Y0025692149D01*
X0027800986Y0025666692D01*
X0027796954Y0025641234D01*
X0027796954Y0025609909D01*
X0027788170Y0025585776D01*
X0027785027Y0025565929D01*
X0027770742Y0025537895D01*
X0027758111Y0025503192D01*
X0027745251Y0025487864D01*
X0027738714Y0025475035D01*
X0027712438Y0025448759D01*
X0027685114Y0025416195D01*
X0027672716Y0025409037D01*
X0027666578Y0025402899D01*
X0027628318Y0025383405D01*
X0027586762Y0025359413D01*
X0027578305Y0025357921D01*
X0027575684Y0025356586D01*
X0027527018Y0025348878D01*
X0027474922Y0025339692D01*
X0027422829Y0025348877D01*
X0027374159Y0025356586D01*
X0027371536Y0025357921D01*
X0027363081Y0025359413D01*
X0027321531Y0025383400D01*
X0027283265Y0025402899D01*
X0027277124Y0025409038D01*
X0027264730Y0025416195D01*
X0027237411Y0025448752D01*
X0027211129Y0025475035D01*
X0027204590Y0025487867D01*
X0027191732Y0025503192D01*
X0027179102Y0025537888D01*
X0027164816Y0025565929D01*
X0027161671Y0025585781D01*
X0027152890Y0025609909D01*
X0027152890Y0025641228D01*
X0027148857Y0025666692D01*
X0027152890Y0025692156D01*
G37*
G36*
X0025826833Y0014349871D02*
G01*
X0025833847Y0014403137D01*
X0025840094Y0014416535D01*
X0025843952Y0014435927D01*
X0025861113Y0014461610D01*
X0025871080Y0014482987D01*
X0025884085Y0014495991D01*
X0025898145Y0014517033D01*
X0025919186Y0014531092D01*
X0025932190Y0014544096D01*
X0025953564Y0014554063D01*
X0025979250Y0014571226D01*
X0025998641Y0014575083D01*
X0026012037Y0014581329D01*
X0026065280Y0014588338D01*
X0026074922Y0014590256D01*
X0027374921Y0014590256D01*
X0027384552Y0014588340D01*
X0027437803Y0014581330D01*
X0027451197Y0014575083D01*
X0027470593Y0014571226D01*
X0027496281Y0014554061D01*
X0027517653Y0014544096D01*
X0027530654Y0014531094D01*
X0027551699Y0014517033D01*
X0027565759Y0014495988D01*
X0027578761Y0014482987D01*
X0027588727Y0014461615D01*
X0027605891Y0014435927D01*
X0027609749Y0014416533D01*
X0027615994Y0014403140D01*
X0027623002Y0014349899D01*
X0027624921Y0014340256D01*
X0027624921Y0013690256D01*
X0027623005Y0013680627D01*
X0027615996Y0013627374D01*
X0027609749Y0013613978D01*
X0027605891Y0013594585D01*
X0027588728Y0013568898D01*
X0027578761Y0013547524D01*
X0027565758Y0013534520D01*
X0027551699Y0013513479D01*
X0027530656Y0013499419D01*
X0027517653Y0013486415D01*
X0027496276Y0013476446D01*
X0027470593Y0013459286D01*
X0027451203Y0013455429D01*
X0027437806Y0013449182D01*
X0027384549Y0013442171D01*
X0027374921Y0013440256D01*
X0026074922Y0013440256D01*
X0026065306Y0013442168D01*
X0026012040Y0013449181D01*
X0025998640Y0013455429D01*
X0025979250Y0013459286D01*
X0025953569Y0013476445D01*
X0025932190Y0013486415D01*
X0025919182Y0013499421D01*
X0025898145Y0013513479D01*
X0025884087Y0013534517D01*
X0025871080Y0013547524D01*
X0025861111Y0013568903D01*
X0025843952Y0013594585D01*
X0025840094Y0013613973D01*
X0025833848Y0013627371D01*
X0025826836Y0013680629D01*
X0025824922Y0013690256D01*
X0025824922Y0014340256D01*
X0025826833Y0014349871D01*
G37*
G36*
X0025826833Y0017299871D02*
G01*
X0025833847Y0017353137D01*
X0025840094Y0017366535D01*
X0025843952Y0017385927D01*
X0025861113Y0017411610D01*
X0025871080Y0017432987D01*
X0025884085Y0017445991D01*
X0025898145Y0017467033D01*
X0025919186Y0017481092D01*
X0025932190Y0017494096D01*
X0025953564Y0017504063D01*
X0025979250Y0017521226D01*
X0025998641Y0017525083D01*
X0026012037Y0017531329D01*
X0026065280Y0017538338D01*
X0026074922Y0017540256D01*
X0027374921Y0017540256D01*
X0027384552Y0017538340D01*
X0027437803Y0017531330D01*
X0027451197Y0017525083D01*
X0027470593Y0017521226D01*
X0027496281Y0017504061D01*
X0027517653Y0017494096D01*
X0027530654Y0017481094D01*
X0027551699Y0017467033D01*
X0027565759Y0017445988D01*
X0027578761Y0017432987D01*
X0027588727Y0017411615D01*
X0027605891Y0017385927D01*
X0027609749Y0017366533D01*
X0027615994Y0017353140D01*
X0027623002Y0017299899D01*
X0027624921Y0017290256D01*
X0027624921Y0016640256D01*
X0027623005Y0016630627D01*
X0027615996Y0016577374D01*
X0027609749Y0016563978D01*
X0027605891Y0016544585D01*
X0027588728Y0016518898D01*
X0027578761Y0016497524D01*
X0027565758Y0016484520D01*
X0027551699Y0016463479D01*
X0027530656Y0016449419D01*
X0027517653Y0016436415D01*
X0027496276Y0016426446D01*
X0027470593Y0016409286D01*
X0027451203Y0016405429D01*
X0027437806Y0016399182D01*
X0027384549Y0016392171D01*
X0027374921Y0016390256D01*
X0026074922Y0016390256D01*
X0026065306Y0016392168D01*
X0026012040Y0016399181D01*
X0025998640Y0016405429D01*
X0025979250Y0016409286D01*
X0025953569Y0016426445D01*
X0025932190Y0016436415D01*
X0025919182Y0016449421D01*
X0025898145Y0016463479D01*
X0025884087Y0016484517D01*
X0025871080Y0016497524D01*
X0025861111Y0016518903D01*
X0025843952Y0016544585D01*
X0025840094Y0016563973D01*
X0025833848Y0016577371D01*
X0025826836Y0016630629D01*
X0025824922Y0016640256D01*
X0025824922Y0017290256D01*
X0025826833Y0017299871D01*
G37*
G36*
X0026152890Y0025740720D02*
G01*
X0026152890Y0025772039D01*
X0026161671Y0025796167D01*
X0026164816Y0025816018D01*
X0026179102Y0025844056D01*
X0026191732Y0025878756D01*
X0026204591Y0025894081D01*
X0026211129Y0025906912D01*
X0026237405Y0025933188D01*
X0026264730Y0025965753D01*
X0026277127Y0025972910D01*
X0026283265Y0025979048D01*
X0026321517Y0025998538D01*
X0026363081Y0026022535D01*
X0026371540Y0026024026D01*
X0026374159Y0026025361D01*
X0026422773Y0026033060D01*
X0026474922Y0026042256D01*
X0026527073Y0026033060D01*
X0026575684Y0026025361D01*
X0026578302Y0026024026D01*
X0026586762Y0026022535D01*
X0026628334Y0025998534D01*
X0026666578Y0025979048D01*
X0026672713Y0025972912D01*
X0026685114Y0025965753D01*
X0026712443Y0025933182D01*
X0026738714Y0025906912D01*
X0026745249Y0025894084D01*
X0026758111Y0025878756D01*
X0026770744Y0025844049D01*
X0026785027Y0025816018D01*
X0026788170Y0025796171D01*
X0026796954Y0025772039D01*
X0026796954Y0025740713D01*
X0026800986Y0025715256D01*
X0026796954Y0025689798D01*
X0026796954Y0025658473D01*
X0026788170Y0025634340D01*
X0026785027Y0025614493D01*
X0026770742Y0025586459D01*
X0026758111Y0025551756D01*
X0026745251Y0025536428D01*
X0026738714Y0025523599D01*
X0026712438Y0025497323D01*
X0026685114Y0025464759D01*
X0026672716Y0025457601D01*
X0026666578Y0025451463D01*
X0026628318Y0025431969D01*
X0026586762Y0025407977D01*
X0026578305Y0025406485D01*
X0026575684Y0025405150D01*
X0026527018Y0025397442D01*
X0026474922Y0025388256D01*
X0026422829Y0025397441D01*
X0026374159Y0025405150D01*
X0026371536Y0025406485D01*
X0026363081Y0025407977D01*
X0026321531Y0025431964D01*
X0026283265Y0025451463D01*
X0026277124Y0025457602D01*
X0026264730Y0025464759D01*
X0026237411Y0025497316D01*
X0026211129Y0025523599D01*
X0026204590Y0025536431D01*
X0026191732Y0025551756D01*
X0026179102Y0025586452D01*
X0026164816Y0025614493D01*
X0026161671Y0025634345D01*
X0026152890Y0025658473D01*
X0026152890Y0025689792D01*
X0026148857Y0025715256D01*
X0026152890Y0025740720D01*
G37*
G36*
X0025237934Y0025746224D02*
G01*
X0025237934Y0025777543D01*
X0025246715Y0025801671D01*
X0025249860Y0025821522D01*
X0025264145Y0025849560D01*
X0025276775Y0025884260D01*
X0025289634Y0025899585D01*
X0025296173Y0025912416D01*
X0025322449Y0025938692D01*
X0025349773Y0025971257D01*
X0025362170Y0025978414D01*
X0025368309Y0025984552D01*
X0025406561Y0026004042D01*
X0025448124Y0026028039D01*
X0025456584Y0026029530D01*
X0025459203Y0026030865D01*
X0025507818Y0026038564D01*
X0025559966Y0026047760D01*
X0025612116Y0026038564D01*
X0025660728Y0026030865D01*
X0025663345Y0026029530D01*
X0025671807Y0026028039D01*
X0025713378Y0026004038D01*
X0025751621Y0025984552D01*
X0025757756Y0025978416D01*
X0025770158Y0025971257D01*
X0025797486Y0025938686D01*
X0025823757Y0025912416D01*
X0025830292Y0025899588D01*
X0025843156Y0025884260D01*
X0025855787Y0025849553D01*
X0025870071Y0025821522D01*
X0025873213Y0025801675D01*
X0025881998Y0025777543D01*
X0025881998Y0025746217D01*
X0025886029Y0025720760D01*
X0025881998Y0025695302D01*
X0025881998Y0025663977D01*
X0025873213Y0025639844D01*
X0025870071Y0025619997D01*
X0025855786Y0025591963D01*
X0025843156Y0025557260D01*
X0025830295Y0025541932D01*
X0025823757Y0025529103D01*
X0025797482Y0025502827D01*
X0025770158Y0025470263D01*
X0025757759Y0025463105D01*
X0025751621Y0025456967D01*
X0025713363Y0025437473D01*
X0025671807Y0025413481D01*
X0025663348Y0025411989D01*
X0025660728Y0025410654D01*
X0025612062Y0025402946D01*
X0025559966Y0025393760D01*
X0025507874Y0025402945D01*
X0025459203Y0025410654D01*
X0025456581Y0025411989D01*
X0025448124Y0025413481D01*
X0025406576Y0025437468D01*
X0025368309Y0025456967D01*
X0025362169Y0025463106D01*
X0025349773Y0025470263D01*
X0025322454Y0025502820D01*
X0025296173Y0025529103D01*
X0025289634Y0025541935D01*
X0025276775Y0025557260D01*
X0025264147Y0025591956D01*
X0025249860Y0025619997D01*
X0025246715Y0025639849D01*
X0025237934Y0025663977D01*
X0025237934Y0025695296D01*
X0025233901Y0025720760D01*
X0025237934Y0025746224D01*
G37*
G36*
X0024501128Y0006146324D02*
G01*
X0024506082Y0006189025D01*
X0024512524Y0006203612D01*
X0024517049Y0006226360D01*
X0024533321Y0006250714D01*
X0024540371Y0006266680D01*
X0024551274Y0006277583D01*
X0024565823Y0006299356D01*
X0024587594Y0006313903D01*
X0024598498Y0006324807D01*
X0024614462Y0006331854D01*
X0024638818Y0006348129D01*
X0024661568Y0006352654D01*
X0024676153Y0006359095D01*
X0024718846Y0006364047D01*
X0024724922Y0006365257D01*
X0025224922Y0006365256D01*
X0025231001Y0006364046D01*
X0025273690Y0006359094D01*
X0025288272Y0006352654D01*
X0025311026Y0006348129D01*
X0025335383Y0006331853D01*
X0025351345Y0006324806D01*
X0025362246Y0006313904D01*
X0025384020Y0006299355D01*
X0025398570Y0006277580D01*
X0025409472Y0006266679D01*
X0025416519Y0006250717D01*
X0025432795Y0006226360D01*
X0025437320Y0006203607D01*
X0025443759Y0006189024D01*
X0025448712Y0006146333D01*
X0025449922Y0006140256D01*
X0025449922Y0005690256D01*
X0025448712Y0005684177D01*
X0025443759Y0005641487D01*
X0025437320Y0005626902D01*
X0025432795Y0005604152D01*
X0025416520Y0005579796D01*
X0025409472Y0005563832D01*
X0025398567Y0005552928D01*
X0025384020Y0005531157D01*
X0025362249Y0005516609D01*
X0025351345Y0005505705D01*
X0025335379Y0005498655D01*
X0025311026Y0005482383D01*
X0025288277Y0005477858D01*
X0025273690Y0005471417D01*
X0025230987Y0005466462D01*
X0025224922Y0005465256D01*
X0024724922Y0005465257D01*
X0024718854Y0005466462D01*
X0024676153Y0005471418D01*
X0024661564Y0005477859D01*
X0024638818Y0005482384D01*
X0024614466Y0005498654D01*
X0024598498Y0005505706D01*
X0024587591Y0005516612D01*
X0024565823Y0005531157D01*
X0024551277Y0005552925D01*
X0024540371Y0005563833D01*
X0024533320Y0005579801D01*
X0024517049Y0005604152D01*
X0024512524Y0005626899D01*
X0024506082Y0005641488D01*
X0024501128Y0005684193D01*
X0024499921Y0005690257D01*
X0024499921Y0006140256D01*
X0024501128Y0006146324D01*
G37*
G36*
X0024501128Y0007696323D02*
G01*
X0024506082Y0007739024D01*
X0024512524Y0007753611D01*
X0024517049Y0007776361D01*
X0024533321Y0007800713D01*
X0024540371Y0007816679D01*
X0024551274Y0007827584D01*
X0024565823Y0007849356D01*
X0024587594Y0007863903D01*
X0024598498Y0007874806D01*
X0024614462Y0007881855D01*
X0024638818Y0007898130D01*
X0024661568Y0007902655D01*
X0024676153Y0007909095D01*
X0024718846Y0007914048D01*
X0024724922Y0007915256D01*
X0025224922Y0007915256D01*
X0025231001Y0007914046D01*
X0025273690Y0007909094D01*
X0025288272Y0007902654D01*
X0025311026Y0007898129D01*
X0025335383Y0007881853D01*
X0025351345Y0007874806D01*
X0025362246Y0007863904D01*
X0025384020Y0007849355D01*
X0025398570Y0007827580D01*
X0025409472Y0007816679D01*
X0025416519Y0007800717D01*
X0025432795Y0007776360D01*
X0025437320Y0007753607D01*
X0025443759Y0007739024D01*
X0025448712Y0007696333D01*
X0025449922Y0007690256D01*
X0025449922Y0007240256D01*
X0025448712Y0007234177D01*
X0025443759Y0007191487D01*
X0025437320Y0007176902D01*
X0025432795Y0007154152D01*
X0025416520Y0007129796D01*
X0025409472Y0007113832D01*
X0025398567Y0007102928D01*
X0025384020Y0007081157D01*
X0025362249Y0007066609D01*
X0025351345Y0007055705D01*
X0025335379Y0007048655D01*
X0025311026Y0007032383D01*
X0025288277Y0007027858D01*
X0025273690Y0007021417D01*
X0025230987Y0007016462D01*
X0025224922Y0007015256D01*
X0024724922Y0007015256D01*
X0024718854Y0007016463D01*
X0024676153Y0007021417D01*
X0024661564Y0007027858D01*
X0024638818Y0007032384D01*
X0024614466Y0007048654D01*
X0024598498Y0007055706D01*
X0024587591Y0007066611D01*
X0024565823Y0007081158D01*
X0024551277Y0007102925D01*
X0024540371Y0007113833D01*
X0024533320Y0007129801D01*
X0024517049Y0007154153D01*
X0024512524Y0007176898D01*
X0024506082Y0007191488D01*
X0024501128Y0007234192D01*
X0024499921Y0007240257D01*
X0024499921Y0007690257D01*
X0024501128Y0007696323D01*
G37*
G36*
X0024190275Y0010891919D02*
G01*
X0024219541Y0010935716D01*
X0024263337Y0010964981D01*
X0024314999Y0010975257D01*
X0024685000Y0010975257D01*
X0024736662Y0010964981D01*
X0024780459Y0010935716D01*
X0024809724Y0010891919D01*
X0024820000Y0010840257D01*
X0024820000Y0010570256D01*
X0024809724Y0010518594D01*
X0024780459Y0010474798D01*
X0024736662Y0010445532D01*
X0024685000Y0010435257D01*
X0024314999Y0010435257D01*
X0024263337Y0010445532D01*
X0024219541Y0010474798D01*
X0024190275Y0010518594D01*
X0024180000Y0010570256D01*
X0024180000Y0010840257D01*
X0024190275Y0010891919D01*
G37*
G36*
X0024190275Y0011911918D02*
G01*
X0024219541Y0011955716D01*
X0024263337Y0011984980D01*
X0024314999Y0011995257D01*
X0024685000Y0011995257D01*
X0024736662Y0011984980D01*
X0024780459Y0011955716D01*
X0024809724Y0011911918D01*
X0024820000Y0011860256D01*
X0024820000Y0011590257D01*
X0024809724Y0011538595D01*
X0024780459Y0011494798D01*
X0024736662Y0011465533D01*
X0024685000Y0011455257D01*
X0024314999Y0011455257D01*
X0024263337Y0011465533D01*
X0024219541Y0011494798D01*
X0024190275Y0011538595D01*
X0024180000Y0011590257D01*
X0024180000Y0011860256D01*
X0024190275Y0011911918D01*
G37*
G36*
X0024152890Y0025740721D02*
G01*
X0024152890Y0025772039D01*
X0024161671Y0025796168D01*
X0024164816Y0025816018D01*
X0024179102Y0025844057D01*
X0024191732Y0025878757D01*
X0024204591Y0025894081D01*
X0024211129Y0025906913D01*
X0024237405Y0025933189D01*
X0024264730Y0025965753D01*
X0024277127Y0025972911D01*
X0024283265Y0025979049D01*
X0024321517Y0025998539D01*
X0024363081Y0026022536D01*
X0024371540Y0026024026D01*
X0024374159Y0026025362D01*
X0024422773Y0026033060D01*
X0024474922Y0026042257D01*
X0024527073Y0026033060D01*
X0024575684Y0026025362D01*
X0024578302Y0026024026D01*
X0024586762Y0026022536D01*
X0024628334Y0025998534D01*
X0024666578Y0025979049D01*
X0024672713Y0025972913D01*
X0024685114Y0025965753D01*
X0024712443Y0025933183D01*
X0024738714Y0025906913D01*
X0024745249Y0025894084D01*
X0024758111Y0025878757D01*
X0024770744Y0025844050D01*
X0024785027Y0025816018D01*
X0024788170Y0025796172D01*
X0024796954Y0025772039D01*
X0024796954Y0025740713D01*
X0024800986Y0025715257D01*
X0024796954Y0025689799D01*
X0024796954Y0025658474D01*
X0024788170Y0025634341D01*
X0024785027Y0025614494D01*
X0024770742Y0025586460D01*
X0024758111Y0025551757D01*
X0024745251Y0025536429D01*
X0024738714Y0025523600D01*
X0024712438Y0025497324D01*
X0024685114Y0025464760D01*
X0024672716Y0025457602D01*
X0024666578Y0025451464D01*
X0024628318Y0025431970D01*
X0024586762Y0025407978D01*
X0024578305Y0025406486D01*
X0024575684Y0025405150D01*
X0024527018Y0025397443D01*
X0024474922Y0025388257D01*
X0024422829Y0025397441D01*
X0024374159Y0025405150D01*
X0024371536Y0025406486D01*
X0024363081Y0025407978D01*
X0024321531Y0025431965D01*
X0024283265Y0025451464D01*
X0024277124Y0025457603D01*
X0024264730Y0025464760D01*
X0024237411Y0025497317D01*
X0024211129Y0025523600D01*
X0024204590Y0025536431D01*
X0024191732Y0025551757D01*
X0024179102Y0025586453D01*
X0024164816Y0025614494D01*
X0024161671Y0025634346D01*
X0024152890Y0025658474D01*
X0024152890Y0025689793D01*
X0024148857Y0025715257D01*
X0024152890Y0025740721D01*
G37*
G36*
X0023925579Y0015408833D02*
G01*
X0023955927Y0015454251D01*
X0024001345Y0015484600D01*
X0024054921Y0015495257D01*
X0024394922Y0015495257D01*
X0024448498Y0015484600D01*
X0024493917Y0015454251D01*
X0024524265Y0015408833D01*
X0024534922Y0015355257D01*
X0024534922Y0015075257D01*
X0024524265Y0015021681D01*
X0024493917Y0014976261D01*
X0024448498Y0014945914D01*
X0024394922Y0014935257D01*
X0024054921Y0014935257D01*
X0024001345Y0014945914D01*
X0023955927Y0014976261D01*
X0023925579Y0015021681D01*
X0023914921Y0015075257D01*
X0023914921Y0015355257D01*
X0023925579Y0015408833D01*
G37*
G36*
X0023925579Y0016368833D02*
G01*
X0023955927Y0016414251D01*
X0024001345Y0016444600D01*
X0024054921Y0016455257D01*
X0024394922Y0016455257D01*
X0024448498Y0016444600D01*
X0024493917Y0016414251D01*
X0024524265Y0016368833D01*
X0024534922Y0016315257D01*
X0024534922Y0016035257D01*
X0024524265Y0015981681D01*
X0024493917Y0015936262D01*
X0024448498Y0015905914D01*
X0024394922Y0015895257D01*
X0024054921Y0015895257D01*
X0024001345Y0015905914D01*
X0023955927Y0015936262D01*
X0023925579Y0015981681D01*
X0023914921Y0016035257D01*
X0023914921Y0016315257D01*
X0023925579Y0016368833D01*
G37*
G36*
X0022902890Y0025740721D02*
G01*
X0022902890Y0025772039D01*
X0022911671Y0025796168D01*
X0022914816Y0025816018D01*
X0022929102Y0025844057D01*
X0022941732Y0025878757D01*
X0022954591Y0025894081D01*
X0022961129Y0025906913D01*
X0022987405Y0025933189D01*
X0023014730Y0025965753D01*
X0023027127Y0025972911D01*
X0023033265Y0025979049D01*
X0023071517Y0025998539D01*
X0023113081Y0026022536D01*
X0023121540Y0026024026D01*
X0023124159Y0026025362D01*
X0023172773Y0026033060D01*
X0023224922Y0026042257D01*
X0023277073Y0026033060D01*
X0023325684Y0026025362D01*
X0023328302Y0026024026D01*
X0023336762Y0026022536D01*
X0023378334Y0025998534D01*
X0023416578Y0025979049D01*
X0023422713Y0025972913D01*
X0023435114Y0025965753D01*
X0023462443Y0025933183D01*
X0023488714Y0025906913D01*
X0023495249Y0025894084D01*
X0023508111Y0025878757D01*
X0023520744Y0025844050D01*
X0023535027Y0025816018D01*
X0023538170Y0025796172D01*
X0023546954Y0025772039D01*
X0023546954Y0025740713D01*
X0023550986Y0025715257D01*
X0023546954Y0025689799D01*
X0023546954Y0025658474D01*
X0023538170Y0025634341D01*
X0023535027Y0025614494D01*
X0023520742Y0025586460D01*
X0023508111Y0025551757D01*
X0023495251Y0025536429D01*
X0023488714Y0025523600D01*
X0023462438Y0025497324D01*
X0023435114Y0025464760D01*
X0023422716Y0025457602D01*
X0023416578Y0025451464D01*
X0023378318Y0025431970D01*
X0023336762Y0025407978D01*
X0023328305Y0025406486D01*
X0023325684Y0025405150D01*
X0023277018Y0025397443D01*
X0023224922Y0025388257D01*
X0023172829Y0025397441D01*
X0023124159Y0025405150D01*
X0023121536Y0025406486D01*
X0023113081Y0025407978D01*
X0023071531Y0025431965D01*
X0023033265Y0025451464D01*
X0023027124Y0025457603D01*
X0023014730Y0025464760D01*
X0022987411Y0025497317D01*
X0022961129Y0025523600D01*
X0022954590Y0025536431D01*
X0022941732Y0025551757D01*
X0022929102Y0025586453D01*
X0022914816Y0025614494D01*
X0022911671Y0025634346D01*
X0022902890Y0025658474D01*
X0022902890Y0025689793D01*
X0022898857Y0025715257D01*
X0022902890Y0025740721D01*
G37*
G36*
X0022376834Y0008624872D02*
G01*
X0022383847Y0008678137D01*
X0022390093Y0008691536D01*
X0022393952Y0008710928D01*
X0022411113Y0008736611D01*
X0022421081Y0008757987D01*
X0022434085Y0008770992D01*
X0022448144Y0008792034D01*
X0022469186Y0008806092D01*
X0022482190Y0008819097D01*
X0022503563Y0008829064D01*
X0022529251Y0008846226D01*
X0022548642Y0008850084D01*
X0022562036Y0008856330D01*
X0022615280Y0008863339D01*
X0022624921Y0008865257D01*
X0023274921Y0008865257D01*
X0023284551Y0008863340D01*
X0023337803Y0008856330D01*
X0023351197Y0008850084D01*
X0023370593Y0008846226D01*
X0023396281Y0008829062D01*
X0023417653Y0008819097D01*
X0023430653Y0008806095D01*
X0023451698Y0008792034D01*
X0023465760Y0008770989D01*
X0023478762Y0008757987D01*
X0023488726Y0008736615D01*
X0023505892Y0008710928D01*
X0023509749Y0008691533D01*
X0023515994Y0008678140D01*
X0023523003Y0008624899D01*
X0023524921Y0008615257D01*
X0023524921Y0007315257D01*
X0023523006Y0007305627D01*
X0023515996Y0007252375D01*
X0023509749Y0007238979D01*
X0023505892Y0007219586D01*
X0023488728Y0007193899D01*
X0023478762Y0007172525D01*
X0023465758Y0007159520D01*
X0023451698Y0007138480D01*
X0023430656Y0007124420D01*
X0023417653Y0007111415D01*
X0023396276Y0007101447D01*
X0023370593Y0007084287D01*
X0023351203Y0007080430D01*
X0023337806Y0007074182D01*
X0023284550Y0007067171D01*
X0023274921Y0007065257D01*
X0022624921Y0007065257D01*
X0022615307Y0007067169D01*
X0022562040Y0007074182D01*
X0022548640Y0007080430D01*
X0022529251Y0007084287D01*
X0022503569Y0007101446D01*
X0022482190Y0007111415D01*
X0022469183Y0007124422D01*
X0022448144Y0007138480D01*
X0022434086Y0007159517D01*
X0022421081Y0007172525D01*
X0022411111Y0007193904D01*
X0022393952Y0007219586D01*
X0022390095Y0007238973D01*
X0022383848Y0007252372D01*
X0022376835Y0007305630D01*
X0022374921Y0007315257D01*
X0022374921Y0008615257D01*
X0022376834Y0008624872D01*
G37*
G36*
X0022673918Y0010760159D02*
G01*
X0022706434Y0010808822D01*
X0022755097Y0010841338D01*
X0022812500Y0010852756D01*
X0023112499Y0010852756D01*
X0023169902Y0010841338D01*
X0023218566Y0010808822D01*
X0023251081Y0010760159D01*
X0023262500Y0010702756D01*
X0023262500Y0009677757D01*
X0023251081Y0009620353D01*
X0023218566Y0009571691D01*
X0023169902Y0009539175D01*
X0023112499Y0009527757D01*
X0022812500Y0009527757D01*
X0022755097Y0009539175D01*
X0022706434Y0009571691D01*
X0022673918Y0009620353D01*
X0022662500Y0009677757D01*
X0022662500Y0010702756D01*
X0022673918Y0010760159D01*
G37*
G36*
X0022673918Y0013035159D02*
G01*
X0022706434Y0013083823D01*
X0022755097Y0013116339D01*
X0022812500Y0013127757D01*
X0023112499Y0013127757D01*
X0023169902Y0013116339D01*
X0023218566Y0013083823D01*
X0023251081Y0013035159D01*
X0023262500Y0012977756D01*
X0023262500Y0011952756D01*
X0023251081Y0011895353D01*
X0023218566Y0011846691D01*
X0023169902Y0011814174D01*
X0023112499Y0011802757D01*
X0022812500Y0011802757D01*
X0022755097Y0011814174D01*
X0022706434Y0011846691D01*
X0022673918Y0011895353D01*
X0022662500Y0011952756D01*
X0022662500Y0012977756D01*
X0022673918Y0013035159D01*
G37*
G36*
X0021751128Y0004696323D02*
G01*
X0021756082Y0004739024D01*
X0021762524Y0004753611D01*
X0021767049Y0004776361D01*
X0021783321Y0004800713D01*
X0021790371Y0004816679D01*
X0021801274Y0004827584D01*
X0021815823Y0004849356D01*
X0021837594Y0004863903D01*
X0021848498Y0004874806D01*
X0021864462Y0004881855D01*
X0021888818Y0004898130D01*
X0021911568Y0004902655D01*
X0021926153Y0004909095D01*
X0021968846Y0004914048D01*
X0021974922Y0004915256D01*
X0022474922Y0004915256D01*
X0022481001Y0004914046D01*
X0022523690Y0004909095D01*
X0022538272Y0004902655D01*
X0022561026Y0004898130D01*
X0022585383Y0004881853D01*
X0022601345Y0004874806D01*
X0022612246Y0004863905D01*
X0022634020Y0004849356D01*
X0022648570Y0004827581D01*
X0022659472Y0004816679D01*
X0022666519Y0004800718D01*
X0022682795Y0004776361D01*
X0022687320Y0004753608D01*
X0022693759Y0004739024D01*
X0022698712Y0004696334D01*
X0022699922Y0004690257D01*
X0022699922Y0004240257D01*
X0022698712Y0004234178D01*
X0022693759Y0004191487D01*
X0022687320Y0004176903D01*
X0022682795Y0004154153D01*
X0022666520Y0004129797D01*
X0022659472Y0004113832D01*
X0022648567Y0004102929D01*
X0022634020Y0004081158D01*
X0022612249Y0004066609D01*
X0022601345Y0004055706D01*
X0022585379Y0004048656D01*
X0022561026Y0004032384D01*
X0022538277Y0004027858D01*
X0022523690Y0004021417D01*
X0022480987Y0004016463D01*
X0022474922Y0004015256D01*
X0021974922Y0004015256D01*
X0021968854Y0004016463D01*
X0021926153Y0004021417D01*
X0021911564Y0004027858D01*
X0021888818Y0004032384D01*
X0021864466Y0004048654D01*
X0021848498Y0004055706D01*
X0021837591Y0004066611D01*
X0021815823Y0004081158D01*
X0021801277Y0004102925D01*
X0021790371Y0004113832D01*
X0021783320Y0004129801D01*
X0021767049Y0004154153D01*
X0021762524Y0004176898D01*
X0021756082Y0004191487D01*
X0021751128Y0004234192D01*
X0021749921Y0004240257D01*
X0021749921Y0004690257D01*
X0021751128Y0004696323D01*
G37*
G36*
X0021751128Y0006246324D02*
G01*
X0021756082Y0006289025D01*
X0021762524Y0006303612D01*
X0021767049Y0006326360D01*
X0021783321Y0006350714D01*
X0021790371Y0006366680D01*
X0021801274Y0006377583D01*
X0021815823Y0006399355D01*
X0021837594Y0006413902D01*
X0021848498Y0006424807D01*
X0021864462Y0006431854D01*
X0021888818Y0006448129D01*
X0021911568Y0006452655D01*
X0021926153Y0006459094D01*
X0021968846Y0006464047D01*
X0021974922Y0006465257D01*
X0022474922Y0006465257D01*
X0022481001Y0006464047D01*
X0022523690Y0006459094D01*
X0022538272Y0006452655D01*
X0022561026Y0006448129D01*
X0022585383Y0006431854D01*
X0022601345Y0006424807D01*
X0022612246Y0006413905D01*
X0022634020Y0006399355D01*
X0022648570Y0006377580D01*
X0022659472Y0006366680D01*
X0022666519Y0006350718D01*
X0022682795Y0006326360D01*
X0022687320Y0006303607D01*
X0022693759Y0006289025D01*
X0022698712Y0006246333D01*
X0022699922Y0006240257D01*
X0022699922Y0005790256D01*
X0022698712Y0005784177D01*
X0022693759Y0005741487D01*
X0022687320Y0005726903D01*
X0022682795Y0005704152D01*
X0022666520Y0005679797D01*
X0022659472Y0005663832D01*
X0022648567Y0005652929D01*
X0022634020Y0005631157D01*
X0022612249Y0005616610D01*
X0022601345Y0005605705D01*
X0022585379Y0005598655D01*
X0022561026Y0005582383D01*
X0022538277Y0005577858D01*
X0022523690Y0005571418D01*
X0022480987Y0005566462D01*
X0022474922Y0005565257D01*
X0021974922Y0005565257D01*
X0021968854Y0005566462D01*
X0021926153Y0005571418D01*
X0021911564Y0005577858D01*
X0021888818Y0005582383D01*
X0021864466Y0005598655D01*
X0021848498Y0005605705D01*
X0021837591Y0005616612D01*
X0021815823Y0005631157D01*
X0021801277Y0005652926D01*
X0021790371Y0005663832D01*
X0021783320Y0005679800D01*
X0021767049Y0005704152D01*
X0021762524Y0005726899D01*
X0021756082Y0005741487D01*
X0021751128Y0005784193D01*
X0021749921Y0005790256D01*
X0021749921Y0006240257D01*
X0021751128Y0006246324D01*
G37*
G36*
X0021723917Y0010760159D02*
G01*
X0021756434Y0010808822D01*
X0021805097Y0010841338D01*
X0021862499Y0010852756D01*
X0022162500Y0010852756D01*
X0022219903Y0010841338D01*
X0022268566Y0010808822D01*
X0022301082Y0010760159D01*
X0022312500Y0010702756D01*
X0022312500Y0009677757D01*
X0022301082Y0009620353D01*
X0022268566Y0009571691D01*
X0022219903Y0009539175D01*
X0022162500Y0009527757D01*
X0021862499Y0009527757D01*
X0021805097Y0009539175D01*
X0021756434Y0009571691D01*
X0021723917Y0009620353D01*
X0021712500Y0009677757D01*
X0021712500Y0010702756D01*
X0021723917Y0010760159D01*
G37*
G36*
X0021723917Y0013035159D02*
G01*
X0021756434Y0013083823D01*
X0021805097Y0013116339D01*
X0021862499Y0013127757D01*
X0022162500Y0013127757D01*
X0022219903Y0013116339D01*
X0022268566Y0013083823D01*
X0022301082Y0013035159D01*
X0022312500Y0012977756D01*
X0022312500Y0011952756D01*
X0022301082Y0011895353D01*
X0022268566Y0011846691D01*
X0022219903Y0011814174D01*
X0022162500Y0011802757D01*
X0021862499Y0011802757D01*
X0021805097Y0011814174D01*
X0021756434Y0011846691D01*
X0021723917Y0011895353D01*
X0021712500Y0011952756D01*
X0021712500Y0012977756D01*
X0021723917Y0013035159D01*
G37*
G36*
X0020773918Y0010760159D02*
G01*
X0020806434Y0010808822D01*
X0020855097Y0010841338D01*
X0020912500Y0010852756D01*
X0021212500Y0010852756D01*
X0021269903Y0010841338D01*
X0021318565Y0010808822D01*
X0021351081Y0010760159D01*
X0021362499Y0010702756D01*
X0021362499Y0009677757D01*
X0021351081Y0009620353D01*
X0021318565Y0009571691D01*
X0021269903Y0009539175D01*
X0021212500Y0009527757D01*
X0020912500Y0009527757D01*
X0020855097Y0009539175D01*
X0020806434Y0009571691D01*
X0020773918Y0009620353D01*
X0020762500Y0009677757D01*
X0020762500Y0010702756D01*
X0020773918Y0010760159D01*
G37*
G36*
X0020773918Y0013035159D02*
G01*
X0020806434Y0013083823D01*
X0020855097Y0013116339D01*
X0020912500Y0013127757D01*
X0021212500Y0013127757D01*
X0021269903Y0013116339D01*
X0021318565Y0013083823D01*
X0021351081Y0013035159D01*
X0021362499Y0012977756D01*
X0021362499Y0011952756D01*
X0021351081Y0011895353D01*
X0021318565Y0011846691D01*
X0021269903Y0011814174D01*
X0021212500Y0011802757D01*
X0020912500Y0011802757D01*
X0020855097Y0011814174D01*
X0020806434Y0011846691D01*
X0020773918Y0011895353D01*
X0020762500Y0011952756D01*
X0020762500Y0012977756D01*
X0020773918Y0013035159D01*
G37*
G36*
X0020026206Y0014437317D02*
G01*
X0020030994Y0014478586D01*
X0020037219Y0014492685D01*
X0020041651Y0014514961D01*
X0020057586Y0014538809D01*
X0020064355Y0014554141D01*
X0020074824Y0014564611D01*
X0020089070Y0014585929D01*
X0020110388Y0014600174D01*
X0020120858Y0014610644D01*
X0020136186Y0014617412D01*
X0020160038Y0014633349D01*
X0020182316Y0014637780D01*
X0020196412Y0014644004D01*
X0020237673Y0014648791D01*
X0020243750Y0014649999D01*
X0020756250Y0014649999D01*
X0020762329Y0014648789D01*
X0020803587Y0014644004D01*
X0020817681Y0014637780D01*
X0020839962Y0014633349D01*
X0020863815Y0014617410D01*
X0020879140Y0014610644D01*
X0020889608Y0014600175D01*
X0020910930Y0014585929D01*
X0020925176Y0014564608D01*
X0020935644Y0014554141D01*
X0020942410Y0014538815D01*
X0020958349Y0014514961D01*
X0020962780Y0014492680D01*
X0020969004Y0014478586D01*
X0020973791Y0014437327D01*
X0020975000Y0014431249D01*
X0020975000Y0013993749D01*
X0020973790Y0013987670D01*
X0020969004Y0013946412D01*
X0020962780Y0013932316D01*
X0020958349Y0013910038D01*
X0020942411Y0013886186D01*
X0020935644Y0013870857D01*
X0020925174Y0013860388D01*
X0020910930Y0013839070D01*
X0020889611Y0013824824D01*
X0020879140Y0013814354D01*
X0020863810Y0013807586D01*
X0020839962Y0013791651D01*
X0020817684Y0013787219D01*
X0020803587Y0013780994D01*
X0020762315Y0013776206D01*
X0020756250Y0013774999D01*
X0020243750Y0013774999D01*
X0020237682Y0013776206D01*
X0020196412Y0013780994D01*
X0020182312Y0013787219D01*
X0020160038Y0013791651D01*
X0020136190Y0013807583D01*
X0020120858Y0013814354D01*
X0020110385Y0013824827D01*
X0020089070Y0013839070D01*
X0020074827Y0013860385D01*
X0020064355Y0013870857D01*
X0020057584Y0013886190D01*
X0020041651Y0013910038D01*
X0020037219Y0013932312D01*
X0020030994Y0013946412D01*
X0020026206Y0013987684D01*
X0020025000Y0013993749D01*
X0020025000Y0014431249D01*
X0020026206Y0014437317D01*
G37*
G36*
X0020026206Y0016012317D02*
G01*
X0020030994Y0016053587D01*
X0020037219Y0016067684D01*
X0020041651Y0016089962D01*
X0020057586Y0016113810D01*
X0020064355Y0016129140D01*
X0020074824Y0016139611D01*
X0020089070Y0016160930D01*
X0020110388Y0016175173D01*
X0020120858Y0016185644D01*
X0020136186Y0016192411D01*
X0020160038Y0016208348D01*
X0020182316Y0016212780D01*
X0020196412Y0016219003D01*
X0020237673Y0016223790D01*
X0020243750Y0016225000D01*
X0020756250Y0016225000D01*
X0020762329Y0016223790D01*
X0020803587Y0016219003D01*
X0020817681Y0016212780D01*
X0020839962Y0016208348D01*
X0020863815Y0016192410D01*
X0020879140Y0016185644D01*
X0020889608Y0016175176D01*
X0020910930Y0016160930D01*
X0020925176Y0016139608D01*
X0020935644Y0016129140D01*
X0020942410Y0016113815D01*
X0020958349Y0016089962D01*
X0020962780Y0016067681D01*
X0020969004Y0016053587D01*
X0020973791Y0016012327D01*
X0020975000Y0016006250D01*
X0020975000Y0015568750D01*
X0020973790Y0015562671D01*
X0020969004Y0015521411D01*
X0020962780Y0015507316D01*
X0020958349Y0015485038D01*
X0020942411Y0015461185D01*
X0020935644Y0015445858D01*
X0020925174Y0015435388D01*
X0020910930Y0015414070D01*
X0020889611Y0015399825D01*
X0020879140Y0015389355D01*
X0020863810Y0015382586D01*
X0020839962Y0015366650D01*
X0020817684Y0015362220D01*
X0020803587Y0015355995D01*
X0020762315Y0015351205D01*
X0020756250Y0015350000D01*
X0020243750Y0015350000D01*
X0020237682Y0015351205D01*
X0020196412Y0015355995D01*
X0020182312Y0015362220D01*
X0020160038Y0015366650D01*
X0020136190Y0015382584D01*
X0020120858Y0015389355D01*
X0020110385Y0015399827D01*
X0020089070Y0015414070D01*
X0020074827Y0015435384D01*
X0020064355Y0015445858D01*
X0020057584Y0015461191D01*
X0020041651Y0015485038D01*
X0020037219Y0015507311D01*
X0020030994Y0015521411D01*
X0020026206Y0015562685D01*
X0020025000Y0015568750D01*
X0020025000Y0016006250D01*
X0020026206Y0016012317D01*
G37*
G36*
X0019426834Y0008624872D02*
G01*
X0019433847Y0008678137D01*
X0019440094Y0008691536D01*
X0019443952Y0008710928D01*
X0019461112Y0008736611D01*
X0019471080Y0008757987D01*
X0019484085Y0008770992D01*
X0019498145Y0008792034D01*
X0019519185Y0008806092D01*
X0019532190Y0008819097D01*
X0019553564Y0008829064D01*
X0019579251Y0008846226D01*
X0019598641Y0008850084D01*
X0019612037Y0008856330D01*
X0019665280Y0008863339D01*
X0019674922Y0008865257D01*
X0020324922Y0008865257D01*
X0020334552Y0008863340D01*
X0020387802Y0008856330D01*
X0020401198Y0008850084D01*
X0020420592Y0008846226D01*
X0020446281Y0008829062D01*
X0020467653Y0008819097D01*
X0020480654Y0008806095D01*
X0020501699Y0008792034D01*
X0020515760Y0008770989D01*
X0020528762Y0008757987D01*
X0020538727Y0008736615D01*
X0020555892Y0008710928D01*
X0020559748Y0008691533D01*
X0020565995Y0008678140D01*
X0020573003Y0008624899D01*
X0020574922Y0008615257D01*
X0020574922Y0007315257D01*
X0020573006Y0007305627D01*
X0020565996Y0007252375D01*
X0020559748Y0007238979D01*
X0020555892Y0007219586D01*
X0020538728Y0007193899D01*
X0020528762Y0007172525D01*
X0020515758Y0007159520D01*
X0020501699Y0007138480D01*
X0020480657Y0007124420D01*
X0020467653Y0007111415D01*
X0020446275Y0007101447D01*
X0020420592Y0007084287D01*
X0020401203Y0007080430D01*
X0020387805Y0007074182D01*
X0020334550Y0007067171D01*
X0020324922Y0007065257D01*
X0019674922Y0007065257D01*
X0019665307Y0007067169D01*
X0019612040Y0007074182D01*
X0019598640Y0007080430D01*
X0019579251Y0007084287D01*
X0019553569Y0007101446D01*
X0019532190Y0007111415D01*
X0019519183Y0007124422D01*
X0019498145Y0007138480D01*
X0019484087Y0007159517D01*
X0019471080Y0007172525D01*
X0019461111Y0007193904D01*
X0019443952Y0007219586D01*
X0019440095Y0007238973D01*
X0019433847Y0007252372D01*
X0019426836Y0007305630D01*
X0019424922Y0007315257D01*
X0019424922Y0008615257D01*
X0019426834Y0008624872D01*
G37*
G36*
X0017576833Y0012824872D02*
G01*
X0017583847Y0012878138D01*
X0017590094Y0012891536D01*
X0017593952Y0012910927D01*
X0017611113Y0012936611D01*
X0017621080Y0012957988D01*
X0017634085Y0012970992D01*
X0017648145Y0012992033D01*
X0017669186Y0013006093D01*
X0017682190Y0013019097D01*
X0017703564Y0013029063D01*
X0017729250Y0013046227D01*
X0017748641Y0013050083D01*
X0017762037Y0013056330D01*
X0017815280Y0013063339D01*
X0017824922Y0013065257D01*
X0019124921Y0013065257D01*
X0019134552Y0013063341D01*
X0019187803Y0013056331D01*
X0019201197Y0013050083D01*
X0019220593Y0013046227D01*
X0019246281Y0013029062D01*
X0019267653Y0013019097D01*
X0019280654Y0013006095D01*
X0019301699Y0012992033D01*
X0019315759Y0012970989D01*
X0019328761Y0012957988D01*
X0019338727Y0012936616D01*
X0019355891Y0012910927D01*
X0019359749Y0012891534D01*
X0019365994Y0012878141D01*
X0019373002Y0012824900D01*
X0019374921Y0012815257D01*
X0019374921Y0012165256D01*
X0019373005Y0012155628D01*
X0019365996Y0012102375D01*
X0019359749Y0012088979D01*
X0019355891Y0012069586D01*
X0019338728Y0012043899D01*
X0019328761Y0012022525D01*
X0019315758Y0012009521D01*
X0019301699Y0011988480D01*
X0019280656Y0011974420D01*
X0019267653Y0011961416D01*
X0019246276Y0011951447D01*
X0019220593Y0011934286D01*
X0019201203Y0011930430D01*
X0019187806Y0011924183D01*
X0019134549Y0011917172D01*
X0019124921Y0011915256D01*
X0017824922Y0011915256D01*
X0017815306Y0011917169D01*
X0017762040Y0011924182D01*
X0017748640Y0011930430D01*
X0017729250Y0011934286D01*
X0017703569Y0011951445D01*
X0017682190Y0011961416D01*
X0017669182Y0011974421D01*
X0017648145Y0011988480D01*
X0017634087Y0012009518D01*
X0017621080Y0012022525D01*
X0017611111Y0012043903D01*
X0017593952Y0012069586D01*
X0017590094Y0012088974D01*
X0017583848Y0012102372D01*
X0017576836Y0012155630D01*
X0017574922Y0012165256D01*
X0017574922Y0012815257D01*
X0017576833Y0012824872D01*
G37*
G36*
X0017576833Y0015774872D02*
G01*
X0017583847Y0015828138D01*
X0017590094Y0015841535D01*
X0017593952Y0015860928D01*
X0017611113Y0015886611D01*
X0017621080Y0015907988D01*
X0017634085Y0015920991D01*
X0017648145Y0015942034D01*
X0017669186Y0015956093D01*
X0017682190Y0015969096D01*
X0017703564Y0015979064D01*
X0017729250Y0015996226D01*
X0017748641Y0016000084D01*
X0017762037Y0016006329D01*
X0017815280Y0016013339D01*
X0017824922Y0016015256D01*
X0019124921Y0016015256D01*
X0019134552Y0016013340D01*
X0019187803Y0016006331D01*
X0019201197Y0016000084D01*
X0019220593Y0015996226D01*
X0019246281Y0015979061D01*
X0019267653Y0015969096D01*
X0019280654Y0015956094D01*
X0019301699Y0015942034D01*
X0019315759Y0015920988D01*
X0019328761Y0015907988D01*
X0019338727Y0015886615D01*
X0019355891Y0015860928D01*
X0019359749Y0015841534D01*
X0019365994Y0015828141D01*
X0019373002Y0015774900D01*
X0019374921Y0015765256D01*
X0019374921Y0015115257D01*
X0019373005Y0015105628D01*
X0019365996Y0015052374D01*
X0019359749Y0015038978D01*
X0019355891Y0015019585D01*
X0019338728Y0014993898D01*
X0019328761Y0014972524D01*
X0019315758Y0014959521D01*
X0019301699Y0014938479D01*
X0019280656Y0014924419D01*
X0019267653Y0014911416D01*
X0019246276Y0014901446D01*
X0019220593Y0014884287D01*
X0019201203Y0014880429D01*
X0019187806Y0014874183D01*
X0019134549Y0014867171D01*
X0019124921Y0014865257D01*
X0017824922Y0014865257D01*
X0017815306Y0014867168D01*
X0017762040Y0014874181D01*
X0017748640Y0014880429D01*
X0017729250Y0014884287D01*
X0017703569Y0014901446D01*
X0017682190Y0014911416D01*
X0017669182Y0014924422D01*
X0017648145Y0014938479D01*
X0017634087Y0014959518D01*
X0017621080Y0014972524D01*
X0017611111Y0014993904D01*
X0017593952Y0015019585D01*
X0017590094Y0015038974D01*
X0017583848Y0015052371D01*
X0017576836Y0015105629D01*
X0017574922Y0015115257D01*
X0017574922Y0015765256D01*
X0017576833Y0015774872D01*
G37*
M02*