G04 #@! TF.GenerationSoftware,KiCad,Pcbnew,8.0.7*
G04 #@! TF.CreationDate,2025-06-23T12:01:53+08:00*
G04 #@! TF.ProjectId,Pagtingin_Final,50616774-696e-4676-996e-5f46696e616c,rev?*
G04 #@! TF.SameCoordinates,Original*
G04 #@! TF.FileFunction,Paste,Top*
G04 #@! TF.FilePolarity,Positive*
%FSLAX46Y46*%
G04 Gerber Fmt 4.6, Leading zero omitted, Abs format (unit mm)*
G04 Created by KiCad (PCBNEW 8.0.7) date 2025-06-23 12:01:53*
%MOMM*%
%LPD*%
G01*
G04 APERTURE LIST*
G04 Aperture macros list*
%AMRoundRect*
4,1,4,-3,2,-5,4,-7,6,-9,8,-3,2,0*
1,1,$1,$2,$3*
1,1,$1,$2,$3*
1,1,$1,$2,$3*
1,1,$1,$2,$3*
20,1,$1,$2,$3,$4,$5,90*
20,1,$1,$2,$3,$4,$5,90*
20,1,$1,$2,$3,$4,$5,90*
20,1,$1,$2,$3,$4,$5,90*%
G04 Aperture macros list end*
%ADD10C,0.01*%
%ADD11R,0.5X0.5*%
%ADD12R,0.808966X1.924966*%
%AMCOMP67*
4,1,3,
0.17,-0.14,
0.17,0.14,
-0.17,0.14,
-0.17,-0.14,
0*
4,1,19,
0.029999999999999992,-0.14,
0.036852087718678504,-0.096737620787507375,
0.056737620787507347,-0.05771006467905377,
0.087710064679053762,-0.026737620787507362,
0.12673762078750736,-0.00685208771867852,
0.17,-0.000000000000000010409154007490207,
0.21326237921249264,-0.0068520877186784976,
0.25228993532094623,-0.026737620787507368,
0.28326237921249264,-0.057710064679053763,
0.30314791228132154,-0.096737620787507375,
0.31000000000000005,-0.14,
0.30314791228132154,-0.18326237921249272,
0.2832623792124927,-0.22228993532094629,
0.25228993532094629,-0.25326237921249267,
0.21326237921249266,-0.27314791228132151,
0.17,-0.28,
0.12673762078750736,-0.27314791228132151,
0.087710064679053776,-0.25326237921249267,
0.056737620787507353,-0.22228993532094629,
0.0368520877186785,-0.18326237921249269,
0*
4,1,19,
0.030000000000000006,0.14,
0.036852087718678525,0.18326237921249267,
0.056737620787507367,0.22228993532094626,
0.087710064679053776,0.25326237921249267,
0.12673762078750739,0.27314791228132151,
0.17000000000000004,0.28,
0.21326237921249266,0.27314791228132151,
0.25228993532094623,0.25326237921249267,
0.28326237921249264,0.22228993532094624,
0.30314791228132154,0.18326237921249264,
0.31000000000000005,0.14,
0.30314791228132154,0.09673762078750732,
0.2832623792124927,0.057710064679053763,
0.25228993532094629,0.026737620787507355,
0.21326237921249269,0.0068520877186784993,
0.17000000000000004,-0.000000000000000010409154007490209,
0.12673762078750739,0.0068520877186784767,
0.08771006467905379,0.026737620787507334,
0.056737620787507374,0.057710064679053728,
0.036852087718678518,0.096737620787507334,
0*
4,1,19,
-0.31000000000000005,0.14000000000000004,
-0.30314791228132154,0.18326237921249269,
-0.28326237921249264,0.22228993532094629,
-0.25228993532094623,0.25326237921249267,
-0.21326237921249264,0.27314791228132151,
-0.16999999999999998,0.28,
-0.12673762078750736,0.27314791228132151,
-0.087710064679053762,0.25326237921249267,
-0.056737620787507353,0.22228993532094626,
-0.0368520877186785,0.18326237921249267,
-0.029999999999999992,0.14000000000000004,
-0.036852087718678504,0.096737620787507334,
-0.056737620787507333,0.057710064679053784,
-0.087710064679053748,0.026737620787507375,
-0.12673762078750733,0.00685208771867852,
-0.16999999999999998,0.000000000000000010409154007490206,
-0.21326237921249264,0.0068520877186784976,
-0.25228993532094623,0.026737620787507355,
-0.28326237921249264,0.057710064679053749,
-0.30314791228132154,0.096737620787507347,
0*
4,1,19,
-0.31000000000000005,-0.13999999999999999,
-0.30314791228132154,-0.096737620787507361,
-0.28326237921249264,-0.057710064679053749,
-0.25228993532094623,-0.026737620787507341,
-0.21326237921249266,-0.0068520877186784993,
-0.17,0.000000000000000010409154007490207,
-0.12673762078750739,-0.0068520877186784767,
-0.087710064679053776,-0.026737620787507348,
-0.056737620787507374,-0.057710064679053742,
-0.036852087718678518,-0.096737620787507361,
-0.030000000000000006,-0.13999999999999999,
-0.036852087718678525,-0.18326237921249269,
-0.056737620787507353,-0.22228993532094626,
-0.087710064679053762,-0.25326237921249267,
-0.12673762078750736,-0.27314791228132151,
-0.17,-0.28,
-0.21326237921249266,-0.27314791228132151,
-0.25228993532094623,-0.25326237921249267,
-0.28326237921249264,-0.22228993532094626,
-0.30314791228132154,-0.18326237921249267,
0*
4,1,3,
0.31000000000000005,-0.14000000000000004,
0.029999999999999992,-0.14,
0.030000000000000006,0.14,
0.31000000000000005,0.13999999999999999,
0*
4,1,3,
0.17000000000000004,0.28,
0.17,-0.000000000000000010409154007490207,
-0.17,0.000000000000000010409154007490207,
-0.16999999999999998,0.28,
0*
4,1,3,
-0.31000000000000005,0.14000000000000004,
-0.029999999999999992,0.14,
-0.030000000000000006,-0.14,
-0.31000000000000005,-0.13999999999999999,
0*
4,1,3,
-0.17000000000000004,-0.28,
-0.17,0.000000000000000010409154007490207,
0.17,-0.000000000000000010409154007490207,
0.16999999999999998,-0.28,
0*%
%ADD13COMP67,0.14X-0.14X-0.17X0.14X-0.17X0.14X0.17X-0.14X0.17X0*%
%AMCOMP68*
4,1,3,
-0.275,0.20000000000000004,
-0.275,-0.19999999999999998,
0.275,-0.20000000000000004,
0.275,0.19999999999999998,
0*
4,1,19,
-0.47500000000000003,0.20000000000000004,
-0.46521130325903071,0.26180339887498955,
-0.43680339887498953,0.31755705045849464,
-0.39255705045849465,0.36180339887498952,
-0.3368033988749895,0.39021130325903075,
-0.275,0.4,
-0.21319660112501052,0.39021130325903075,
-0.15744294954150537,0.36180339887498952,
-0.11319660112501052,0.31755705045849469,
-0.0847886967409693,0.26180339887498949,
-0.075,0.20000000000000004,
-0.0847886967409693,0.13819660112501048,
-0.11319660112501051,0.0824429495415054,
-0.15744294954150537,0.038196601125010533,
-0.21319660112501052,0.0097886967409693132,
-0.27499999999999997,0.000000000000000016838337365057685,
-0.33680339887498945,0.0097886967409692924,
-0.39255705045849459,0.038196601125010519,
-0.43680339887498953,0.082442949541505356,
-0.46521130325903071,0.1381966011250105,
0*
4,1,19,
-0.47500000000000003,-0.19999999999999998,
-0.46521130325903071,-0.1381966011250105,
-0.43680339887498953,-0.082442949541505356,
-0.39255705045849465,-0.038196601125010478,
-0.3368033988749895,-0.0097886967409692785,
-0.275,0.000000000000000016838337365057688,
-0.21319660112501054,-0.0097886967409692577,
-0.15744294954150539,-0.038196601125010492,
-0.11319660112501054,-0.082442949541505356,
-0.084788696740969324,-0.1381966011250105,
-0.075000000000000025,-0.19999999999999998,
-0.084788696740969324,-0.26180339887498955,
-0.11319660112501052,-0.31755705045849464,
-0.15744294954150539,-0.36180339887498947,
-0.21319660112501054,-0.39021130325903075,
-0.27499999999999997,-0.4,
-0.33680339887498945,-0.39021130325903075,
-0.39255705045849459,-0.36180339887498952,
-0.43680339887498953,-0.31755705045849469,
-0.46521130325903071,-0.26180339887498949,
0*
4,1,19,
0.075,-0.2,
0.0847886967409693,-0.13819660112501053,
0.11319660112501051,-0.082442949541505384,
0.15744294954150539,-0.038196601125010506,
0.21319660112501054,-0.0097886967409693132,
0.275,-0.000000000000000016838337365057688,
0.3368033988749895,-0.0097886967409692924,
0.39255705045849465,-0.038196601125010519,
0.43680339887498953,-0.082442949541505384,
0.46521130325903071,-0.13819660112501053,
0.47500000000000003,-0.2,
0.46521130325903071,-0.2618033988749896,
0.43680339887498953,-0.31755705045849464,
0.39255705045849465,-0.36180339887498947,
0.33680339887498956,-0.39021130325903075,
0.27500000000000008,-0.4,
0.21319660112501054,-0.39021130325903075,
0.15744294954150542,-0.36180339887498952,
0.11319660112501052,-0.31755705045849469,
0.0847886967409693,-0.26180339887498955,
0*
4,1,19,
0.075000000000000025,0.2,
0.084788696740969324,0.26180339887498949,
0.11319660112501052,0.31755705045849464,
0.15744294954150542,0.36180339887498952,
0.21319660112501057,0.39021130325903075,
0.275,0.4,
0.3368033988749895,0.39021130325903075,
0.39255705045849465,0.36180339887498952,
0.43680339887498953,0.31755705045849469,
0.46521130325903071,0.26180339887498943,
0.47500000000000003,0.2,
0.46521130325903071,0.13819660112501045,
0.43680339887498953,0.08244294954150537,
0.39255705045849465,0.038196601125010506,
0.33680339887498956,0.0097886967409692785,
0.27500000000000008,-0.000000000000000016838337365057691,
0.21319660112501057,0.0097886967409692577,
0.15744294954150545,0.038196601125010492,
0.11319660112501054,0.082442949541505328,
0.084788696740969324,0.13819660112501048,
0*
4,1,3,
-0.47500000000000003,0.20000000000000004,
-0.075,0.2,
-0.075000000000000025,-0.2,
-0.47500000000000003,-0.19999999999999998,
0*
4,1,3,
-0.275,-0.4,
-0.275,0.000000000000000016838337365057688,
0.275,-0.000000000000000016838337365057688,
0.275,-0.4,
0*
4,1,3,
0.47500000000000003,-0.20000000000000004,
0.075,-0.2,
0.075000000000000025,0.2,
0.47500000000000003,0.19999999999999998,
0*
4,1,3,
0.275,0.4,
0.275,-0.000000000000000016838337365057688,
-0.275,0.000000000000000016838337365057688,
-0.275,0.4,
0*%
%ADD14COMP68,0.2X0.2X0.275X-0.2X0.275X-0.2X-0.275X0.2X-0.275X0*%
%AMCOMP69*
4,1,3,
0.185,-0.135,
0.185,0.135,
-0.185,0.135,
-0.185,-0.135,
0*
4,1,19,
0.049999999999999982,-0.135,
0.056607370300154246,-0.0932827057593821,
0.075782705759382091,-0.05564899094051614,
0.10564899094051612,-0.025782705759382109,
0.1432827057593821,-0.0066073703001542725,
0.185,-0.00000000000000001132760877285699,
0.2267172942406179,-0.0066073703001542777,
0.26435100905948383,-0.025782705759382119,
0.29421729424061788,-0.05564899094051614,
0.31339262969984572,-0.0932827057593821,
0.32,-0.135,
0.31339262969984572,-0.17671729424061797,
0.29421729424061793,-0.2143510090594839,
0.26435100905948389,-0.24421729424061792,
0.2267172942406179,-0.26339262969984578,
0.185,-0.27,
0.1432827057593821,-0.26339262969984578,
0.10564899094051614,-0.24421729424061794,
0.075782705759382091,-0.2143510090594839,
0.056607370300154239,-0.17671729424061794,
0*
4,1,19,
0.049999999999999996,0.135,
0.056607370300154267,0.17671729424061791,
0.0757827057593821,0.2143510090594839,
0.10564899094051614,0.24421729424061792,
0.14328270575938212,0.26339262969984578,
0.18500000000000003,0.27,
0.22671729424061793,0.26339262969984578,
0.26435100905948383,0.24421729424061789,
0.29421729424061788,0.21435100905948387,
0.31339262969984572,0.17671729424061791,
0.32,0.135,
0.31339262969984572,0.093282705759382051,
0.29421729424061793,0.055648990940516126,
0.26435100905948389,0.0257827057593821,
0.22671729424061793,0.00660737030015425,
0.18500000000000003,-0.000000000000000011327608772856992,
0.14328270575938212,0.0066073703001542552,
0.10564899094051615,0.025782705759382067,
0.0757827057593821,0.0556489909405161,
0.05660737030015426,0.093282705759382079,
0*
4,1,19,
-0.32,0.13500000000000004,
-0.31339262969984572,0.17671729424061794,
-0.29421729424061793,0.21435100905948393,
-0.26435100905948389,0.24421729424061794,
-0.22671729424061787,0.26339262969984578,
-0.18499999999999997,0.27,
-0.14328270575938207,0.26339262969984578,
-0.10564899094051612,0.24421729424061792,
-0.075782705759382091,0.2143510090594839,
-0.056607370300154239,0.17671729424061794,
-0.049999999999999982,0.13500000000000004,
-0.056607370300154246,0.093282705759382065,
-0.075782705759382063,0.055648990940516153,
-0.10564899094051611,0.025782705759382123,
-0.14328270575938207,0.0066073703001542725,
-0.18499999999999997,0.000000000000000011327608772856987,
-0.22671729424061787,0.0066073703001542777,
-0.26435100905948383,0.025782705759382091,
-0.29421729424061788,0.055648990940516126,
-0.31339262969984572,0.093282705759382092,
0*
4,1,19,
-0.32,-0.13499999999999998,
-0.31339262969984572,-0.093282705759382092,
-0.29421729424061793,-0.055648990940516112,
-0.26435100905948389,-0.025782705759382085,
-0.2267172942406179,-0.00660737030015425,
-0.185,0.00000000000000001132760877285699,
-0.1432827057593821,-0.0066073703001542552,
-0.10564899094051614,-0.025782705759382095,
-0.0757827057593821,-0.055648990940516112,
-0.05660737030015426,-0.093282705759382092,
-0.049999999999999996,-0.13499999999999998,
-0.056607370300154267,-0.17671729424061794,
-0.075782705759382077,-0.21435100905948387,
-0.10564899094051612,-0.24421729424061789,
-0.1432827057593821,-0.26339262969984578,
-0.185,-0.27,
-0.2267172942406179,-0.26339262969984578,
-0.26435100905948383,-0.24421729424061792,
-0.29421729424061788,-0.21435100905948387,
-0.31339262969984572,-0.17671729424061791,
0*
4,1,3,
0.32,-0.13500000000000004,
0.049999999999999982,-0.135,
0.049999999999999996,0.135,
0.32,0.13499999999999998,
0*
4,1,3,
0.18500000000000003,0.27,
0.185,-0.00000000000000001132760877285699,
-0.185,0.00000000000000001132760877285699,
-0.18499999999999997,0.27,
0*
4,1,3,
-0.32,0.13500000000000004,
-0.049999999999999982,0.135,
-0.049999999999999996,-0.135,
-0.32,-0.13499999999999998,
0*
4,1,3,
-0.18500000000000003,-0.27,
-0.185,0.00000000000000001132760877285699,
0.185,-0.00000000000000001132760877285699,
0.18499999999999997,-0.27,
0*%
%ADD15COMP69,0.135X-0.135X-0.185X0.135X-0.185X0.135X0.185X-0.135X0.185X0*%
%AMCOMP70*
4,1,3,
0.275,-0.20000000000000004,
0.275,0.19999999999999998,
-0.275,0.20000000000000004,
-0.275,-0.19999999999999998,
0*
4,1,19,
0.075,-0.2,
0.0847886967409693,-0.13819660112501053,
0.11319660112501051,-0.082442949541505384,
0.15744294954150539,-0.038196601125010506,
0.21319660112501054,-0.0097886967409693132,
0.275,-0.000000000000000016838337365057688,
0.3368033988749895,-0.0097886967409692924,
0.39255705045849465,-0.038196601125010519,
0.43680339887498953,-0.082442949541505384,
0.46521130325903071,-0.13819660112501053,
0.47500000000000003,-0.2,
0.46521130325903071,-0.2618033988749896,
0.43680339887498953,-0.31755705045849464,
0.39255705045849465,-0.36180339887498947,
0.33680339887498956,-0.39021130325903075,
0.27500000000000008,-0.4,
0.21319660112501054,-0.39021130325903075,
0.15744294954150542,-0.36180339887498952,
0.11319660112501052,-0.31755705045849469,
0.0847886967409693,-0.26180339887498955,
0*
4,1,19,
0.075000000000000025,0.2,
0.084788696740969324,0.26180339887498949,
0.11319660112501052,0.31755705045849464,
0.15744294954150542,0.36180339887498952,
0.21319660112501057,0.39021130325903075,
0.275,0.4,
0.3368033988749895,0.39021130325903075,
0.39255705045849465,0.36180339887498952,
0.43680339887498953,0.31755705045849469,
0.46521130325903071,0.26180339887498943,
0.47500000000000003,0.2,
0.46521130325903071,0.13819660112501045,
0.43680339887498953,0.08244294954150537,
0.39255705045849465,0.038196601125010506,
0.33680339887498956,0.0097886967409692785,
0.27500000000000008,-0.000000000000000016838337365057691,
0.21319660112501057,0.0097886967409692577,
0.15744294954150545,0.038196601125010492,
0.11319660112501054,0.082442949541505328,
0.084788696740969324,0.13819660112501048,
0*
4,1,19,
-0.47500000000000003,0.20000000000000004,
-0.46521130325903071,0.26180339887498955,
-0.43680339887498953,0.31755705045849464,
-0.39255705045849465,0.36180339887498952,
-0.3368033988749895,0.39021130325903075,
-0.275,0.4,
-0.21319660112501052,0.39021130325903075,
-0.15744294954150537,0.36180339887498952,
-0.11319660112501052,0.31755705045849469,
-0.0847886967409693,0.26180339887498949,
-0.075,0.20000000000000004,
-0.0847886967409693,0.13819660112501048,
-0.11319660112501051,0.0824429495415054,
-0.15744294954150537,0.038196601125010533,
-0.21319660112501052,0.0097886967409693132,
-0.27499999999999997,0.000000000000000016838337365057685,
-0.33680339887498945,0.0097886967409692924,
-0.39255705045849459,0.038196601125010519,
-0.43680339887498953,0.082442949541505356,
-0.46521130325903071,0.1381966011250105,
0*
4,1,19,
-0.47500000000000003,-0.19999999999999998,
-0.46521130325903071,-0.1381966011250105,
-0.43680339887498953,-0.082442949541505356,
-0.39255705045849465,-0.038196601125010478,
-0.3368033988749895,-0.0097886967409692785,
-0.275,0.000000000000000016838337365057688,
-0.21319660112501054,-0.0097886967409692577,
-0.15744294954150539,-0.038196601125010492,
-0.11319660112501054,-0.082442949541505356,
-0.084788696740969324,-0.1381966011250105,
-0.075000000000000025,-0.19999999999999998,
-0.084788696740969324,-0.26180339887498955,
-0.11319660112501052,-0.31755705045849464,
-0.15744294954150539,-0.36180339887498947,
-0.21319660112501054,-0.39021130325903075,
-0.27499999999999997,-0.4,
-0.33680339887498945,-0.39021130325903075,
-0.39255705045849459,-0.36180339887498952,
-0.43680339887498953,-0.31755705045849469,
-0.46521130325903071,-0.26180339887498949,
0*
4,1,3,
0.47500000000000003,-0.20000000000000004,
0.075,-0.2,
0.075000000000000025,0.2,
0.47500000000000003,0.19999999999999998,
0*
4,1,3,
0.275,0.4,
0.275,-0.000000000000000016838337365057688,
-0.275,0.000000000000000016838337365057688,
-0.275,0.4,
0*
4,1,3,
-0.47500000000000003,0.20000000000000004,
-0.075,0.2,
-0.075000000000000025,-0.2,
-0.47500000000000003,-0.19999999999999998,
0*
4,1,3,
-0.275,-0.4,
-0.275,0.000000000000000016838337365057688,
0.275,-0.000000000000000016838337365057688,
0.275,-0.4,
0*%
%ADD16COMP70,0.2X-0.2X-0.275X0.2X-0.275X0.2X0.275X-0.2X0.275X0*%
%ADD17R,0.6X1.6*%
%AMCOMP71*
4,1,3,
-0.17,0.14,
-0.17,-0.14,
0.17,-0.14,
0.17,0.14,
0*
4,1,19,
-0.31000000000000005,0.14000000000000004,
-0.30314791228132154,0.18326237921249269,
-0.28326237921249264,0.22228993532094629,
-0.25228993532094623,0.25326237921249267,
-0.21326237921249264,0.27314791228132151,
-0.16999999999999998,0.28,
-0.12673762078750736,0.27314791228132151,
-0.087710064679053762,0.25326237921249267,
-0.056737620787507353,0.22228993532094626,
-0.0368520877186785,0.18326237921249267,
-0.029999999999999992,0.14000000000000004,
-0.036852087718678504,0.096737620787507334,
-0.056737620787507333,0.057710064679053784,
-0.087710064679053748,0.026737620787507375,
-0.12673762078750733,0.00685208771867852,
-0.16999999999999998,0.000000000000000010409154007490206,
-0.21326237921249264,0.0068520877186784976,
-0.25228993532094623,0.026737620787507355,
-0.28326237921249264,0.057710064679053749,
-0.30314791228132154,0.096737620787507347,
0*
4,1,19,
-0.31000000000000005,-0.13999999999999999,
-0.30314791228132154,-0.096737620787507361,
-0.28326237921249264,-0.057710064679053749,
-0.25228993532094623,-0.026737620787507341,
-0.21326237921249266,-0.0068520877186784993,
-0.17,0.000000000000000010409154007490207,
-0.12673762078750739,-0.0068520877186784767,
-0.087710064679053776,-0.026737620787507348,
-0.056737620787507374,-0.057710064679053742,
-0.036852087718678518,-0.096737620787507361,
-0.030000000000000006,-0.13999999999999999,
-0.036852087718678525,-0.18326237921249269,
-0.056737620787507353,-0.22228993532094626,
-0.087710064679053762,-0.25326237921249267,
-0.12673762078750736,-0.27314791228132151,
-0.17,-0.28,
-0.21326237921249266,-0.27314791228132151,
-0.25228993532094623,-0.25326237921249267,
-0.28326237921249264,-0.22228993532094626,
-0.30314791228132154,-0.18326237921249267,
0*
4,1,19,
0.029999999999999992,-0.14,
0.036852087718678504,-0.096737620787507375,
0.056737620787507347,-0.05771006467905377,
0.087710064679053762,-0.026737620787507362,
0.12673762078750736,-0.00685208771867852,
0.17,-0.000000000000000010409154007490207,
0.21326237921249264,-0.0068520877186784976,
0.25228993532094623,-0.026737620787507368,
0.28326237921249264,-0.057710064679053763,
0.30314791228132154,-0.096737620787507375,
0.31000000000000005,-0.14,
0.30314791228132154,-0.18326237921249272,
0.2832623792124927,-0.22228993532094629,
0.25228993532094629,-0.25326237921249267,
0.21326237921249266,-0.27314791228132151,
0.17,-0.28,
0.12673762078750736,-0.27314791228132151,
0.087710064679053776,-0.25326237921249267,
0.056737620787507353,-0.22228993532094629,
0.0368520877186785,-0.18326237921249269,
0*
4,1,19,
0.030000000000000006,0.14,
0.036852087718678525,0.18326237921249267,
0.056737620787507367,0.22228993532094626,
0.087710064679053776,0.25326237921249267,
0.12673762078750739,0.27314791228132151,
0.17000000000000004,0.28,
0.21326237921249266,0.27314791228132151,
0.25228993532094623,0.25326237921249267,
0.28326237921249264,0.22228993532094624,
0.30314791228132154,0.18326237921249264,
0.31000000000000005,0.14,
0.30314791228132154,0.09673762078750732,
0.2832623792124927,0.057710064679053763,
0.25228993532094629,0.026737620787507355,
0.21326237921249269,0.0068520877186784993,
0.17000000000000004,-0.000000000000000010409154007490209,
0.12673762078750739,0.0068520877186784767,
0.08771006467905379,0.026737620787507334,
0.056737620787507374,0.057710064679053728,
0.036852087718678518,0.096737620787507334,
0*
4,1,3,
-0.31000000000000005,0.14000000000000004,
-0.029999999999999992,0.14,
-0.030000000000000006,-0.14,
-0.31000000000000005,-0.13999999999999999,
0*
4,1,3,
-0.17000000000000004,-0.28,
-0.17,0.000000000000000010409154007490207,
0.17,-0.000000000000000010409154007490207,
0.16999999999999998,-0.28,
0*
4,1,3,
0.31000000000000005,-0.14000000000000004,
0.029999999999999992,-0.14,
0.030000000000000006,0.14,
0.31000000000000005,0.13999999999999999,
0*
4,1,3,
0.17000000000000004,0.28,
0.17,-0.000000000000000010409154007490207,
-0.17,0.000000000000000010409154007490207,
-0.16999999999999998,0.28,
0*%
%ADD18COMP71,0.14X0.14X0.17X-0.14X0.17X-0.14X-0.17X0.14X-0.17X0*%
%ADD19C,0.15*%
%AMCOMP72*
4,1,3,
0.285,-0.285,
0.285,0.285,
-0.285,0.285,
-0.285,-0.285,
0*
4,1,19,
0.034999999999999955,-0.285,
0.047235870926211579,-0.20774575140626311,
0.0827457514062631,-0.13805368692688169,
0.13805368692688169,-0.082745751406263127,
0.20774575140626311,-0.047235870926211607,
0.285,-0.034999999999999996,
0.36225424859373678,-0.047235870926211586,
0.43194631307311826,-0.082745751406263141,
0.48725424859373678,-0.13805368692688169,
0.52276412907378833,-0.20774575140626314,
0.53499999999999992,-0.285,
0.52276412907378833,-0.36225424859373695,
0.48725424859373689,-0.43194631307311832,
0.4319463130731182,-0.48725424859373678,
0.36225424859373684,-0.52276412907378833,
0.285,-0.53499999999999992,
0.20774575140626314,-0.52276412907378833,
0.13805368692688172,-0.48725424859373689,
0.082745751406263113,-0.43194631307311832,
0.047235870926211572,-0.36225424859373689,
0*
4,1,19,
0.034999999999999996,0.285,
0.047235870926211614,0.36225424859373684,
0.082745751406263141,0.43194631307311826,
0.13805368692688172,0.48725424859373684,
0.20774575140626314,0.52276412907378833,
0.28500000000000003,0.53499999999999992,
0.36225424859373684,0.52276412907378833,
0.43194631307311832,0.48725424859373684,
0.48725424859373678,0.4319463130731182,
0.52276412907378833,0.36225424859373678,
0.53499999999999992,0.285,
0.52276412907378833,0.20774575140626303,
0.48725424859373689,0.13805368692688169,
0.43194631307311826,0.082745751406263113,
0.36225424859373689,0.047235870926211572,
0.28500000000000003,0.034999999999999955,
0.20774575140626317,0.047235870926211551,
0.13805368692688175,0.082745751406263071,
0.082745751406263154,0.13805368692688164,
0.047235870926211607,0.20774575140626306,
0*
4,1,19,
-0.53499999999999992,0.28500000000000003,
-0.52276412907378833,0.36225424859373689,
-0.48725424859373684,0.43194631307311832,
-0.4319463130731182,0.48725424859373684,
-0.36225424859373678,0.52276412907378833,
-0.28499999999999992,0.53499999999999992,
-0.20774575140626311,0.52276412907378833,
-0.13805368692688169,0.48725424859373684,
-0.082745751406263113,0.43194631307311826,
-0.047235870926211572,0.36225424859373684,
-0.034999999999999955,0.28500000000000003,
-0.047235870926211579,0.20774575140626306,
-0.082745751406263071,0.13805368692688172,
-0.13805368692688166,0.082745751406263154,
-0.20774575140626309,0.047235870926211607,
-0.28499999999999992,0.034999999999999996,
-0.36225424859373678,0.047235870926211586,
-0.4319463130731182,0.082745751406263113,
-0.48725424859373678,0.13805368692688166,
-0.52276412907378833,0.20774575140626309,
0*
4,1,19,
-0.53499999999999992,-0.28499999999999992,
-0.52276412907378833,-0.20774575140626309,
-0.48725424859373684,-0.13805368692688166,
-0.43194631307311826,-0.082745751406263085,
-0.36225424859373684,-0.047235870926211572,
-0.285,-0.034999999999999955,
-0.20774575140626314,-0.047235870926211551,
-0.13805368692688172,-0.0827457514062631,
-0.082745751406263154,-0.13805368692688166,
-0.047235870926211607,-0.20774575140626311,
-0.034999999999999996,-0.28499999999999992,
-0.047235870926211614,-0.36225424859373689,
-0.082745751406263113,-0.43194631307311826,
-0.13805368692688169,-0.48725424859373678,
-0.20774575140626311,-0.52276412907378833,
-0.285,-0.53499999999999992,
-0.36225424859373684,-0.52276412907378833,
-0.43194631307311826,-0.48725424859373689,
-0.48725424859373678,-0.43194631307311826,
-0.52276412907378833,-0.36225424859373684,
0*
4,1,3,
0.53499999999999992,-0.28500000000000003,
0.034999999999999955,-0.285,
0.034999999999999996,0.285,
0.53499999999999992,0.28499999999999992,
0*
4,1,3,
0.28500000000000003,0.53499999999999992,
0.285,0.034999999999999955,
-0.285,0.034999999999999996,
-0.28499999999999992,0.53499999999999992,
0*
4,1,3,
-0.53499999999999992,0.28500000000000003,
-0.034999999999999955,0.285,
-0.034999999999999996,-0.285,
-0.53499999999999992,-0.28499999999999992,
0*
4,1,3,
-0.28500000000000003,-0.53499999999999992,
-0.285,-0.034999999999999955,
0.285,-0.034999999999999996,
0.28499999999999992,-0.53499999999999992,
0*%
%ADD20COMP72,0.25X-0.285X-0.285X0.285X-0.285X0.285X0.285X-0.285X0.285X0*%
%AMCOMP73*
4,1,3,
0.062499999999999979,-0.3375,
0.062500000000000014,0.3375,
-0.062499999999999979,0.3375,
-0.062500000000000014,-0.3375,
0*
4,1,19,
-0.000000000000000020665232220752617,-0.3375,
0.0030589677315528848,-0.31818643785156581,
0.011936437851565765,-0.30076342173172044,
0.025763421731720412,-0.28693643785156581,
0.04318643785156577,-0.27805896773155292,
0.062499999999999979,-0.275,
0.0818135621484342,-0.27805896773155292,
0.099236578268279543,-0.28693643785156581,
0.1130635621484342,-0.30076342173172044,
0.12194103226844709,-0.31818643785156581,
0.12499999999999999,-0.3375,
0.12194103226844707,-0.35681356214843424,
0.11306356214843419,-0.37423657826827961,
0.099236578268279557,-0.38806356214843424,
0.081813562148434188,-0.39694103226844712,
0.062499999999999986,-0.4,
0.04318643785156577,-0.39694103226844712,
0.025763421731720419,-0.38806356214843424,
0.011936437851565769,-0.37423657826827961,
0.0030589677315528826,-0.35681356214843424,
0*
4,1,19,
0.000000000000000020665232220752617,0.3375,
0.003058967731552926,0.35681356214843424,
0.011936437851565807,0.37423657826827961,
0.025763421731720453,0.38806356214843424,
0.043186437851565812,0.39694103226844712,
0.062500000000000014,0.4,
0.081813562148434243,0.39694103226844712,
0.099236578268279585,0.38806356214843424,
0.11306356214843424,0.37423657826827961,
0.12194103226844713,0.35681356214843424,
0.12500000000000003,0.3375,
0.12194103226844712,0.31818643785156581,
0.11306356214843423,0.30076342173172044,
0.0992365782682796,0.28693643785156581,
0.08181356214843423,0.27805896773155292,
0.062500000000000028,0.275,
0.043186437851565812,0.27805896773155292,
0.02576342173172046,0.28693643785156581,
0.01193643785156581,0.30076342173172044,
0.0030589677315529238,0.31818643785156581,
0*
4,1,19,
-0.12499999999999999,0.3375,
-0.12194103226844707,0.35681356214843424,
-0.11306356214843419,0.37423657826827961,
-0.099236578268279543,0.38806356214843424,
-0.081813562148434188,0.39694103226844712,
-0.062499999999999972,0.4,
-0.043186437851565763,0.39694103226844712,
-0.025763421731720412,0.38806356214843424,
-0.011936437851565769,0.37423657826827961,
-0.0030589677315528826,0.35681356214843424,
0.000000000000000020665232220752617,0.3375,
-0.0030589677315528848,0.31818643785156581,
-0.011936437851565758,0.30076342173172044,
-0.025763421731720405,0.28693643785156581,
-0.043186437851565763,0.27805896773155292,
-0.062499999999999972,0.275,
-0.081813562148434188,0.27805896773155292,
-0.099236578268279543,0.28693643785156581,
-0.1130635621484342,0.30076342173172044,
-0.12194103226844709,0.31818643785156581,
0*
4,1,19,
-0.12500000000000003,-0.3375,
-0.12194103226844712,-0.31818643785156581,
-0.11306356214843423,-0.30076342173172044,
-0.099236578268279585,-0.28693643785156581,
-0.08181356214843423,-0.27805896773155292,
-0.062500000000000014,-0.275,
-0.043186437851565805,-0.27805896773155292,
-0.025763421731720453,-0.28693643785156581,
-0.01193643785156581,-0.30076342173172044,
-0.0030589677315529238,-0.31818643785156581,
-0.000000000000000020665232220752617,-0.3375,
-0.003058967731552926,-0.35681356214843424,
-0.0119364378515658,-0.37423657826827961,
-0.025763421731720446,-0.38806356214843424,
-0.043186437851565805,-0.39694103226844712,
-0.062500000000000014,-0.4,
-0.08181356214843423,-0.39694103226844712,
-0.099236578268279585,-0.38806356214843424,
-0.11306356214843424,-0.37423657826827961,
-0.12194103226844713,-0.35681356214843424,
0*
4,1,3,
0.12499999999999999,-0.3375,
-0.000000000000000020665232220752617,-0.3375,
0.000000000000000020665232220752617,0.3375,
0.12500000000000003,0.3375,
0*
4,1,3,
0.062500000000000028,0.4,
0.062500000000000014,0.275,
-0.062499999999999986,0.275,
-0.062499999999999965,0.4,
0*
4,1,3,
-0.12499999999999999,0.3375,
0.000000000000000020665232220752617,0.3375,
-0.000000000000000020665232220752617,-0.3375,
-0.12500000000000003,-0.3375,
0*
4,1,3,
-0.062500000000000028,-0.4,
-0.062500000000000014,-0.275,
0.062499999999999986,-0.275,
0.062499999999999965,-0.4,
0*%
%ADD21COMP73,0.0625X-0.3375X-0.0625X0.3375X-0.0625X0.3375X0.0625X-0.3375X0.0625X0*%
%AMCOMP74*
4,1,3,
0.3375,0.062499999999999979,
-0.3375,0.062500000000000014,
-0.3375,-0.062499999999999979,
0.3375,-0.062500000000000014,
0*
4,1,19,
0.275,0.062499999999999986,
0.27805896773155292,0.0818135621484342,
0.28693643785156581,0.099236578268279557,
0.30076342173172044,0.1130635621484342,
0.31818643785156581,0.12194103226844709,
0.3375,0.12499999999999999,
0.35681356214843424,0.12194103226844707,
0.37423657826827961,0.11306356214843419,
0.38806356214843424,0.099236578268279557,
0.39694103226844712,0.081813562148434188,
0.4,0.062499999999999986,
0.39694103226844712,0.043186437851565743,
0.38806356214843424,0.025763421731720412,
0.37423657826827961,0.011936437851565769,
0.35681356214843424,0.0030589677315528826,
0.3375,-0.000000000000000020665232220752617,
0.31818643785156581,0.0030589677315528778,
0.30076342173172044,0.011936437851565758,
0.28693643785156581,0.025763421731720398,
0.27805896773155292,0.043186437851565757,
0*
4,1,19,
-0.4,0.062500000000000028,
-0.39694103226844712,0.081813562148434243,
-0.38806356214843424,0.0992365782682796,
-0.37423657826827961,0.11306356214843424,
-0.35681356214843424,0.12194103226844713,
-0.3375,0.12500000000000003,
-0.31818643785156581,0.12194103226844712,
-0.30076342173172044,0.11306356214843423,
-0.28693643785156581,0.0992365782682796,
-0.27805896773155292,0.08181356214843423,
-0.275,0.062500000000000028,
-0.27805896773155292,0.043186437851565784,
-0.28693643785156581,0.025763421731720453,
-0.30076342173172044,0.01193643785156581,
-0.31818643785156581,0.0030589677315529238,
-0.3375,0.000000000000000020665232220752617,
-0.35681356214843424,0.003058967731552919,
-0.37423657826827961,0.0119364378515658,
-0.38806356214843424,0.025763421731720439,
-0.39694103226844712,0.0431864378515658,
0*
4,1,19,
-0.4,-0.062499999999999972,
-0.39694103226844712,-0.043186437851565757,
-0.38806356214843424,-0.025763421731720405,
-0.37423657826827961,-0.011936437851565762,
-0.35681356214843424,-0.0030589677315528826,
-0.3375,0.000000000000000020665232220752617,
-0.31818643785156581,-0.0030589677315528778,
-0.30076342173172044,-0.011936437851565765,
-0.28693643785156581,-0.025763421731720405,
-0.27805896773155292,-0.04318643785156577,
-0.275,-0.062499999999999979,
-0.27805896773155292,-0.081813562148434216,
-0.28693643785156581,-0.099236578268279543,
-0.30076342173172044,-0.1130635621484342,
-0.31818643785156581,-0.12194103226844709,
-0.3375,-0.12499999999999999,
-0.35681356214843424,-0.12194103226844707,
-0.37423657826827961,-0.11306356214843419,
-0.38806356214843424,-0.099236578268279557,
-0.39694103226844712,-0.0818135621484342,
0*
4,1,19,
0.275,-0.062500000000000014,
0.27805896773155292,-0.0431864378515658,
0.28693643785156581,-0.025763421731720446,
0.30076342173172044,-0.011936437851565803,
0.31818643785156581,-0.0030589677315529238,
0.3375,-0.000000000000000020665232220752617,
0.35681356214843424,-0.003058967731552919,
0.37423657826827961,-0.011936437851565807,
0.38806356214843424,-0.025763421731720446,
0.39694103226844712,-0.043186437851565812,
0.4,-0.062500000000000014,
0.39694103226844712,-0.081813562148434257,
0.38806356214843424,-0.099236578268279585,
0.37423657826827961,-0.11306356214843424,
0.35681356214843424,-0.12194103226844713,
0.3375,-0.12500000000000003,
0.31818643785156581,-0.12194103226844712,
0.30076342173172044,-0.11306356214843423,
0.28693643785156581,-0.0992365782682796,
0.27805896773155292,-0.081813562148434243,
0*
4,1,3,
0.3375,0.12499999999999999,
0.3375,-0.000000000000000020665232220752617,
-0.3375,0.000000000000000020665232220752617,
-0.3375,0.12500000000000003,
0*
4,1,3,
-0.4,0.062500000000000028,
-0.275,0.062500000000000014,
-0.275,-0.062499999999999986,
-0.4,-0.062499999999999965,
0*
4,1,3,
-0.3375,-0.12499999999999999,
-0.3375,0.000000000000000020665232220752617,
0.3375,-0.000000000000000020665232220752617,
0.3375,-0.12500000000000003,
0*
4,1,3,
0.4,-0.062500000000000028,
0.275,-0.062500000000000014,
0.275,0.062499999999999986,
0.4,0.062499999999999965,
0*%
%ADD22COMP74,0.0625X0.0625X-0.3375X0.0625X0.3375X-0.0625X0.3375X-0.0625X-0.3375X0*%
%AMCOMP75*
4,1,3,
-0.062499999999999979,0.3375,
-0.062500000000000014,-0.3375,
0.062499999999999979,-0.3375,
0.062500000000000014,0.3375,
0*
4,1,19,
-0.12499999999999999,0.3375,
-0.12194103226844707,0.35681356214843424,
-0.11306356214843419,0.37423657826827961,
-0.099236578268279543,0.38806356214843424,
-0.081813562148434188,0.39694103226844712,
-0.062499999999999972,0.4,
-0.043186437851565763,0.39694103226844712,
-0.025763421731720412,0.38806356214843424,
-0.011936437851565769,0.37423657826827961,
-0.0030589677315528826,0.35681356214843424,
0.000000000000000020665232220752617,0.3375,
-0.0030589677315528848,0.31818643785156581,
-0.011936437851565758,0.30076342173172044,
-0.025763421731720405,0.28693643785156581,
-0.043186437851565763,0.27805896773155292,
-0.062499999999999972,0.275,
-0.081813562148434188,0.27805896773155292,
-0.099236578268279543,0.28693643785156581,
-0.1130635621484342,0.30076342173172044,
-0.12194103226844709,0.31818643785156581,
0*
4,1,19,
-0.12500000000000003,-0.3375,
-0.12194103226844712,-0.31818643785156581,
-0.11306356214843423,-0.30076342173172044,
-0.099236578268279585,-0.28693643785156581,
-0.08181356214843423,-0.27805896773155292,
-0.062500000000000014,-0.275,
-0.043186437851565805,-0.27805896773155292,
-0.025763421731720453,-0.28693643785156581,
-0.01193643785156581,-0.30076342173172044,
-0.0030589677315529238,-0.31818643785156581,
-0.000000000000000020665232220752617,-0.3375,
-0.003058967731552926,-0.35681356214843424,
-0.0119364378515658,-0.37423657826827961,
-0.025763421731720446,-0.38806356214843424,
-0.043186437851565805,-0.39694103226844712,
-0.062500000000000014,-0.4,
-0.08181356214843423,-0.39694103226844712,
-0.099236578268279585,-0.38806356214843424,
-0.11306356214843424,-0.37423657826827961,
-0.12194103226844713,-0.35681356214843424,
0*
4,1,19,
-0.000000000000000020665232220752617,-0.3375,
0.0030589677315528848,-0.31818643785156581,
0.011936437851565765,-0.30076342173172044,
0.025763421731720412,-0.28693643785156581,
0.04318643785156577,-0.27805896773155292,
0.062499999999999979,-0.275,
0.0818135621484342,-0.27805896773155292,
0.099236578268279543,-0.28693643785156581,
0.1130635621484342,-0.30076342173172044,
0.12194103226844709,-0.31818643785156581,
0.12499999999999999,-0.3375,
0.12194103226844707,-0.35681356214843424,
0.11306356214843419,-0.37423657826827961,
0.099236578268279557,-0.38806356214843424,
0.081813562148434188,-0.39694103226844712,
0.062499999999999986,-0.4,
0.04318643785156577,-0.39694103226844712,
0.025763421731720419,-0.38806356214843424,
0.011936437851565769,-0.37423657826827961,
0.0030589677315528826,-0.35681356214843424,
0*
4,1,19,
0.000000000000000020665232220752617,0.3375,
0.003058967731552926,0.35681356214843424,
0.011936437851565807,0.37423657826827961,
0.025763421731720453,0.38806356214843424,
0.043186437851565812,0.39694103226844712,
0.062500000000000014,0.4,
0.081813562148434243,0.39694103226844712,
0.099236578268279585,0.38806356214843424,
0.11306356214843424,0.37423657826827961,
0.12194103226844713,0.35681356214843424,
0.12500000000000003,0.3375,
0.12194103226844712,0.31818643785156581,
0.11306356214843423,0.30076342173172044,
0.0992365782682796,0.28693643785156581,
0.08181356214843423,0.27805896773155292,
0.062500000000000028,0.275,
0.043186437851565812,0.27805896773155292,
0.02576342173172046,0.28693643785156581,
0.01193643785156581,0.30076342173172044,
0.0030589677315529238,0.31818643785156581,
0*
4,1,3,
-0.12499999999999999,0.3375,
0.000000000000000020665232220752617,0.3375,
-0.000000000000000020665232220752617,-0.3375,
-0.12500000000000003,-0.3375,
0*
4,1,3,
-0.062500000000000028,-0.4,
-0.062500000000000014,-0.275,
0.062499999999999986,-0.275,
0.062499999999999965,-0.4,
0*
4,1,3,
0.12499999999999999,-0.3375,
-0.000000000000000020665232220752617,-0.3375,
0.000000000000000020665232220752617,0.3375,
0.12500000000000003,0.3375,
0*
4,1,3,
0.062500000000000028,0.4,
0.062500000000000014,0.275,
-0.062499999999999986,0.275,
-0.062499999999999965,0.4,
0*%
%ADD23COMP75,0.0625X0.3375X0.0625X-0.3375X0.0625X-0.3375X-0.0625X0.3375X-0.0625X0*%
%AMCOMP76*
4,1,3,
0.3375,-0.062500000000000014,
0.3375,0.062499999999999979,
-0.3375,0.062500000000000014,
-0.3375,-0.062499999999999979,
0*
4,1,19,
0.275,-0.062500000000000014,
0.27805896773155292,-0.0431864378515658,
0.28693643785156581,-0.025763421731720446,
0.30076342173172044,-0.011936437851565803,
0.31818643785156581,-0.0030589677315529238,
0.3375,-0.000000000000000020665232220752617,
0.35681356214843424,-0.003058967731552919,
0.37423657826827961,-0.011936437851565807,
0.38806356214843424,-0.025763421731720446,
0.39694103226844712,-0.043186437851565812,
0.4,-0.062500000000000014,
0.39694103226844712,-0.081813562148434257,
0.38806356214843424,-0.099236578268279585,
0.37423657826827961,-0.11306356214843424,
0.35681356214843424,-0.12194103226844713,
0.3375,-0.12500000000000003,
0.31818643785156581,-0.12194103226844712,
0.30076342173172044,-0.11306356214843423,
0.28693643785156581,-0.0992365782682796,
0.27805896773155292,-0.081813562148434243,
0*
4,1,19,
0.275,0.062499999999999986,
0.27805896773155292,0.0818135621484342,
0.28693643785156581,0.099236578268279557,
0.30076342173172044,0.1130635621484342,
0.31818643785156581,0.12194103226844709,
0.3375,0.12499999999999999,
0.35681356214843424,0.12194103226844707,
0.37423657826827961,0.11306356214843419,
0.38806356214843424,0.099236578268279557,
0.39694103226844712,0.081813562148434188,
0.4,0.062499999999999986,
0.39694103226844712,0.043186437851565743,
0.38806356214843424,0.025763421731720412,
0.37423657826827961,0.011936437851565769,
0.35681356214843424,0.0030589677315528826,
0.3375,-0.000000000000000020665232220752617,
0.31818643785156581,0.0030589677315528778,
0.30076342173172044,0.011936437851565758,
0.28693643785156581,0.025763421731720398,
0.27805896773155292,0.043186437851565757,
0*
4,1,19,
-0.4,0.062500000000000028,
-0.39694103226844712,0.081813562148434243,
-0.38806356214843424,0.0992365782682796,
-0.37423657826827961,0.11306356214843424,
-0.35681356214843424,0.12194103226844713,
-0.3375,0.12500000000000003,
-0.31818643785156581,0.12194103226844712,
-0.30076342173172044,0.11306356214843423,
-0.28693643785156581,0.0992365782682796,
-0.27805896773155292,0.08181356214843423,
-0.275,0.062500000000000028,
-0.27805896773155292,0.043186437851565784,
-0.28693643785156581,0.025763421731720453,
-0.30076342173172044,0.01193643785156581,
-0.31818643785156581,0.0030589677315529238,
-0.3375,0.000000000000000020665232220752617,
-0.35681356214843424,0.003058967731552919,
-0.37423657826827961,0.0119364378515658,
-0.38806356214843424,0.025763421731720439,
-0.39694103226844712,0.0431864378515658,
0*
4,1,19,
-0.4,-0.062499999999999972,
-0.39694103226844712,-0.043186437851565757,
-0.38806356214843424,-0.025763421731720405,
-0.37423657826827961,-0.011936437851565762,
-0.35681356214843424,-0.0030589677315528826,
-0.3375,0.000000000000000020665232220752617,
-0.31818643785156581,-0.0030589677315528778,
-0.30076342173172044,-0.011936437851565765,
-0.28693643785156581,-0.025763421731720405,
-0.27805896773155292,-0.04318643785156577,
-0.275,-0.062499999999999979,
-0.27805896773155292,-0.081813562148434216,
-0.28693643785156581,-0.099236578268279543,
-0.30076342173172044,-0.1130635621484342,
-0.31818643785156581,-0.12194103226844709,
-0.3375,-0.12499999999999999,
-0.35681356214843424,-0.12194103226844707,
-0.37423657826827961,-0.11306356214843419,
-0.38806356214843424,-0.099236578268279557,
-0.39694103226844712,-0.0818135621484342,
0*
4,1,3,
0.4,-0.062500000000000028,
0.275,-0.062500000000000014,
0.275,0.062499999999999986,
0.4,0.062499999999999965,
0*
4,1,3,
0.3375,0.12499999999999999,
0.3375,-0.000000000000000020665232220752617,
-0.3375,0.000000000000000020665232220752617,
-0.3375,0.12500000000000003,
0*
4,1,3,
-0.4,0.062500000000000028,
-0.275,0.062500000000000014,
-0.275,-0.062499999999999986,
-0.4,-0.062499999999999965,
0*
4,1,3,
-0.3375,-0.12499999999999999,
-0.3375,0.000000000000000020665232220752617,
0.3375,-0.000000000000000020665232220752617,
0.3375,-0.12500000000000003,
0*%
%ADD24COMP76,0.0625X-0.0625X-0.3375X0.0625X-0.3375X0.0625X0.3375X-0.0625X0.3375X0*%
%AMCOMP77*
4,1,3,
0.062500000000000014,0.3375,
-0.062499999999999979,0.3375,
-0.062500000000000014,-0.3375,
0.062499999999999979,-0.3375,
0*
4,1,19,
0.000000000000000020665232220752617,0.3375,
0.003058967731552926,0.35681356214843424,
0.011936437851565807,0.37423657826827961,
0.025763421731720453,0.38806356214843424,
0.043186437851565812,0.39694103226844712,
0.062500000000000014,0.4,
0.081813562148434243,0.39694103226844712,
0.099236578268279585,0.38806356214843424,
0.11306356214843424,0.37423657826827961,
0.12194103226844713,0.35681356214843424,
0.12500000000000003,0.3375,
0.12194103226844712,0.31818643785156581,
0.11306356214843423,0.30076342173172044,
0.0992365782682796,0.28693643785156581,
0.08181356214843423,0.27805896773155292,
0.062500000000000028,0.275,
0.043186437851565812,0.27805896773155292,
0.02576342173172046,0.28693643785156581,
0.01193643785156581,0.30076342173172044,
0.0030589677315529238,0.31818643785156581,
0*
4,1,19,
-0.12499999999999999,0.3375,
-0.12194103226844707,0.35681356214843424,
-0.11306356214843419,0.37423657826827961,
-0.099236578268279543,0.38806356214843424,
-0.081813562148434188,0.39694103226844712,
-0.062499999999999972,0.4,
-0.043186437851565763,0.39694103226844712,
-0.025763421731720412,0.38806356214843424,
-0.011936437851565769,0.37423657826827961,
-0.0030589677315528826,0.35681356214843424,
0.000000000000000020665232220752617,0.3375,
-0.0030589677315528848,0.31818643785156581,
-0.011936437851565758,0.30076342173172044,
-0.025763421731720405,0.28693643785156581,
-0.043186437851565763,0.27805896773155292,
-0.062499999999999972,0.275,
-0.081813562148434188,0.27805896773155292,
-0.099236578268279543,0.28693643785156581,
-0.1130635621484342,0.30076342173172044,
-0.12194103226844709,0.31818643785156581,
0*
4,1,19,
-0.12500000000000003,-0.3375,
-0.12194103226844712,-0.31818643785156581,
-0.11306356214843423,-0.30076342173172044,
-0.099236578268279585,-0.28693643785156581,
-0.08181356214843423,-0.27805896773155292,
-0.062500000000000014,-0.275,
-0.043186437851565805,-0.27805896773155292,
-0.025763421731720453,-0.28693643785156581,
-0.01193643785156581,-0.30076342173172044,
-0.0030589677315529238,-0.31818643785156581,
-0.000000000000000020665232220752617,-0.3375,
-0.003058967731552926,-0.35681356214843424,
-0.0119364378515658,-0.37423657826827961,
-0.025763421731720446,-0.38806356214843424,
-0.043186437851565805,-0.39694103226844712,
-0.062500000000000014,-0.4,
-0.08181356214843423,-0.39694103226844712,
-0.099236578268279585,-0.38806356214843424,
-0.11306356214843424,-0.37423657826827961,
-0.12194103226844713,-0.35681356214843424,
0*
4,1,19,
-0.000000000000000020665232220752617,-0.3375,
0.0030589677315528848,-0.31818643785156581,
0.011936437851565765,-0.30076342173172044,
0.025763421731720412,-0.28693643785156581,
0.04318643785156577,-0.27805896773155292,
0.062499999999999979,-0.275,
0.0818135621484342,-0.27805896773155292,
0.099236578268279543,-0.28693643785156581,
0.1130635621484342,-0.30076342173172044,
0.12194103226844709,-0.31818643785156581,
0.12499999999999999,-0.3375,
0.12194103226844707,-0.35681356214843424,
0.11306356214843419,-0.37423657826827961,
0.099236578268279557,-0.38806356214843424,
0.081813562148434188,-0.39694103226844712,
0.062499999999999986,-0.4,
0.04318643785156577,-0.39694103226844712,
0.025763421731720419,-0.38806356214843424,
0.011936437851565769,-0.37423657826827961,
0.0030589677315528826,-0.35681356214843424,
0*
4,1,3,
0.062500000000000028,0.4,
0.062500000000000014,0.275,
-0.062499999999999986,0.275,
-0.062499999999999965,0.4,
0*
4,1,3,
-0.12499999999999999,0.3375,
0.000000000000000020665232220752617,0.3375,
-0.000000000000000020665232220752617,-0.3375,
-0.12500000000000003,-0.3375,
0*
4,1,3,
-0.062500000000000028,-0.4,
-0.062500000000000014,-0.275,
0.062499999999999986,-0.275,
0.062499999999999965,-0.4,
0*
4,1,3,
0.12499999999999999,-0.3375,
-0.000000000000000020665232220752617,-0.3375,
0.000000000000000020665232220752617,0.3375,
0.12500000000000003,0.3375,
0*%
%ADD25COMP77,0.0625X0.3375X-0.0625X0.3375X0.0625X-0.3375X0.0625X-0.3375X-0.0625X0*%
%AMCOMP78*
4,1,3,
0.65,-0.32500000000000007,
0.65,0.32499999999999996,
-0.65,0.32500000000000007,
-0.65,-0.32499999999999996,
0*
4,1,19,
0.4,-0.325,
0.41223587092621161,-0.24774575140626318,
0.44774575140626316,-0.17805368692688175,
0.50305368692688179,-0.12274575140626318,
0.57274575140626316,-0.08723587092621167,
0.65,-0.075000000000000053,
0.72725424859373689,-0.087235870926211642,
0.79694631307311825,-0.1227457514062632,
0.85225424859373689,-0.17805368692688175,
0.88776412907378843,-0.2477457514062632,
0.9,-0.325,
0.88776412907378843,-0.402254248593737,
0.85225424859373689,-0.47194631307311835,
0.79694631307311836,-0.52725424859373682,
0.72725424859373689,-0.56276412907378837,
0.65,-0.575,
0.57274575140626327,-0.56276412907378837,
0.50305368692688179,-0.52725424859373693,
0.4477457514062631,-0.47194631307311835,
0.41223587092621161,-0.40225424859373693,
0*
4,1,19,
0.4,0.325,
0.41223587092621161,0.40225424859373687,
0.44774575140626321,0.4719463130731183,
0.50305368692688179,0.52725424859373682,
0.57274575140626316,0.56276412907378837,
0.65,0.575,
0.72725424859373689,0.56276412907378837,
0.79694631307311825,0.52725424859373682,
0.85225424859373689,0.47194631307311824,
0.88776412907378843,0.40225424859373682,
0.9,0.325,
0.88776412907378843,0.24774575140626304,
0.85225424859373689,0.1780536869268817,
0.79694631307311836,0.12274575140626312,
0.72725424859373689,0.087235870926211587,
0.65,0.074999999999999969,
0.57274575140626327,0.087235870926211559,
0.50305368692688179,0.12274575140626309,
0.44774575140626316,0.17805368692688164,
0.41223587092621161,0.24774575140626307,
0*
4,1,19,
-0.9,0.32500000000000007,
-0.88776412907378843,0.40225424859373693,
-0.85225424859373689,0.47194631307311835,
-0.79694631307311825,0.52725424859373682,
-0.72725424859373689,0.56276412907378837,
-0.65,0.575,
-0.57274575140626316,0.56276412907378837,
-0.50305368692688179,0.52725424859373682,
-0.4477457514062631,0.4719463130731183,
-0.41223587092621161,0.40225424859373687,
-0.4,0.32500000000000007,
-0.41223587092621161,0.24774575140626312,
-0.44774575140626316,0.17805368692688178,
-0.50305368692688168,0.1227457514062632,
-0.57274575140626316,0.08723587092621167,
-0.65,0.075000000000000053,
-0.72725424859373677,0.087235870926211642,
-0.79694631307311825,0.12274575140626318,
-0.85225424859373689,0.17805368692688173,
-0.88776412907378843,0.24774575140626315,
0*
4,1,19,
-0.9,-0.32499999999999996,
-0.88776412907378843,-0.24774575140626309,
-0.85225424859373689,-0.17805368692688167,
-0.79694631307311825,-0.12274575140626309,
-0.72725424859373689,-0.087235870926211587,
-0.65,-0.074999999999999969,
-0.57274575140626316,-0.087235870926211559,
-0.50305368692688179,-0.12274575140626312,
-0.44774575140626316,-0.17805368692688167,
-0.41223587092621161,-0.24774575140626312,
-0.4,-0.32499999999999996,
-0.41223587092621161,-0.40225424859373693,
-0.44774575140626321,-0.4719463130731183,
-0.50305368692688168,-0.52725424859373682,
-0.57274575140626316,-0.56276412907378837,
-0.65,-0.575,
-0.72725424859373677,-0.56276412907378837,
-0.79694631307311825,-0.52725424859373693,
-0.85225424859373689,-0.4719463130731183,
-0.88776412907378843,-0.40225424859373687,
0*
4,1,3,
0.9,-0.32500000000000007,
0.4,-0.325,
0.4,0.325,
0.9,0.32499999999999996,
0*
4,1,3,
0.65,0.575,
0.65,0.074999999999999969,
-0.65,0.075000000000000053,
-0.65,0.575,
0*
4,1,3,
-0.9,0.32500000000000007,
-0.4,0.325,
-0.4,-0.325,
-0.9,-0.32499999999999996,
0*
4,1,3,
-0.65,-0.575,
-0.65,-0.074999999999999969,
0.65,-0.075000000000000053,
0.65,-0.575,
0*%
%ADD26COMP78,0.25X-0.325X-0.65X0.325X-0.65X0.325X0.65X-0.325X0.65X0*%
%AMCOMP79*
4,1,3,
-0.25,0.22500000000000003,
-0.25,-0.22499999999999998,
0.25,-0.22500000000000003,
0.25,0.22499999999999998,
0*
4,1,19,
-0.475,0.22500000000000003,
-0.46398771616640955,0.29452882373436323,
-0.43202882373436319,0.35725168176580646,
-0.38225168176580648,0.40702882373436322,
-0.3195288237343632,0.43898771616640953,
-0.24999999999999997,0.45,
-0.18047117626563683,0.43898771616640958,
-0.11774831823419354,0.40702882373436322,
-0.067971176265636812,0.35725168176580646,
-0.036012283833590432,0.29452882373436318,
-0.024999999999999981,0.22500000000000003,
-0.036012283833590446,0.15547117626563678,
-0.067971176265636785,0.092748318234193577,
-0.11774831823419352,0.042971176265636853,
-0.1804711762656368,0.011012283833590469,
-0.24999999999999997,0.000000000000000015307579422779713,
-0.31952882373436314,0.01101228383359045,
-0.38225168176580637,0.042971176265636811,
-0.43202882373436313,0.092748318234193522,
-0.46398771616640955,0.15547117626563681,
0*
4,1,19,
-0.475,-0.22499999999999998,
-0.46398771616640955,-0.15547117626563681,
-0.43202882373436319,-0.092748318234193522,
-0.38225168176580648,-0.0429711762656368,
-0.3195288237343632,-0.011012283833590439,
-0.25,0.000000000000000015307579422779716,
-0.18047117626563686,-0.01101228383359042,
-0.11774831823419357,-0.042971176265636811,
-0.06797117626563684,-0.092748318234193522,
-0.03601228383359046,-0.15547117626563683,
-0.025000000000000008,-0.22499999999999998,
-0.036012283833590474,-0.29452882373436323,
-0.067971176265636812,-0.35725168176580646,
-0.11774831823419354,-0.40702882373436317,
-0.18047117626563683,-0.43898771616640953,
-0.25,-0.45,
-0.31952882373436314,-0.43898771616640958,
-0.38225168176580637,-0.40702882373436322,
-0.43202882373436313,-0.35725168176580652,
-0.46398771616640955,-0.29452882373436318,
0*
4,1,19,
0.024999999999999981,-0.225,
0.036012283833590446,-0.15547117626563683,
0.067971176265636812,-0.09274831823419355,
0.11774831823419354,-0.042971176265636825,
0.1804711762656368,-0.011012283833590469,
0.25,-0.000000000000000015307579422779716,
0.31952882373436314,-0.01101228383359045,
0.38225168176580643,-0.042971176265636839,
0.43202882373436313,-0.09274831823419355,
0.46398771616640955,-0.15547117626563686,
0.475,-0.225,
0.46398771616640955,-0.29452882373436329,
0.43202882373436324,-0.35725168176580646,
0.38225168176580648,-0.40702882373436317,
0.3195288237343632,-0.43898771616640953,
0.25000000000000006,-0.45,
0.18047117626563683,-0.43898771616640958,
0.11774831823419357,-0.40702882373436322,
0.067971176265636812,-0.35725168176580652,
0.036012283833590432,-0.29452882373436323,
0*
4,1,19,
0.025000000000000008,0.225,
0.036012283833590474,0.29452882373436318,
0.06797117626563684,0.35725168176580646,
0.11774831823419357,0.40702882373436322,
0.18047117626563683,0.43898771616640953,
0.25,0.45,
0.31952882373436314,0.43898771616640958,
0.38225168176580643,0.40702882373436322,
0.43202882373436313,0.35725168176580646,
0.46398771616640955,0.29452882373436312,
0.475,0.225,
0.46398771616640955,0.15547117626563675,
0.43202882373436324,0.09274831823419355,
0.38225168176580648,0.042971176265636825,
0.3195288237343632,0.011012283833590439,
0.25000000000000006,-0.000000000000000015307579422779719,
0.18047117626563686,0.01101228383359042,
0.1177483182341936,0.042971176265636783,
0.06797117626563684,0.0927483182341935,
0.03601228383359046,0.15547117626563678,
0*
4,1,3,
-0.475,0.22500000000000003,
-0.024999999999999981,0.225,
-0.025000000000000008,-0.225,
-0.475,-0.22499999999999998,
0*
4,1,3,
-0.25,-0.45,
-0.25,0.000000000000000015307579422779716,
0.25,-0.000000000000000015307579422779716,
0.24999999999999997,-0.45,
0*
4,1,3,
0.475,-0.22500000000000003,
0.024999999999999981,-0.225,
0.025000000000000008,0.225,
0.475,0.22499999999999998,
0*
4,1,3,
0.25,0.45,
0.25,-0.000000000000000015307579422779716,
-0.25,0.000000000000000015307579422779716,
-0.24999999999999997,0.45,
0*%
%ADD27COMP79,0.225X0.225X0.25X-0.225X0.25X-0.225X-0.25X0.225X-0.25X0*%
%AMCOMP80*
4,1,3,
0.25,-0.22500000000000003,
0.25,0.22499999999999998,
-0.25,0.22500000000000003,
-0.25,-0.22499999999999998,
0*
4,1,19,
0.024999999999999981,-0.225,
0.036012283833590446,-0.15547117626563683,
0.067971176265636812,-0.09274831823419355,
0.11774831823419354,-0.042971176265636825,
0.1804711762656368,-0.011012283833590469,
0.25,-0.000000000000000015307579422779716,
0.31952882373436314,-0.01101228383359045,
0.38225168176580643,-0.042971176265636839,
0.43202882373436313,-0.09274831823419355,
0.46398771616640955,-0.15547117626563686,
0.475,-0.225,
0.46398771616640955,-0.29452882373436329,
0.43202882373436324,-0.35725168176580646,
0.38225168176580648,-0.40702882373436317,
0.3195288237343632,-0.43898771616640953,
0.25000000000000006,-0.45,
0.18047117626563683,-0.43898771616640958,
0.11774831823419357,-0.40702882373436322,
0.067971176265636812,-0.35725168176580652,
0.036012283833590432,-0.29452882373436323,
0*
4,1,19,
0.025000000000000008,0.225,
0.036012283833590474,0.29452882373436318,
0.06797117626563684,0.35725168176580646,
0.11774831823419357,0.40702882373436322,
0.18047117626563683,0.43898771616640953,
0.25,0.45,
0.31952882373436314,0.43898771616640958,
0.38225168176580643,0.40702882373436322,
0.43202882373436313,0.35725168176580646,
0.46398771616640955,0.29452882373436312,
0.475,0.225,
0.46398771616640955,0.15547117626563675,
0.43202882373436324,0.09274831823419355,
0.38225168176580648,0.042971176265636825,
0.3195288237343632,0.011012283833590439,
0.25000000000000006,-0.000000000000000015307579422779719,
0.18047117626563686,0.01101228383359042,
0.1177483182341936,0.042971176265636783,
0.06797117626563684,0.0927483182341935,
0.03601228383359046,0.15547117626563678,
0*
4,1,19,
-0.475,0.22500000000000003,
-0.46398771616640955,0.29452882373436323,
-0.43202882373436319,0.35725168176580646,
-0.38225168176580648,0.40702882373436322,
-0.3195288237343632,0.43898771616640953,
-0.24999999999999997,0.45,
-0.18047117626563683,0.43898771616640958,
-0.11774831823419354,0.40702882373436322,
-0.067971176265636812,0.35725168176580646,
-0.036012283833590432,0.29452882373436318,
-0.024999999999999981,0.22500000000000003,
-0.036012283833590446,0.15547117626563678,
-0.067971176265636785,0.092748318234193577,
-0.11774831823419352,0.042971176265636853,
-0.1804711762656368,0.011012283833590469,
-0.24999999999999997,0.000000000000000015307579422779713,
-0.31952882373436314,0.01101228383359045,
-0.38225168176580637,0.042971176265636811,
-0.43202882373436313,0.092748318234193522,
-0.46398771616640955,0.15547117626563681,
0*
4,1,19,
-0.475,-0.22499999999999998,
-0.46398771616640955,-0.15547117626563681,
-0.43202882373436319,-0.092748318234193522,
-0.38225168176580648,-0.0429711762656368,
-0.3195288237343632,-0.011012283833590439,
-0.25,0.000000000000000015307579422779716,
-0.18047117626563686,-0.01101228383359042,
-0.11774831823419357,-0.042971176265636811,
-0.06797117626563684,-0.092748318234193522,
-0.03601228383359046,-0.15547117626563683,
-0.025000000000000008,-0.22499999999999998,
-0.036012283833590474,-0.29452882373436323,
-0.067971176265636812,-0.35725168176580646,
-0.11774831823419354,-0.40702882373436317,
-0.18047117626563683,-0.43898771616640953,
-0.25,-0.45,
-0.31952882373436314,-0.43898771616640958,
-0.38225168176580637,-0.40702882373436322,
-0.43202882373436313,-0.35725168176580652,
-0.46398771616640955,-0.29452882373436318,
0*
4,1,3,
0.475,-0.22500000000000003,
0.024999999999999981,-0.225,
0.025000000000000008,0.225,
0.475,0.22499999999999998,
0*
4,1,3,
0.25,0.45,
0.25,-0.000000000000000015307579422779716,
-0.25,0.000000000000000015307579422779716,
-0.24999999999999997,0.45,
0*
4,1,3,
-0.475,0.22500000000000003,
-0.024999999999999981,0.225,
-0.025000000000000008,-0.225,
-0.475,-0.22499999999999998,
0*
4,1,3,
-0.25,-0.45,
-0.25,0.000000000000000015307579422779716,
0.25,-0.000000000000000015307579422779716,
0.24999999999999997,-0.45,
0*%
%ADD28COMP80,0.225X-0.225X-0.25X0.225X-0.25X0.225X0.25X-0.225X0.25X0*%
%AMCOMP81*
4,1,3,
-0.25625,0.21875000000000003,
-0.25625,-0.21874999999999997,
0.25625,-0.21875000000000003,
0.25625,0.21874999999999997,
0*
4,1,19,
-0.475,0.21875000000000003,
-0.46429361293956484,0.28634746751951978,
-0.43322246751951976,0.34732802393897849,
-0.38482802393897847,0.39572246751951978,
-0.32384746751951976,0.42679361293956486,
-0.25625,0.4375,
-0.18865253248048022,0.42679361293956486,
-0.12767197606102149,0.39572246751951978,
-0.079277532480480223,0.34732802393897855,
-0.048206387060435126,0.28634746751951978,
-0.037499999999999964,0.21875000000000003,
-0.048206387060435139,0.15115253248048019,
-0.0792775324804802,0.090171976061021536,
-0.12767197606102146,0.04177753248048028,
-0.1886525324804802,0.010706387060435181,
-0.25624999999999992,0.000000000000000015690268908349205,
-0.32384746751951965,0.01070638706043516,
-0.38482802393897841,0.041777532480480238,
-0.43322246751951971,0.09017197606102148,
-0.46429361293956484,0.15115253248048025,
0*
4,1,19,
-0.475,-0.21874999999999997,
-0.46429361293956484,-0.15115253248048025,
-0.43322246751951976,-0.09017197606102148,
-0.38482802393897847,-0.041777532480480224,
-0.32384746751951976,-0.010706387060435149,
-0.25625,0.000000000000000015690268908349208,
-0.18865253248048025,-0.010706387060435129,
-0.12767197606102151,-0.041777532480480238,
-0.079277532480480251,-0.09017197606102148,
-0.048206387060435153,-0.15115253248048022,
-0.037499999999999992,-0.21874999999999997,
-0.048206387060435167,-0.28634746751951978,
-0.079277532480480223,-0.34732802393897844,
-0.12767197606102149,-0.39572246751951973,
-0.18865253248048022,-0.42679361293956486,
-0.25624999999999992,-0.4375,
-0.32384746751951965,-0.42679361293956486,
-0.38482802393897841,-0.39572246751951978,
-0.43322246751951971,-0.34732802393897855,
-0.46429361293956484,-0.28634746751951973,
0*
4,1,19,
0.037499999999999964,-0.21875,
0.048206387060435139,-0.15115253248048027,
0.079277532480480223,-0.090171976061021508,
0.12767197606102149,-0.041777532480480252,
0.18865253248048022,-0.010706387060435181,
0.25625,-0.000000000000000015690268908349208,
0.32384746751951971,-0.01070638706043516,
0.38482802393897841,-0.041777532480480266,
0.43322246751951971,-0.090171976061021508,
0.46429361293956484,-0.15115253248048025,
0.475,-0.21875,
0.46429361293956484,-0.28634746751951984,
0.43322246751951976,-0.34732802393897844,
0.38482802393897853,-0.39572246751951973,
0.32384746751951976,-0.42679361293956486,
0.25625000000000003,-0.4375,
0.18865253248048025,-0.42679361293956486,
0.12767197606102151,-0.39572246751951978,
0.079277532480480223,-0.34732802393897855,
0.048206387060435126,-0.28634746751951978,
0*
4,1,19,
0.037499999999999992,0.21875,
0.048206387060435167,0.28634746751951973,
0.079277532480480251,0.34732802393897849,
0.12767197606102151,0.39572246751951978,
0.18865253248048025,0.42679361293956486,
0.25625,0.4375,
0.32384746751951971,0.42679361293956486,
0.38482802393897841,0.39572246751951978,
0.43322246751951971,0.34732802393897855,
0.46429361293956484,0.28634746751951973,
0.475,0.21875,
0.46429361293956484,0.15115253248048016,
0.43322246751951976,0.090171976061021508,
0.38482802393897853,0.041777532480480252,
0.32384746751951976,0.010706387060435149,
0.25625000000000003,-0.000000000000000015690268908349211,
0.18865253248048028,0.010706387060435129,
0.12767197606102154,0.04177753248048021,
0.079277532480480251,0.090171976061021453,
0.048206387060435153,0.15115253248048022,
0*
4,1,3,
-0.475,0.21875000000000003,
-0.037499999999999964,0.21875,
-0.037499999999999992,-0.21875,
-0.475,-0.21874999999999997,
0*
4,1,3,
-0.25625,-0.4375,
-0.25625,0.000000000000000015690268908349208,
0.25625,-0.000000000000000015690268908349208,
0.25625,-0.4375,
0*
4,1,3,
0.475,-0.21875000000000003,
0.037499999999999964,-0.21875,
0.037499999999999992,0.21875,
0.475,0.21874999999999997,
0*
4,1,3,
0.25625,0.4375,
0.25625,-0.000000000000000015690268908349208,
-0.25625,0.000000000000000015690268908349208,
-0.25625,0.4375,
0*%
%ADD29COMP81,0.21875X0.21875X0.25625X-0.21875X0.25625X-0.21875X-0.25625X0.21875X-0.25625X0*%
%ADD30R,0.3X0.8*%
%ADD31R,0.4X0.8*%
%AMCOMP82*
4,1,3,
-0.475,0.25000000000000006,
-0.475,-0.24999999999999997,
0.475,-0.25000000000000006,
0.475,0.24999999999999997,
0*
4,1,19,
-0.725,0.25000000000000006,
-0.71276412907378839,0.32725424859373692,
-0.67725424859373684,0.39694631307311834,
-0.62194631307311821,0.45225424859373692,
-0.55225424859373684,0.48776412907378847,
-0.47499999999999992,0.5,
-0.39774575140626306,0.48776412907378841,
-0.32805368692688175,0.45225424859373686,
-0.27274575140626311,0.39694631307311834,
-0.23723587092621157,0.32725424859373686,
-0.22499999999999995,0.25000000000000006,
-0.2372358709262116,0.17274575140626311,
-0.27274575140626311,0.10305368692688176,
-0.32805368692688164,0.047745751406263186,
-0.39774575140626311,0.012235870926211641,
-0.47499999999999992,0.000000000000000029084400903281456,
-0.55225424859373673,0.012235870926211622,
-0.62194631307311821,0.047745751406263144,
-0.67725424859373684,0.1030536869268817,
-0.71276412907378839,0.17274575140626314,
0*
4,1,19,
-0.725,-0.24999999999999994,
-0.71276412907378839,-0.17274575140626308,
-0.67725424859373684,-0.10305368692688167,
-0.62194631307311821,-0.0477457514062631,
-0.55225424859373684,-0.012235870926211584,
-0.475,0.000000000000000029084400903281456,
-0.39774575140626311,-0.012235870926211565,
-0.32805368692688175,-0.047745751406263116,
-0.27274575140626311,-0.10305368692688167,
-0.2372358709262116,-0.17274575140626311,
-0.225,-0.24999999999999997,
-0.23723587092621162,-0.32725424859373692,
-0.27274575140626311,-0.39694631307311823,
-0.32805368692688164,-0.45225424859373686,
-0.39774575140626317,-0.48776412907378841,
-0.475,-0.49999999999999994,
-0.55225424859373673,-0.48776412907378836,
-0.62194631307311821,-0.45225424859373681,
-0.67725424859373684,-0.39694631307311828,
-0.71276412907378839,-0.32725424859373686,
0*
4,1,19,
0.22499999999999995,-0.25,
0.2372358709262116,-0.17274575140626316,
0.27274575140626311,-0.10305368692688173,
0.32805368692688169,-0.047745751406263158,
0.39774575140626311,-0.012235870926211641,
0.475,-0.000000000000000029084400903281456,
0.55225424859373684,-0.012235870926211622,
0.62194631307311821,-0.047745751406263172,
0.67725424859373684,-0.10305368692688173,
0.71276412907378839,-0.17274575140626319,
0.725,-0.25,
0.71276412907378839,-0.327254248593737,
0.67725424859373684,-0.39694631307311828,
0.62194631307311832,-0.45225424859373692,
0.55225424859373684,-0.48776412907378847,
0.475,-0.5,
0.39774575140626311,-0.48776412907378841,
0.32805368692688175,-0.45225424859373686,
0.27274575140626311,-0.39694631307311834,
0.23723587092621157,-0.32725424859373692,
0*
4,1,19,
0.225,0.25,
0.23723587092621162,0.32725424859373686,
0.27274575140626311,0.39694631307311828,
0.32805368692688169,0.45225424859373686,
0.39774575140626317,0.48776412907378841,
0.47500000000000003,0.49999999999999994,
0.55225424859373684,0.48776412907378836,
0.62194631307311821,0.45225424859373681,
0.67725424859373684,0.39694631307311828,
0.71276412907378839,0.32725424859373681,
0.725,0.25,
0.71276412907378839,0.17274575140626303,
0.67725424859373684,0.1030536869268817,
0.62194631307311832,0.04774575140626313,
0.55225424859373684,0.012235870926211584,
0.47500000000000003,-0.000000000000000029084400903281462,
0.39774575140626317,0.012235870926211565,
0.32805368692688175,0.047745751406263089,
0.27274575140626311,0.10305368692688165,
0.2372358709262116,0.17274575140626305,
0*
4,1,3,
-0.725,0.25000000000000006,
-0.22499999999999995,0.24999999999999997,
-0.225,-0.25,
-0.725,-0.24999999999999992,
0*
4,1,3,
-0.47500000000000003,-0.49999999999999994,
-0.475,0.000000000000000029084400903281456,
0.475,-0.000000000000000029084400903281456,
0.47499999999999992,-0.5,
0*
4,1,3,
0.725,-0.25000000000000006,
0.22499999999999995,-0.24999999999999997,
0.225,0.25,
0.725,0.24999999999999992,
0*
4,1,3,
0.47500000000000003,0.49999999999999994,
0.475,-0.000000000000000029084400903281456,
-0.475,0.000000000000000029084400903281456,
-0.47499999999999992,0.5,
0*%
%ADD32COMP82,0.25X0.25X0.475X-0.25X0.475X-0.25X-0.475X0.25X-0.475X0*%
%AMCOMP83*
4,1,3,
0.20000000000000004,0.275,
-0.19999999999999998,0.275,
-0.20000000000000004,-0.275,
0.19999999999999998,-0.275,
0*
4,1,19,
0.000000000000000016838337365057688,0.275,
0.00978869674096932,0.3368033988749895,
0.038196601125010519,0.39255705045849465,
0.082442949541505411,0.43680339887498953,
0.13819660112501056,0.46521130325903071,
0.20000000000000004,0.47500000000000003,
0.26180339887498955,0.46521130325903076,
0.31755705045849464,0.43680339887498953,
0.36180339887498947,0.39255705045849465,
0.39021130325903075,0.33680339887498956,
0.4,0.275,
0.39021130325903075,0.21319660112501046,
0.36180339887498952,0.15744294954150537,
0.31755705045849469,0.11319660112501052,
0.26180339887498955,0.0847886967409693,
0.20000000000000004,0.075,
0.13819660112501056,0.084788696740969269,
0.082442949541505425,0.11319660112501051,
0.038196601125010533,0.15744294954150534,
0.0097886967409693132,0.21319660112501049,
0*
4,1,19,
-0.4,0.275,
-0.39021130325903075,0.3368033988749895,
-0.36180339887498952,0.39255705045849465,
-0.31755705045849464,0.43680339887498953,
-0.26180339887498943,0.46521130325903071,
-0.19999999999999998,0.47500000000000003,
-0.1381966011250105,0.46521130325903076,
-0.08244294954150537,0.43680339887498953,
-0.038196601125010506,0.39255705045849465,
-0.0097886967409692785,0.33680339887498956,
0.000000000000000016838337365057688,0.275,
-0.0097886967409692854,0.21319660112501049,
-0.038196601125010492,0.15744294954150539,
-0.082442949541505356,0.11319660112501054,
-0.1381966011250105,0.084788696740969324,
-0.19999999999999998,0.075000000000000025,
-0.26180339887498949,0.0847886967409693,
-0.31755705045849458,0.11319660112501052,
-0.36180339887498947,0.15744294954150537,
-0.39021130325903075,0.21319660112501052,
0*
4,1,19,
-0.4,-0.275,
-0.39021130325903075,-0.21319660112501052,
-0.36180339887498952,-0.15744294954150537,
-0.31755705045849464,-0.1131966011250105,
-0.26180339887498949,-0.0847886967409693,
-0.2,-0.075,
-0.13819660112501053,-0.084788696740969269,
-0.0824429495415054,-0.11319660112501051,
-0.038196601125010533,-0.15744294954150537,
-0.0097886967409693132,-0.21319660112501052,
-0.000000000000000016838337365057688,-0.275,
-0.00978869674096932,-0.33680339887498956,
-0.038196601125010519,-0.39255705045849465,
-0.082442949541505384,-0.43680339887498953,
-0.13819660112501053,-0.46521130325903071,
-0.2,-0.47500000000000003,
-0.26180339887498955,-0.46521130325903076,
-0.31755705045849458,-0.43680339887498953,
-0.36180339887498947,-0.39255705045849471,
-0.39021130325903075,-0.33680339887498956,
0*
4,1,19,
-0.000000000000000016838337365057688,-0.275,
0.0097886967409692854,-0.21319660112501054,
0.038196601125010492,-0.15744294954150539,
0.082442949541505384,-0.11319660112501051,
0.13819660112501053,-0.084788696740969324,
0.2,-0.075000000000000025,
0.26180339887498949,-0.0847886967409693,
0.31755705045849464,-0.11319660112501052,
0.36180339887498947,-0.15744294954150539,
0.39021130325903075,-0.21319660112501054,
0.4,-0.275,
0.39021130325903075,-0.33680339887498956,
0.36180339887498952,-0.39255705045849465,
0.31755705045849469,-0.43680339887498953,
0.26180339887498949,-0.46521130325903071,
0.2,-0.47500000000000003,
0.13819660112501053,-0.46521130325903076,
0.0824429495415054,-0.43680339887498953,
0.038196601125010506,-0.39255705045849471,
0.0097886967409692785,-0.33680339887498956,
0*
4,1,3,
0.20000000000000004,0.47500000000000003,
0.2,0.075,
-0.2,0.075000000000000025,
-0.19999999999999998,0.47500000000000003,
0*
4,1,3,
-0.4,0.275,
0.000000000000000016838337365057688,0.275,
-0.000000000000000016838337365057688,-0.275,
-0.4,-0.275,
0*
4,1,3,
-0.20000000000000004,-0.47500000000000003,
-0.2,-0.075,
0.2,-0.075000000000000025,
0.19999999999999998,-0.47500000000000003,
0*
4,1,3,
0.4,-0.275,
-0.000000000000000016838337365057688,-0.275,
0.000000000000000016838337365057688,0.275,
0.4,0.275,
0*%
%ADD33COMP83,0.2X0.275X-0.2X0.275X0.2X-0.275X0.2X-0.275X-0.2X0*%
%ADD34R,0.3302X0.6096*%
%AMCOMP84*
4,1,3,
0.25625,-0.21875000000000003,
0.25625,0.21874999999999997,
-0.25625,0.21875000000000003,
-0.25625,-0.21874999999999997,
0*
4,1,19,
0.037499999999999964,-0.21875,
0.048206387060435139,-0.15115253248048027,
0.079277532480480223,-0.090171976061021508,
0.12767197606102149,-0.041777532480480252,
0.18865253248048022,-0.010706387060435181,
0.25625,-0.000000000000000015690268908349208,
0.32384746751951971,-0.01070638706043516,
0.38482802393897841,-0.041777532480480266,
0.43322246751951971,-0.090171976061021508,
0.46429361293956484,-0.15115253248048025,
0.475,-0.21875,
0.46429361293956484,-0.28634746751951984,
0.43322246751951976,-0.34732802393897844,
0.38482802393897853,-0.39572246751951973,
0.32384746751951976,-0.42679361293956486,
0.25625000000000003,-0.4375,
0.18865253248048025,-0.42679361293956486,
0.12767197606102151,-0.39572246751951978,
0.079277532480480223,-0.34732802393897855,
0.048206387060435126,-0.28634746751951978,
0*
4,1,19,
0.037499999999999992,0.21875,
0.048206387060435167,0.28634746751951973,
0.079277532480480251,0.34732802393897849,
0.12767197606102151,0.39572246751951978,
0.18865253248048025,0.42679361293956486,
0.25625,0.4375,
0.32384746751951971,0.42679361293956486,
0.38482802393897841,0.39572246751951978,
0.43322246751951971,0.34732802393897855,
0.46429361293956484,0.28634746751951973,
0.475,0.21875,
0.46429361293956484,0.15115253248048016,
0.43322246751951976,0.090171976061021508,
0.38482802393897853,0.041777532480480252,
0.32384746751951976,0.010706387060435149,
0.25625000000000003,-0.000000000000000015690268908349211,
0.18865253248048028,0.010706387060435129,
0.12767197606102154,0.04177753248048021,
0.079277532480480251,0.090171976061021453,
0.048206387060435153,0.15115253248048022,
0*
4,1,19,
-0.475,0.21875000000000003,
-0.46429361293956484,0.28634746751951978,
-0.43322246751951976,0.34732802393897849,
-0.38482802393897847,0.39572246751951978,
-0.32384746751951976,0.42679361293956486,
-0.25625,0.4375,
-0.18865253248048022,0.42679361293956486,
-0.12767197606102149,0.39572246751951978,
-0.079277532480480223,0.34732802393897855,
-0.048206387060435126,0.28634746751951978,
-0.037499999999999964,0.21875000000000003,
-0.048206387060435139,0.15115253248048019,
-0.0792775324804802,0.090171976061021536,
-0.12767197606102146,0.04177753248048028,
-0.1886525324804802,0.010706387060435181,
-0.25624999999999992,0.000000000000000015690268908349205,
-0.32384746751951965,0.01070638706043516,
-0.38482802393897841,0.041777532480480238,
-0.43322246751951971,0.09017197606102148,
-0.46429361293956484,0.15115253248048025,
0*
4,1,19,
-0.475,-0.21874999999999997,
-0.46429361293956484,-0.15115253248048025,
-0.43322246751951976,-0.09017197606102148,
-0.38482802393897847,-0.041777532480480224,
-0.32384746751951976,-0.010706387060435149,
-0.25625,0.000000000000000015690268908349208,
-0.18865253248048025,-0.010706387060435129,
-0.12767197606102151,-0.041777532480480238,
-0.079277532480480251,-0.09017197606102148,
-0.048206387060435153,-0.15115253248048022,
-0.037499999999999992,-0.21874999999999997,
-0.048206387060435167,-0.28634746751951978,
-0.079277532480480223,-0.34732802393897844,
-0.12767197606102149,-0.39572246751951973,
-0.18865253248048022,-0.42679361293956486,
-0.25624999999999992,-0.4375,
-0.32384746751951965,-0.42679361293956486,
-0.38482802393897841,-0.39572246751951978,
-0.43322246751951971,-0.34732802393897855,
-0.46429361293956484,-0.28634746751951973,
0*
4,1,3,
0.475,-0.21875000000000003,
0.037499999999999964,-0.21875,
0.037499999999999992,0.21875,
0.475,0.21874999999999997,
0*
4,1,3,
0.25625,0.4375,
0.25625,-0.000000000000000015690268908349208,
-0.25625,0.000000000000000015690268908349208,
-0.25625,0.4375,
0*
4,1,3,
-0.475,0.21875000000000003,
-0.037499999999999964,0.21875,
-0.037499999999999992,-0.21875,
-0.475,-0.21874999999999997,
0*
4,1,3,
-0.25625,-0.4375,
-0.25625,0.000000000000000015690268908349208,
0.25625,-0.000000000000000015690268908349208,
0.25625,-0.4375,
0*%
%ADD35COMP84,0.21875X-0.21875X-0.25625X0.21875X-0.25625X0.21875X0.25625X-0.21875X0.25625X0*%
%AMCOMP85*
4,1,3,
0.17500000000000002,0.425,
-0.17499999999999996,0.425,
-0.17500000000000002,-0.425,
0.17499999999999996,-0.425,
0*
4,1,19,
0.000000000000000026022885018725515,0.425,
0.00856510964834817,0.4790779740156158,
0.033422025984384242,0.52786241915118282,
0.072137580848817218,0.56657797401561583,
0.12092202598438423,0.59143489035165187,
0.17500000000000002,0.6,
0.2290779740156158,0.59143489035165187,
0.27786241915118282,0.56657797401561583,
0.31657797401561583,0.52786241915118282,
0.34143489035165192,0.4790779740156158,
0.35,0.425,
0.34143489035165187,0.37092202598438412,
0.31657797401561583,0.32213758084881722,
0.27786241915118282,0.28342202598438421,
0.22907797401561583,0.25856510964834811,
0.17500000000000004,0.25,
0.12092202598438424,0.25856510964834811,
0.072137580848817245,0.28342202598438415,
0.033422025984384228,0.32213758084881716,
0.0085651096483481629,0.37092202598438417,
0*
4,1,19,
-0.35,0.425,
-0.34143489035165181,0.4790779740156158,
-0.31657797401561572,0.52786241915118282,
-0.27786241915118276,0.56657797401561583,
-0.22907797401561578,0.59143489035165187,
-0.17499999999999996,0.6,
-0.12092202598438416,0.59143489035165187,
-0.07213758084881719,0.56657797401561583,
-0.033422025984384172,0.52786241915118282,
-0.0085651096483481109,0.4790779740156158,
0.000000000000000026022885018725515,0.425,
-0.0085651096483481178,0.37092202598438412,
-0.033422025984384159,0.32213758084881722,
-0.072137580848817162,0.28342202598438421,
-0.12092202598438416,0.25856510964834811,
-0.17499999999999993,0.25,
-0.22907797401561572,0.25856510964834811,
-0.27786241915118276,0.28342202598438415,
-0.31657797401561577,0.32213758084881716,
-0.34143489035165187,0.37092202598438417,
0*
4,1,19,
-0.35,-0.425,
-0.34143489035165187,-0.37092202598438417,
-0.31657797401561577,-0.32213758084881716,
-0.27786241915118282,-0.28342202598438421,
-0.22907797401561583,-0.25856510964834811,
-0.17500000000000002,-0.25,
-0.12092202598438422,-0.25856510964834811,
-0.072137580848817232,-0.28342202598438421,
-0.033422025984384228,-0.32213758084881716,
-0.0085651096483481629,-0.37092202598438417,
-0.000000000000000026022885018725515,-0.425,
-0.00856510964834817,-0.47907797401561586,
-0.033422025984384214,-0.5278624191511827,
-0.0721375808488172,-0.56657797401561583,
-0.12092202598438422,-0.59143489035165187,
-0.175,-0.6,
-0.22907797401561578,-0.59143489035165187,
-0.27786241915118282,-0.56657797401561583,
-0.31657797401561583,-0.52786241915118282,
-0.34143489035165192,-0.4790779740156158,
0*
4,1,19,
-0.000000000000000026022885018725515,-0.425,
0.0085651096483481178,-0.37092202598438417,
0.033422025984384186,-0.32213758084881716,
0.072137580848817176,-0.28342202598438421,
0.12092202598438417,-0.25856510964834811,
0.17499999999999996,-0.25,
0.22907797401561575,-0.25856510964834811,
0.27786241915118276,-0.28342202598438421,
0.31657797401561577,-0.32213758084881716,
0.34143489035165187,-0.37092202598438417,
0.35,-0.425,
0.34143489035165181,-0.47907797401561586,
0.31657797401561577,-0.5278624191511827,
0.27786241915118276,-0.56657797401561583,
0.22907797401561578,-0.59143489035165187,
0.175,-0.6,
0.12092202598438419,-0.59143489035165187,
0.0721375808488172,-0.56657797401561583,
0.033422025984384172,-0.52786241915118282,
0.0085651096483481109,-0.4790779740156158,
0*
4,1,3,
0.17500000000000002,0.6,
0.17500000000000002,0.25,
-0.17499999999999996,0.25,
-0.17499999999999996,0.6,
0*
4,1,3,
-0.35,0.425,
0.000000000000000026022885018725515,0.425,
-0.000000000000000026022885018725515,-0.425,
-0.35,-0.425,
0*
4,1,3,
-0.17500000000000002,-0.6,
-0.17500000000000002,-0.25,
0.17499999999999996,-0.25,
0.17499999999999996,-0.6,
0*
4,1,3,
0.35,-0.425,
-0.000000000000000026022885018725515,-0.425,
0.000000000000000026022885018725515,0.425,
0.35,0.425,
0*%
%ADD36COMP85,0.175X0.425X-0.175X0.425X0.175X-0.425X0.175X-0.425X-0.175X0*%
%AMCOMP86*
4,1,3,
-0.19000000000000003,-0.41,
0.18999999999999997,-0.41,
0.19000000000000003,0.41,
-0.18999999999999997,0.41,
0*
4,1,19,
-0.38,-0.41,
-0.37070073809607917,-0.35128677106875994,
-0.34371322893124,-0.29832080206443007,
-0.30167919793556991,-0.25628677106875997,
-0.24871322893124004,-0.22929926190392078,
-0.19,-0.21999999999999997,
-0.13128677106876005,-0.22929926190392078,
-0.078320802064430137,-0.25628677106875997,
-0.036286771068760014,-0.29832080206443007,
-0.009299261903920851,-0.35128677106875994,
-0.000000000000000025104430253358732,-0.41,
-0.00929926190392086,-0.46871322893124007,
-0.03628677106876,-0.52167919793556983,
-0.078320802064430109,-0.56371322893124,
-0.13128677106876,-0.59070073809607915,
-0.19,-0.6,
-0.24871322893124,-0.59070073809607915,
-0.30167919793556991,-0.56371322893124,
-0.34371322893124007,-0.52167919793556994,
-0.37070073809607923,-0.46871322893124,
0*
4,1,19,
-0.000000000000000025104430253358732,-0.41,
0.00929926190392081,-0.35128677106875994,
0.036286771068759972,-0.29832080206443007,
0.0783208020644301,-0.25628677106875997,
0.13128677106875997,-0.2292992619039208,
0.19,-0.21999999999999997,
0.24871322893123995,-0.2292992619039208,
0.30167919793556985,-0.25628677106875997,
0.34371322893124,-0.29832080206443007,
0.37070073809607917,-0.35128677106875994,
0.38,-0.41,
0.37070073809607912,-0.46871322893124007,
0.34371322893123996,-0.52167919793556983,
0.30167919793556985,-0.56371322893124,
0.24871322893124,-0.59070073809607915,
0.19,-0.6,
0.13128677106876,-0.59070073809607915,
0.078320802064430123,-0.56371322893124,
0.036286771068759958,-0.52167919793556994,
0.0092992619039208,-0.46871322893124,
0*
4,1,19,
0.000000000000000025104430253358732,0.41,
0.00929926190392086,0.46871322893124,
0.036286771068760028,0.52167919793556983,
0.078320802064430137,0.56371322893124,
0.13128677106876002,0.59070073809607915,
0.19000000000000003,0.6,
0.24871322893124,0.59070073809607915,
0.30167919793556991,0.56371322893124,
0.34371322893124007,0.52167919793556994,
0.37070073809607923,0.46871322893124,
0.38,0.41,
0.37070073809607917,0.35128677106875988,
0.34371322893124,0.29832080206443012,
0.30167919793556991,0.25628677106875997,
0.24871322893124007,0.22929926190392078,
0.19000000000000003,0.21999999999999997,
0.13128677106876005,0.22929926190392078,
0.078320802064430164,0.25628677106875997,
0.036286771068760014,0.29832080206443,
0.009299261903920851,0.35128677106875994,
0*
4,1,19,
-0.38,0.41,
-0.37070073809607912,0.46871322893124,
-0.34371322893123996,0.52167919793556983,
-0.30167919793556985,0.56371322893124,
-0.24871322893123998,0.59070073809607915,
-0.18999999999999997,0.6,
-0.13128677106876,0.59070073809607915,
-0.0783208020644301,0.56371322893124,
-0.036286771068759958,0.52167919793556994,
-0.0092992619039208,0.46871322893124,
0.000000000000000025104430253358732,0.41,
-0.00929926190392081,0.35128677106875988,
-0.036286771068759945,0.29832080206443012,
-0.078320802064430067,0.25628677106875997,
-0.13128677106875994,0.2292992619039208,
-0.18999999999999997,0.21999999999999997,
-0.24871322893123995,0.2292992619039208,
-0.30167919793556985,0.25628677106875997,
-0.34371322893124,0.29832080206443,
-0.37070073809607917,0.35128677106875994,
0*
4,1,3,
-0.19000000000000003,-0.6,
-0.19,-0.21999999999999997,
0.19,-0.21999999999999997,
0.18999999999999997,-0.6,
0*
4,1,3,
0.38,-0.41,
-0.000000000000000025104430253358732,-0.41,
0.000000000000000025104430253358732,0.41,
0.38,0.41,
0*
4,1,3,
0.19000000000000003,0.6,
0.19,0.21999999999999997,
-0.19,0.21999999999999997,
-0.18999999999999997,0.6,
0*
4,1,3,
-0.38,0.41,
0.000000000000000025104430253358732,0.41,
-0.000000000000000025104430253358732,-0.41,
-0.38,-0.41,
0*%
%ADD37COMP86,0.19X-0.41X0.19X-0.41X-0.19X0.41X-0.19X0.41X0.19X0*%
%AMCOMP87*
4,1,3,
-0.20000000000000004,-0.4,
0.19999999999999998,-0.4,
0.20000000000000004,0.4,
-0.19999999999999998,0.4,
0*
4,1,19,
-0.4,-0.4,
-0.39021130325903075,-0.33819660112501054,
-0.36180339887498952,-0.28244294954150539,
-0.31755705045849464,-0.23819660112501048,
-0.26180339887498949,-0.20978869674096928,
-0.2,-0.2,
-0.13819660112501053,-0.20978869674096928,
-0.082442949541505411,-0.23819660112501051,
-0.03819660112501054,-0.28244294954150539,
-0.00978869674096932,-0.33819660112501049,
-0.000000000000000024492127076447546,-0.4,
-0.0097886967409693271,-0.46180339887498956,
-0.038196601125010533,-0.51755705045849465,
-0.082442949541505384,-0.56180339887498953,
-0.13819660112501053,-0.59021130325903071,
-0.2,-0.60000000000000009,
-0.26180339887498955,-0.59021130325903082,
-0.31755705045849464,-0.56180339887498953,
-0.36180339887498952,-0.51755705045849476,
-0.39021130325903081,-0.46180339887498956,
0*
4,1,19,
-0.000000000000000024492127076447546,-0.4,
0.0097886967409692785,-0.33819660112501054,
0.038196601125010485,-0.28244294954150539,
0.08244294954150537,-0.23819660112501051,
0.13819660112501053,-0.20978869674096931,
0.2,-0.2,
0.26180339887498949,-0.20978869674096931,
0.31755705045849464,-0.23819660112501054,
0.36180339887498947,-0.28244294954150539,
0.39021130325903075,-0.33819660112501049,
0.4,-0.4,
0.3902113032590307,-0.46180339887498956,
0.36180339887498947,-0.51755705045849465,
0.31755705045849464,-0.56180339887498953,
0.26180339887498949,-0.59021130325903071,
0.2,-0.60000000000000009,
0.13819660112501053,-0.59021130325903082,
0.0824429495415054,-0.56180339887498953,
0.038196601125010492,-0.51755705045849476,
0.0097886967409692716,-0.46180339887498956,
0*
4,1,19,
0.000000000000000024492127076447546,0.4,
0.0097886967409693271,0.4618033988749895,
0.038196601125010533,0.51755705045849465,
0.082442949541505411,0.56180339887498953,
0.13819660112501056,0.59021130325903071,
0.20000000000000004,0.60000000000000009,
0.26180339887498955,0.59021130325903082,
0.31755705045849469,0.56180339887498953,
0.36180339887498952,0.51755705045849465,
0.39021130325903081,0.46180339887498956,
0.4,0.4,
0.39021130325903075,0.33819660112501049,
0.36180339887498952,0.28244294954150539,
0.31755705045849469,0.23819660112501051,
0.26180339887498955,0.20978869674096928,
0.20000000000000004,0.2,
0.13819660112501056,0.20978869674096928,
0.082442949541505439,0.23819660112501051,
0.03819660112501054,0.28244294954150534,
0.00978869674096932,0.33819660112501049,
0*
4,1,19,
-0.4,0.4,
-0.3902113032590307,0.4618033988749895,
-0.36180339887498947,0.51755705045849465,
-0.31755705045849458,0.56180339887498953,
-0.26180339887498943,0.59021130325903071,
-0.19999999999999998,0.60000000000000009,
-0.1381966011250105,0.59021130325903082,
-0.08244294954150537,0.56180339887498953,
-0.038196601125010492,0.51755705045849465,
-0.0097886967409692716,0.46180339887498956,
0.000000000000000024492127076447546,0.4,
-0.0097886967409692785,0.33819660112501049,
-0.038196601125010485,0.28244294954150539,
-0.082442949541505342,0.23819660112501054,
-0.1381966011250105,0.20978869674096931,
-0.19999999999999998,0.2,
-0.26180339887498949,0.20978869674096931,
-0.31755705045849458,0.23819660112501054,
-0.36180339887498947,0.28244294954150534,
-0.39021130325903075,0.33819660112501049,
0*
4,1,3,
-0.20000000000000004,-0.60000000000000009,
-0.2,-0.2,
0.2,-0.2,
0.19999999999999998,-0.60000000000000009,
0*
4,1,3,
0.4,-0.4,
-0.000000000000000024492127076447546,-0.4,
0.000000000000000024492127076447546,0.4,
0.4,0.4,
0*
4,1,3,
0.20000000000000004,0.60000000000000009,
0.2,0.2,
-0.2,0.2,
-0.19999999999999998,0.60000000000000009,
0*
4,1,3,
-0.4,0.4,
0.000000000000000024492127076447546,0.4,
-0.000000000000000024492127076447546,-0.4,
-0.4,-0.4,
0*%
%ADD38COMP87,0.2X-0.4X0.2X-0.4X-0.2X0.4X-0.2X0.4X0.2X0*%
%AMCOMP88*
4,1,3,
-0.17500000000000002,-0.425,
0.17499999999999996,-0.425,
0.17500000000000002,0.425,
-0.17499999999999996,0.425,
0*
4,1,19,
-0.35,-0.425,
-0.34143489035165187,-0.37092202598438417,
-0.31657797401561577,-0.32213758084881716,
-0.27786241915118282,-0.28342202598438421,
-0.22907797401561583,-0.25856510964834811,
-0.17500000000000002,-0.25,
-0.12092202598438422,-0.25856510964834811,
-0.072137580848817232,-0.28342202598438421,
-0.033422025984384228,-0.32213758084881716,
-0.0085651096483481629,-0.37092202598438417,
-0.000000000000000026022885018725515,-0.425,
-0.00856510964834817,-0.47907797401561586,
-0.033422025984384214,-0.5278624191511827,
-0.0721375808488172,-0.56657797401561583,
-0.12092202598438422,-0.59143489035165187,
-0.175,-0.6,
-0.22907797401561578,-0.59143489035165187,
-0.27786241915118282,-0.56657797401561583,
-0.31657797401561583,-0.52786241915118282,
-0.34143489035165192,-0.4790779740156158,
0*
4,1,19,
-0.000000000000000026022885018725515,-0.425,
0.0085651096483481178,-0.37092202598438417,
0.033422025984384186,-0.32213758084881716,
0.072137580848817176,-0.28342202598438421,
0.12092202598438417,-0.25856510964834811,
0.17499999999999996,-0.25,
0.22907797401561575,-0.25856510964834811,
0.27786241915118276,-0.28342202598438421,
0.31657797401561577,-0.32213758084881716,
0.34143489035165187,-0.37092202598438417,
0.35,-0.425,
0.34143489035165181,-0.47907797401561586,
0.31657797401561577,-0.5278624191511827,
0.27786241915118276,-0.56657797401561583,
0.22907797401561578,-0.59143489035165187,
0.175,-0.6,
0.12092202598438419,-0.59143489035165187,
0.0721375808488172,-0.56657797401561583,
0.033422025984384172,-0.52786241915118282,
0.0085651096483481109,-0.4790779740156158,
0*
4,1,19,
0.000000000000000026022885018725515,0.425,
0.00856510964834817,0.4790779740156158,
0.033422025984384242,0.52786241915118282,
0.072137580848817218,0.56657797401561583,
0.12092202598438423,0.59143489035165187,
0.17500000000000002,0.6,
0.2290779740156158,0.59143489035165187,
0.27786241915118282,0.56657797401561583,
0.31657797401561583,0.52786241915118282,
0.34143489035165192,0.4790779740156158,
0.35,0.425,
0.34143489035165187,0.37092202598438412,
0.31657797401561583,0.32213758084881722,
0.27786241915118282,0.28342202598438421,
0.22907797401561583,0.25856510964834811,
0.17500000000000004,0.25,
0.12092202598438424,0.25856510964834811,
0.072137580848817245,0.28342202598438415,
0.033422025984384228,0.32213758084881716,
0.0085651096483481629,0.37092202598438417,
0*
4,1,19,
-0.35,0.425,
-0.34143489035165181,0.4790779740156158,
-0.31657797401561572,0.52786241915118282,
-0.27786241915118276,0.56657797401561583,
-0.22907797401561578,0.59143489035165187,
-0.17499999999999996,0.6,
-0.12092202598438416,0.59143489035165187,
-0.07213758084881719,0.56657797401561583,
-0.033422025984384172,0.52786241915118282,
-0.0085651096483481109,0.4790779740156158,
0.000000000000000026022885018725515,0.425,
-0.0085651096483481178,0.37092202598438412,
-0.033422025984384159,0.32213758084881722,
-0.072137580848817162,0.28342202598438421,
-0.12092202598438416,0.25856510964834811,
-0.17499999999999993,0.25,
-0.22907797401561572,0.25856510964834811,
-0.27786241915118276,0.28342202598438415,
-0.31657797401561577,0.32213758084881716,
-0.34143489035165187,0.37092202598438417,
0*
4,1,3,
-0.17500000000000002,-0.6,
-0.17500000000000002,-0.25,
0.17499999999999996,-0.25,
0.17499999999999996,-0.6,
0*
4,1,3,
0.35,-0.425,
-0.000000000000000026022885018725515,-0.425,
0.000000000000000026022885018725515,0.425,
0.35,0.425,
0*
4,1,3,
0.17500000000000002,0.6,
0.17500000000000002,0.25,
-0.17499999999999996,0.25,
-0.17499999999999996,0.6,
0*
4,1,3,
-0.35,0.425,
0.000000000000000026022885018725515,0.425,
-0.000000000000000026022885018725515,-0.425,
-0.35,-0.425,
0*%
%ADD39COMP88,0.175X-0.425X0.175X-0.425X-0.175X0.425X-0.175X0.425X0.175X0*%
%AMCOMP89*
4,1,3,
0.19000000000000003,0.41,
-0.18999999999999997,0.41,
-0.19000000000000003,-0.41,
0.18999999999999997,-0.41,
0*
4,1,19,
0.000000000000000025104430253358732,0.41,
0.00929926190392086,0.46871322893124,
0.036286771068760028,0.52167919793556983,
0.078320802064430137,0.56371322893124,
0.13128677106876002,0.59070073809607915,
0.19000000000000003,0.6,
0.24871322893124,0.59070073809607915,
0.30167919793556991,0.56371322893124,
0.34371322893124007,0.52167919793556994,
0.37070073809607923,0.46871322893124,
0.38,0.41,
0.37070073809607917,0.35128677106875988,
0.34371322893124,0.29832080206443012,
0.30167919793556991,0.25628677106875997,
0.24871322893124007,0.22929926190392078,
0.19000000000000003,0.21999999999999997,
0.13128677106876005,0.22929926190392078,
0.078320802064430164,0.25628677106875997,
0.036286771068760014,0.29832080206443,
0.009299261903920851,0.35128677106875994,
0*
4,1,19,
-0.38,0.41,
-0.37070073809607912,0.46871322893124,
-0.34371322893123996,0.52167919793556983,
-0.30167919793556985,0.56371322893124,
-0.24871322893123998,0.59070073809607915,
-0.18999999999999997,0.6,
-0.13128677106876,0.59070073809607915,
-0.0783208020644301,0.56371322893124,
-0.036286771068759958,0.52167919793556994,
-0.0092992619039208,0.46871322893124,
0.000000000000000025104430253358732,0.41,
-0.00929926190392081,0.35128677106875988,
-0.036286771068759945,0.29832080206443012,
-0.078320802064430067,0.25628677106875997,
-0.13128677106875994,0.2292992619039208,
-0.18999999999999997,0.21999999999999997,
-0.24871322893123995,0.2292992619039208,
-0.30167919793556985,0.25628677106875997,
-0.34371322893124,0.29832080206443,
-0.37070073809607917,0.35128677106875994,
0*
4,1,19,
-0.38,-0.41,
-0.37070073809607917,-0.35128677106875994,
-0.34371322893124,-0.29832080206443007,
-0.30167919793556991,-0.25628677106875997,
-0.24871322893124004,-0.22929926190392078,
-0.19,-0.21999999999999997,
-0.13128677106876005,-0.22929926190392078,
-0.078320802064430137,-0.25628677106875997,
-0.036286771068760014,-0.29832080206443007,
-0.009299261903920851,-0.35128677106875994,
-0.000000000000000025104430253358732,-0.41,
-0.00929926190392086,-0.46871322893124007,
-0.03628677106876,-0.52167919793556983,
-0.078320802064430109,-0.56371322893124,
-0.13128677106876,-0.59070073809607915,
-0.19,-0.6,
-0.24871322893124,-0.59070073809607915,
-0.30167919793556991,-0.56371322893124,
-0.34371322893124007,-0.52167919793556994,
-0.37070073809607923,-0.46871322893124,
0*
4,1,19,
-0.000000000000000025104430253358732,-0.41,
0.00929926190392081,-0.35128677106875994,
0.036286771068759972,-0.29832080206443007,
0.0783208020644301,-0.25628677106875997,
0.13128677106875997,-0.2292992619039208,
0.19,-0.21999999999999997,
0.24871322893123995,-0.2292992619039208,
0.30167919793556985,-0.25628677106875997,
0.34371322893124,-0.29832080206443007,
0.37070073809607917,-0.35128677106875994,
0.38,-0.41,
0.37070073809607912,-0.46871322893124007,
0.34371322893123996,-0.52167919793556983,
0.30167919793556985,-0.56371322893124,
0.24871322893124,-0.59070073809607915,
0.19,-0.6,
0.13128677106876,-0.59070073809607915,
0.078320802064430123,-0.56371322893124,
0.036286771068759958,-0.52167919793556994,
0.0092992619039208,-0.46871322893124,
0*
4,1,3,
0.19000000000000003,0.6,
0.19,0.21999999999999997,
-0.19,0.21999999999999997,
-0.18999999999999997,0.6,
0*
4,1,3,
-0.38,0.41,
0.000000000000000025104430253358732,0.41,
-0.000000000000000025104430253358732,-0.41,
-0.38,-0.41,
0*
4,1,3,
-0.19000000000000003,-0.6,
-0.19,-0.21999999999999997,
0.19,-0.21999999999999997,
0.18999999999999997,-0.6,
0*
4,1,3,
0.38,-0.41,
-0.000000000000000025104430253358732,-0.41,
0.000000000000000025104430253358732,0.41,
0.38,0.41,
0*%
%ADD40COMP89,0.19X0.41X-0.19X0.41X0.19X-0.41X0.19X-0.41X-0.19X0*%
%AMCOMP90*
4,1,3,
0.20000000000000004,0.4,
-0.19999999999999998,0.4,
-0.20000000000000004,-0.4,
0.19999999999999998,-0.4,
0*
4,1,19,
0.000000000000000024492127076447546,0.4,
0.0097886967409693271,0.4618033988749895,
0.038196601125010533,0.51755705045849465,
0.082442949541505411,0.56180339887498953,
0.13819660112501056,0.59021130325903071,
0.20000000000000004,0.60000000000000009,
0.26180339887498955,0.59021130325903082,
0.31755705045849469,0.56180339887498953,
0.36180339887498952,0.51755705045849465,
0.39021130325903081,0.46180339887498956,
0.4,0.4,
0.39021130325903075,0.33819660112501049,
0.36180339887498952,0.28244294954150539,
0.31755705045849469,0.23819660112501051,
0.26180339887498955,0.20978869674096928,
0.20000000000000004,0.2,
0.13819660112501056,0.20978869674096928,
0.082442949541505439,0.23819660112501051,
0.03819660112501054,0.28244294954150534,
0.00978869674096932,0.33819660112501049,
0*
4,1,19,
-0.4,0.4,
-0.3902113032590307,0.4618033988749895,
-0.36180339887498947,0.51755705045849465,
-0.31755705045849458,0.56180339887498953,
-0.26180339887498943,0.59021130325903071,
-0.19999999999999998,0.60000000000000009,
-0.1381966011250105,0.59021130325903082,
-0.08244294954150537,0.56180339887498953,
-0.038196601125010492,0.51755705045849465,
-0.0097886967409692716,0.46180339887498956,
0.000000000000000024492127076447546,0.4,
-0.0097886967409692785,0.33819660112501049,
-0.038196601125010485,0.28244294954150539,
-0.082442949541505342,0.23819660112501054,
-0.1381966011250105,0.20978869674096931,
-0.19999999999999998,0.2,
-0.26180339887498949,0.20978869674096931,
-0.31755705045849458,0.23819660112501054,
-0.36180339887498947,0.28244294954150534,
-0.39021130325903075,0.33819660112501049,
0*
4,1,19,
-0.4,-0.4,
-0.39021130325903075,-0.33819660112501054,
-0.36180339887498952,-0.28244294954150539,
-0.31755705045849464,-0.23819660112501048,
-0.26180339887498949,-0.20978869674096928,
-0.2,-0.2,
-0.13819660112501053,-0.20978869674096928,
-0.082442949541505411,-0.23819660112501051,
-0.03819660112501054,-0.28244294954150539,
-0.00978869674096932,-0.33819660112501049,
-0.000000000000000024492127076447546,-0.4,
-0.0097886967409693271,-0.46180339887498956,
-0.038196601125010533,-0.51755705045849465,
-0.082442949541505384,-0.56180339887498953,
-0.13819660112501053,-0.59021130325903071,
-0.2,-0.60000000000000009,
-0.26180339887498955,-0.59021130325903082,
-0.31755705045849464,-0.56180339887498953,
-0.36180339887498952,-0.51755705045849476,
-0.39021130325903081,-0.46180339887498956,
0*
4,1,19,
-0.000000000000000024492127076447546,-0.4,
0.0097886967409692785,-0.33819660112501054,
0.038196601125010485,-0.28244294954150539,
0.08244294954150537,-0.23819660112501051,
0.13819660112501053,-0.20978869674096931,
0.2,-0.2,
0.26180339887498949,-0.20978869674096931,
0.31755705045849464,-0.23819660112501054,
0.36180339887498947,-0.28244294954150539,
0.39021130325903075,-0.33819660112501049,
0.4,-0.4,
0.3902113032590307,-0.46180339887498956,
0.36180339887498947,-0.51755705045849465,
0.31755705045849464,-0.56180339887498953,
0.26180339887498949,-0.59021130325903071,
0.2,-0.60000000000000009,
0.13819660112501053,-0.59021130325903082,
0.0824429495415054,-0.56180339887498953,
0.038196601125010492,-0.51755705045849476,
0.0097886967409692716,-0.46180339887498956,
0*
4,1,3,
0.20000000000000004,0.60000000000000009,
0.2,0.2,
-0.2,0.2,
-0.19999999999999998,0.60000000000000009,
0*
4,1,3,
-0.4,0.4,
0.000000000000000024492127076447546,0.4,
-0.000000000000000024492127076447546,-0.4,
-0.4,-0.4,
0*
4,1,3,
-0.20000000000000004,-0.60000000000000009,
-0.2,-0.2,
0.2,-0.2,
0.19999999999999998,-0.60000000000000009,
0*
4,1,3,
0.4,-0.4,
-0.000000000000000024492127076447546,-0.4,
0.000000000000000024492127076447546,0.4,
0.4,0.4,
0*%
%ADD41COMP90,0.2X0.4X-0.2X0.4X0.2X-0.4X0.2X-0.4X-0.2X0*%
%ADD42O,1.1X1.7*%
%AMCOMP91*
4,1,3,
-0.21875000000000003,-0.25625,
0.21874999999999997,-0.25625,
0.21875000000000003,0.25625,
-0.21874999999999997,0.25625,
0*
4,1,19,
-0.4375,-0.25625,
-0.42679361293956486,-0.18865253248048022,
-0.39572246751951978,-0.12767197606102146,
-0.34732802393897849,-0.0792775324804802,
-0.28634746751951978,-0.048206387060435126,
-0.21875,-0.037499999999999964,
-0.15115253248048027,-0.048206387060435112,
-0.090171976061021536,-0.079277532480480223,
-0.04177753248048028,-0.12767197606102146,
-0.010706387060435181,-0.1886525324804802,
-0.000000000000000015690268908349208,-0.25625,
-0.010706387060435188,-0.32384746751951976,
-0.041777532480480238,-0.38482802393897841,
-0.090171976061021508,-0.43322246751951971,
-0.15115253248048025,-0.46429361293956484,
-0.21875,-0.475,
-0.28634746751951973,-0.46429361293956484,
-0.34732802393897844,-0.43322246751951976,
-0.39572246751951973,-0.38482802393897853,
-0.42679361293956486,-0.32384746751951976,
0*
4,1,19,
-0.000000000000000015690268908349208,-0.25625,
0.010706387060435156,-0.18865253248048025,
0.041777532480480238,-0.12767197606102149,
0.090171976061021508,-0.079277532480480223,
0.15115253248048025,-0.048206387060435153,
0.21875,-0.037499999999999992,
0.28634746751951973,-0.048206387060435139,
0.34732802393897844,-0.079277532480480251,
0.39572246751951973,-0.12767197606102149,
0.42679361293956486,-0.18865253248048022,
0.4375,-0.25625,
0.42679361293956486,-0.32384746751951976,
0.39572246751951978,-0.38482802393897841,
0.34732802393897855,-0.43322246751951971,
0.28634746751951973,-0.46429361293956484,
0.21875,-0.475,
0.15115253248048027,-0.46429361293956484,
0.090171976061021536,-0.43322246751951976,
0.041777532480480252,-0.38482802393897853,
0.010706387060435149,-0.32384746751951976,
0*
4,1,19,
0.000000000000000015690268908349208,0.25625,
0.010706387060435188,0.32384746751951971,
0.041777532480480266,0.38482802393897847,
0.090171976061021536,0.43322246751951976,
0.15115253248048027,0.46429361293956484,
0.21875000000000003,0.475,
0.28634746751951978,0.46429361293956484,
0.34732802393897844,0.43322246751951976,
0.39572246751951973,0.38482802393897853,
0.42679361293956486,0.32384746751951976,
0.4375,0.25625,
0.42679361293956486,0.18865253248048014,
0.39572246751951978,0.12767197606102149,
0.34732802393897855,0.079277532480480223,
0.28634746751951978,0.048206387060435126,
0.21875000000000003,0.037499999999999964,
0.1511525324804803,0.048206387060435112,
0.090171976061021564,0.0792775324804802,
0.04177753248048028,0.12767197606102143,
0.010706387060435181,0.1886525324804802,
0*
4,1,19,
-0.4375,0.25625,
-0.42679361293956486,0.32384746751951971,
-0.39572246751951978,0.38482802393897847,
-0.34732802393897849,0.43322246751951976,
-0.28634746751951973,0.46429361293956484,
-0.21874999999999997,0.475,
-0.15115253248048025,0.46429361293956484,
-0.090171976061021508,0.43322246751951976,
-0.041777532480480252,0.38482802393897853,
-0.010706387060435149,0.32384746751951976,
0.000000000000000015690268908349208,0.25625,
-0.010706387060435156,0.18865253248048017,
-0.04177753248048021,0.12767197606102151,
-0.09017197606102148,0.079277532480480251,
-0.15115253248048022,0.048206387060435153,
-0.21874999999999997,0.037499999999999992,
-0.28634746751951967,0.048206387060435139,
-0.34732802393897844,0.079277532480480223,
-0.39572246751951973,0.12767197606102146,
-0.42679361293956486,0.18865253248048022,
0*
4,1,3,
-0.21875000000000003,-0.475,
-0.21875,-0.037499999999999964,
0.21875,-0.037499999999999992,
0.21874999999999997,-0.475,
0*
4,1,3,
0.4375,-0.25625,
-0.000000000000000015690268908349208,-0.25625,
0.000000000000000015690268908349208,0.25625,
0.4375,0.25625,
0*
4,1,3,
0.21875000000000003,0.475,
0.21875,0.037499999999999964,
-0.21875,0.037499999999999992,
-0.21874999999999997,0.475,
0*
4,1,3,
-0.4375,0.25625,
0.000000000000000015690268908349208,0.25625,
-0.000000000000000015690268908349208,-0.25625,
-0.4375,-0.25625,
0*%
%ADD43COMP91,0.21875X-0.25625X0.21875X-0.25625X-0.21875X0.25625X-0.21875X0.25625X0.21875X0*%
%ADD44R,2X1.8*%
%AMCOMP92*
4,1,3,
-0.20000000000000004,-0.275,
0.19999999999999998,-0.275,
0.20000000000000004,0.275,
-0.19999999999999998,0.275,
0*
4,1,19,
-0.4,-0.275,
-0.39021130325903075,-0.21319660112501052,
-0.36180339887498952,-0.15744294954150537,
-0.31755705045849464,-0.1131966011250105,
-0.26180339887498949,-0.0847886967409693,
-0.2,-0.075,
-0.13819660112501053,-0.084788696740969269,
-0.0824429495415054,-0.11319660112501051,
-0.038196601125010533,-0.15744294954150537,
-0.0097886967409693132,-0.21319660112501052,
-0.000000000000000016838337365057688,-0.275,
-0.00978869674096932,-0.33680339887498956,
-0.038196601125010519,-0.39255705045849465,
-0.082442949541505384,-0.43680339887498953,
-0.13819660112501053,-0.46521130325903071,
-0.2,-0.47500000000000003,
-0.26180339887498955,-0.46521130325903076,
-0.31755705045849458,-0.43680339887498953,
-0.36180339887498947,-0.39255705045849471,
-0.39021130325903075,-0.33680339887498956,
0*
4,1,19,
-0.000000000000000016838337365057688,-0.275,
0.0097886967409692854,-0.21319660112501054,
0.038196601125010492,-0.15744294954150539,
0.082442949541505384,-0.11319660112501051,
0.13819660112501053,-0.084788696740969324,
0.2,-0.075000000000000025,
0.26180339887498949,-0.0847886967409693,
0.31755705045849464,-0.11319660112501052,
0.36180339887498947,-0.15744294954150539,
0.39021130325903075,-0.21319660112501054,
0.4,-0.275,
0.39021130325903075,-0.33680339887498956,
0.36180339887498952,-0.39255705045849465,
0.31755705045849469,-0.43680339887498953,
0.26180339887498949,-0.46521130325903071,
0.2,-0.47500000000000003,
0.13819660112501053,-0.46521130325903076,
0.0824429495415054,-0.43680339887498953,
0.038196601125010506,-0.39255705045849471,
0.0097886967409692785,-0.33680339887498956,
0*
4,1,19,
0.000000000000000016838337365057688,0.275,
0.00978869674096932,0.3368033988749895,
0.038196601125010519,0.39255705045849465,
0.082442949541505411,0.43680339887498953,
0.13819660112501056,0.46521130325903071,
0.20000000000000004,0.47500000000000003,
0.26180339887498955,0.46521130325903076,
0.31755705045849464,0.43680339887498953,
0.36180339887498947,0.39255705045849465,
0.39021130325903075,0.33680339887498956,
0.4,0.275,
0.39021130325903075,0.21319660112501046,
0.36180339887498952,0.15744294954150537,
0.31755705045849469,0.11319660112501052,
0.26180339887498955,0.0847886967409693,
0.20000000000000004,0.075,
0.13819660112501056,0.084788696740969269,
0.082442949541505425,0.11319660112501051,
0.038196601125010533,0.15744294954150534,
0.0097886967409693132,0.21319660112501049,
0*
4,1,19,
-0.4,0.275,
-0.39021130325903075,0.3368033988749895,
-0.36180339887498952,0.39255705045849465,
-0.31755705045849464,0.43680339887498953,
-0.26180339887498943,0.46521130325903071,
-0.19999999999999998,0.47500000000000003,
-0.1381966011250105,0.46521130325903076,
-0.08244294954150537,0.43680339887498953,
-0.038196601125010506,0.39255705045849465,
-0.0097886967409692785,0.33680339887498956,
0.000000000000000016838337365057688,0.275,
-0.0097886967409692854,0.21319660112501049,
-0.038196601125010492,0.15744294954150539,
-0.082442949541505356,0.11319660112501054,
-0.1381966011250105,0.084788696740969324,
-0.19999999999999998,0.075000000000000025,
-0.26180339887498949,0.0847886967409693,
-0.31755705045849458,0.11319660112501052,
-0.36180339887498947,0.15744294954150537,
-0.39021130325903075,0.21319660112501052,
0*
4,1,3,
-0.20000000000000004,-0.47500000000000003,
-0.2,-0.075,
0.2,-0.075000000000000025,
0.19999999999999998,-0.47500000000000003,
0*
4,1,3,
0.4,-0.275,
-0.000000000000000016838337365057688,-0.275,
0.000000000000000016838337365057688,0.275,
0.4,0.275,
0*
4,1,3,
0.20000000000000004,0.47500000000000003,
0.2,0.075,
-0.2,0.075000000000000025,
-0.19999999999999998,0.47500000000000003,
0*
4,1,3,
-0.4,0.275,
0.000000000000000016838337365057688,0.275,
-0.000000000000000016838337365057688,-0.275,
-0.4,-0.275,
0*%
%ADD45COMP92,0.2X-0.275X0.2X-0.275X-0.2X0.275X-0.2X0.275X0.2X0*%
%AMCOMP93*
4,1,3,
-0.185,0.135,
-0.185,-0.135,
0.185,-0.135,
0.185,0.135,
0*
4,1,19,
-0.32,0.13500000000000004,
-0.31339262969984572,0.17671729424061794,
-0.29421729424061793,0.21435100905948393,
-0.26435100905948389,0.24421729424061794,
-0.22671729424061787,0.26339262969984578,
-0.18499999999999997,0.27,
-0.14328270575938207,0.26339262969984578,
-0.10564899094051612,0.24421729424061792,
-0.075782705759382091,0.2143510090594839,
-0.056607370300154239,0.17671729424061794,
-0.049999999999999982,0.13500000000000004,
-0.056607370300154246,0.093282705759382065,
-0.075782705759382063,0.055648990940516153,
-0.10564899094051611,0.025782705759382123,
-0.14328270575938207,0.0066073703001542725,
-0.18499999999999997,0.000000000000000011327608772856987,
-0.22671729424061787,0.0066073703001542777,
-0.26435100905948383,0.025782705759382091,
-0.29421729424061788,0.055648990940516126,
-0.31339262969984572,0.093282705759382092,
0*
4,1,19,
-0.32,-0.13499999999999998,
-0.31339262969984572,-0.093282705759382092,
-0.29421729424061793,-0.055648990940516112,
-0.26435100905948389,-0.025782705759382085,
-0.2267172942406179,-0.00660737030015425,
-0.185,0.00000000000000001132760877285699,
-0.1432827057593821,-0.0066073703001542552,
-0.10564899094051614,-0.025782705759382095,
-0.0757827057593821,-0.055648990940516112,
-0.05660737030015426,-0.093282705759382092,
-0.049999999999999996,-0.13499999999999998,
-0.056607370300154267,-0.17671729424061794,
-0.075782705759382077,-0.21435100905948387,
-0.10564899094051612,-0.24421729424061789,
-0.1432827057593821,-0.26339262969984578,
-0.185,-0.27,
-0.2267172942406179,-0.26339262969984578,
-0.26435100905948383,-0.24421729424061792,
-0.29421729424061788,-0.21435100905948387,
-0.31339262969984572,-0.17671729424061791,
0*
4,1,19,
0.049999999999999982,-0.135,
0.056607370300154246,-0.0932827057593821,
0.075782705759382091,-0.05564899094051614,
0.10564899094051612,-0.025782705759382109,
0.1432827057593821,-0.0066073703001542725,
0.185,-0.00000000000000001132760877285699,
0.2267172942406179,-0.0066073703001542777,
0.26435100905948383,-0.025782705759382119,
0.29421729424061788,-0.05564899094051614,
0.31339262969984572,-0.0932827057593821,
0.32,-0.135,
0.31339262969984572,-0.17671729424061797,
0.29421729424061793,-0.2143510090594839,
0.26435100905948389,-0.24421729424061792,
0.2267172942406179,-0.26339262969984578,
0.185,-0.27,
0.1432827057593821,-0.26339262969984578,
0.10564899094051614,-0.24421729424061794,
0.075782705759382091,-0.2143510090594839,
0.056607370300154239,-0.17671729424061794,
0*
4,1,19,
0.049999999999999996,0.135,
0.056607370300154267,0.17671729424061791,
0.0757827057593821,0.2143510090594839,
0.10564899094051614,0.24421729424061792,
0.14328270575938212,0.26339262969984578,
0.18500000000000003,0.27,
0.22671729424061793,0.26339262969984578,
0.26435100905948383,0.24421729424061789,
0.29421729424061788,0.21435100905948387,
0.31339262969984572,0.17671729424061791,
0.32,0.135,
0.31339262969984572,0.093282705759382051,
0.29421729424061793,0.055648990940516126,
0.26435100905948389,0.0257827057593821,
0.22671729424061793,0.00660737030015425,
0.18500000000000003,-0.000000000000000011327608772856992,
0.14328270575938212,0.0066073703001542552,
0.10564899094051615,0.025782705759382067,
0.0757827057593821,0.0556489909405161,
0.05660737030015426,0.093282705759382079,
0*
4,1,3,
-0.32,0.13500000000000004,
-0.049999999999999982,0.135,
-0.049999999999999996,-0.135,
-0.32,-0.13499999999999998,
0*
4,1,3,
-0.18500000000000003,-0.27,
-0.185,0.00000000000000001132760877285699,
0.185,-0.00000000000000001132760877285699,
0.18499999999999997,-0.27,
0*
4,1,3,
0.32,-0.13500000000000004,
0.049999999999999982,-0.135,
0.049999999999999996,0.135,
0.32,0.13499999999999998,
0*
4,1,3,
0.18500000000000003,0.27,
0.185,-0.00000000000000001132760877285699,
-0.185,0.00000000000000001132760877285699,
-0.18499999999999997,0.27,
0*%
%ADD46COMP93,0.135X0.135X0.185X-0.135X0.185X-0.135X-0.185X0.135X-0.185X0*%
%ADD47R,1.2X2.316*%
%AMCOMP94*
4,1,3,
-0.65,0.32500000000000007,
-0.65,-0.32499999999999996,
0.65,-0.32500000000000007,
0.65,0.32499999999999996,
0*
4,1,19,
-0.9,0.32500000000000007,
-0.88776412907378843,0.40225424859373693,
-0.85225424859373689,0.47194631307311835,
-0.79694631307311825,0.52725424859373682,
-0.72725424859373689,0.56276412907378837,
-0.65,0.575,
-0.57274575140626316,0.56276412907378837,
-0.50305368692688179,0.52725424859373682,
-0.4477457514062631,0.4719463130731183,
-0.41223587092621161,0.40225424859373687,
-0.4,0.32500000000000007,
-0.41223587092621161,0.24774575140626312,
-0.44774575140626316,0.17805368692688178,
-0.50305368692688168,0.1227457514062632,
-0.57274575140626316,0.08723587092621167,
-0.65,0.075000000000000053,
-0.72725424859373677,0.087235870926211642,
-0.79694631307311825,0.12274575140626318,
-0.85225424859373689,0.17805368692688173,
-0.88776412907378843,0.24774575140626315,
0*
4,1,19,
-0.9,-0.32499999999999996,
-0.88776412907378843,-0.24774575140626309,
-0.85225424859373689,-0.17805368692688167,
-0.79694631307311825,-0.12274575140626309,
-0.72725424859373689,-0.087235870926211587,
-0.65,-0.074999999999999969,
-0.57274575140626316,-0.087235870926211559,
-0.50305368692688179,-0.12274575140626312,
-0.44774575140626316,-0.17805368692688167,
-0.41223587092621161,-0.24774575140626312,
-0.4,-0.32499999999999996,
-0.41223587092621161,-0.40225424859373693,
-0.44774575140626321,-0.4719463130731183,
-0.50305368692688168,-0.52725424859373682,
-0.57274575140626316,-0.56276412907378837,
-0.65,-0.575,
-0.72725424859373677,-0.56276412907378837,
-0.79694631307311825,-0.52725424859373693,
-0.85225424859373689,-0.4719463130731183,
-0.88776412907378843,-0.40225424859373687,
0*
4,1,19,
0.4,-0.325,
0.41223587092621161,-0.24774575140626318,
0.44774575140626316,-0.17805368692688175,
0.50305368692688179,-0.12274575140626318,
0.57274575140626316,-0.08723587092621167,
0.65,-0.075000000000000053,
0.72725424859373689,-0.087235870926211642,
0.79694631307311825,-0.1227457514062632,
0.85225424859373689,-0.17805368692688175,
0.88776412907378843,-0.2477457514062632,
0.9,-0.325,
0.88776412907378843,-0.402254248593737,
0.85225424859373689,-0.47194631307311835,
0.79694631307311836,-0.52725424859373682,
0.72725424859373689,-0.56276412907378837,
0.65,-0.575,
0.57274575140626327,-0.56276412907378837,
0.50305368692688179,-0.52725424859373693,
0.4477457514062631,-0.47194631307311835,
0.41223587092621161,-0.40225424859373693,
0*
4,1,19,
0.4,0.325,
0.41223587092621161,0.40225424859373687,
0.44774575140626321,0.4719463130731183,
0.50305368692688179,0.52725424859373682,
0.57274575140626316,0.56276412907378837,
0.65,0.575,
0.72725424859373689,0.56276412907378837,
0.79694631307311825,0.52725424859373682,
0.85225424859373689,0.47194631307311824,
0.88776412907378843,0.40225424859373682,
0.9,0.325,
0.88776412907378843,0.24774575140626304,
0.85225424859373689,0.1780536869268817,
0.79694631307311836,0.12274575140626312,
0.72725424859373689,0.087235870926211587,
0.65,0.074999999999999969,
0.57274575140626327,0.087235870926211559,
0.50305368692688179,0.12274575140626309,
0.44774575140626316,0.17805368692688164,
0.41223587092621161,0.24774575140626307,
0*
4,1,3,
-0.9,0.32500000000000007,
-0.4,0.325,
-0.4,-0.325,
-0.9,-0.32499999999999996,
0*
4,1,3,
-0.65,-0.575,
-0.65,-0.074999999999999969,
0.65,-0.075000000000000053,
0.65,-0.575,
0*
4,1,3,
0.9,-0.32500000000000007,
0.4,-0.325,
0.4,0.325,
0.9,0.32499999999999996,
0*
4,1,3,
0.65,0.575,
0.65,0.074999999999999969,
-0.65,0.075000000000000053,
-0.65,0.575,
0*%
%ADD48COMP94,0.25X0.325X0.65X-0.325X0.65X-0.325X-0.65X0.325X-0.65X0*%
G04 APERTURE END LIST*
D10*
X0005341039Y0027868664D02*
X0005341039Y0027368664D01*
X0004841039Y0027368664D01*
X0004841039Y0027668664D01*
X0004741039Y0027668664D01*
X0004741039Y0027868664D01*
X0005341039Y0027868664D01*
G36*
X0005341039Y0027868664D02*
G01*
X0005341039Y0027368664D01*
X0004841039Y0027368664D01*
X0004841039Y0027668664D01*
X0004741039Y0027668664D01*
X0004741039Y0027868664D01*
X0005341039Y0027868664D01*
G37*
X0024774921Y0005315257D02*
X0024774921Y0004815257D01*
X0024174922Y0004815257D01*
X0024174922Y0005315257D01*
X0024774921Y0005315257D01*
G36*
X0024774921Y0005315257D02*
G01*
X0024774921Y0004815257D01*
X0024174922Y0004815257D01*
X0024174922Y0005315257D01*
X0024774921Y0005315257D01*
G37*
X0022774921Y0006265256D02*
X0022774921Y0005765256D01*
X0022174922Y0005765256D01*
X0022174922Y0006265256D01*
X0022774921Y0006265256D01*
G36*
X0022774921Y0006265256D02*
G01*
X0022774921Y0005765256D01*
X0022174922Y0005765256D01*
X0022174922Y0006265256D01*
X0022774921Y0006265256D01*
G37*
X0024774921Y0007215257D02*
X0024774921Y0006715257D01*
X0024174922Y0006715257D01*
X0024174922Y0007215257D01*
X0024774921Y0007215257D01*
G36*
X0024774921Y0007215257D02*
G01*
X0024774921Y0006715257D01*
X0024174922Y0006715257D01*
X0024174922Y0007215257D01*
X0024774921Y0007215257D01*
G37*
X0006060442Y0012969740D02*
X0006060442Y0012669739D01*
X0006160442Y0012669739D01*
X0006160442Y0012469740D01*
X0005560442Y0012469740D01*
X0005560442Y0012969740D01*
X0006060442Y0012969740D01*
G36*
X0006060442Y0012969740D02*
G01*
X0006060442Y0012669739D01*
X0006160442Y0012669739D01*
X0006160442Y0012469740D01*
X0005560442Y0012469740D01*
X0005560442Y0012969740D01*
X0006060442Y0012969740D01*
G37*
D11*
X0006224922Y0031810088D03*
X0004134399Y0029181739D03*
X0006224921Y0028060088D03*
X0004122708Y0028421807D03*
X0006224921Y0028810088D03*
X0006224922Y0030310088D03*
X0004637542Y0033041775D03*
D12*
X0005174922Y0030310088D03*
D11*
X0005413757Y0033031582D03*
X0006224922Y0032560088D03*
X0004134399Y0032268234D03*
X0004134399Y0031473228D03*
X0004122708Y0030678221D03*
X0004134399Y0029941671D03*
X0006224922Y0031060088D03*
X0006224921Y0029560088D03*
D13*
X0005224922Y0034505257D03*
X0005224922Y0035465257D03*
D14*
X0010224922Y0035365257D03*
X0010224922Y0033715257D03*
D15*
X0007974922Y0030945256D03*
X0007974922Y0031965257D03*
D16*
X0018750000Y0005174999D03*
X0018750000Y0006825000D03*
X0045500000Y0004849999D03*
X0045500000Y0006499999D03*
D13*
X0005000000Y0004965257D03*
X0005000000Y0005925257D03*
D17*
X0058724922Y0033215256D03*
X0057454921Y0033215256D03*
X0056184922Y0033215256D03*
X0054914922Y0033215256D03*
X0054914922Y0027815256D03*
X0052374922Y0033215256D03*
X0051104922Y0033215256D03*
X0049834922Y0033215256D03*
X0049834922Y0027815256D03*
X0051104922Y0027815256D03*
X0052374922Y0027815256D03*
X0053644921Y0027815256D03*
X0053644921Y0033215256D03*
X0056184922Y0027815256D03*
X0057454921Y0027815256D03*
X0058724922Y0027815256D03*
D14*
X0011724922Y0031965257D03*
X0011724922Y0030315257D03*
X0050251594Y0007121609D03*
X0050251594Y0005471609D03*
D18*
X0019224922Y0026175257D03*
X0019224922Y0025215257D03*
D14*
X0035724922Y0032290256D03*
X0035724922Y0030640256D03*
D19*
X0048953145Y0013986132D03*
X0049994067Y0014520903D03*
X0049467600Y0013432258D03*
X0048950587Y0013373179D03*
X0047485667Y0013553416D03*
X0049986500Y0013978861D03*
X0049994067Y0013356935D03*
X0049465705Y0012831693D03*
X0049465892Y0013993510D03*
X0049485954Y0014525355D03*
X0047958619Y0013336465D03*
X0048014545Y0012809515D03*
X0048483715Y0014473214D03*
X0048458645Y0013979530D03*
X0048441289Y0013381710D03*
X0047611498Y0012637883D03*
X0048028600Y0014465500D03*
X0048425861Y0012828244D03*
X0049994067Y0012848935D03*
X0048950574Y0014497902D03*
X0047528386Y0014498652D03*
X0047287986Y0014057264D03*
X0048950587Y0012865179D03*
X0047299088Y0012976327D03*
X0047990271Y0013760233D03*
D20*
X0024020000Y0029255257D03*
X0025340000Y0029255256D03*
X0026659999Y0029255256D03*
X0027979999Y0029255256D03*
X0024020000Y0030575257D03*
X0025340000Y0030575256D03*
X0026660000Y0030575256D03*
X0027980000Y0030575256D03*
X0024020000Y0031895257D03*
X0025340000Y0031895256D03*
X0026660000Y0031895256D03*
X0027980000Y0031895256D03*
X0024020000Y0033215257D03*
X0025340000Y0033215256D03*
X0026660000Y0033215256D03*
X0027980000Y0033215256D03*
D21*
X0023750000Y0027785257D03*
X0023250000Y0027785257D03*
X0024250000Y0027785257D03*
X0024750000Y0027785257D03*
D22*
X0029450000Y0031485256D03*
X0029450000Y0032485256D03*
X0029450000Y0032985256D03*
X0029450000Y0031985256D03*
D21*
X0027250000Y0027785256D03*
D23*
X0023250000Y0034685257D03*
D22*
X0029450000Y0033985256D03*
X0029450000Y0029485256D03*
D24*
X0029450000Y0029985256D03*
X0029450000Y0028985256D03*
X0029450000Y0030985256D03*
X0029450000Y0030485256D03*
D25*
X0025250000Y0027785256D03*
X0025750000Y0027785256D03*
D24*
X0029450000Y0028485256D03*
D25*
X0026250000Y0027785256D03*
X0026750000Y0027785256D03*
D24*
X0022550000Y0032485256D03*
D25*
X0027750000Y0027785256D03*
D24*
X0022550000Y0031985256D03*
D21*
X0028750000Y0034685256D03*
X0028250000Y0034685256D03*
X0027750000Y0034685256D03*
X0027250000Y0034685256D03*
X0026750000Y0034685256D03*
X0026250000Y0034685256D03*
X0025750000Y0034685256D03*
X0025250000Y0034685256D03*
X0024750000Y0034685257D03*
D22*
X0022550000Y0030485256D03*
X0022549999Y0029985256D03*
X0029450000Y0033485256D03*
D24*
X0022550000Y0033985257D03*
X0022550000Y0033485256D03*
X0022550000Y0032985256D03*
D25*
X0028750000Y0027785256D03*
X0028250000Y0027785256D03*
D24*
X0022550000Y0031485256D03*
X0022549999Y0028985256D03*
D25*
X0024250000Y0034685257D03*
X0023750000Y0034685257D03*
D24*
X0022549999Y0029485256D03*
X0022550000Y0030985256D03*
X0022549999Y0028485256D03*
D26*
X0033250000Y0005299999D03*
X0033250000Y0008249999D03*
D16*
X0026000000Y0011599999D03*
X0026000000Y0013249999D03*
D27*
X0037250000Y0007499999D03*
X0037250000Y0005949999D03*
D28*
X0007974922Y0033715257D03*
X0007974922Y0035265257D03*
D27*
X0047000000Y0008774999D03*
X0047000000Y0007224999D03*
D16*
X0025974922Y0007815256D03*
X0025974922Y0009465256D03*
D29*
X0046724922Y0025715256D03*
X0046724922Y0024140256D03*
D30*
X0009500000Y0017000000D03*
X0009000000Y0017000000D03*
X0008500000Y0017000000D03*
X0013000000Y0017000000D03*
X0012500000Y0017000000D03*
X0012000000Y0017000000D03*
X0011500000Y0017000000D03*
X0011000000Y0017000000D03*
X0010500000Y0017000000D03*
X0010000000Y0017000000D03*
X0014000000Y0017000000D03*
X0013500000Y0017000000D03*
D31*
X0007549999Y0014500000D03*
X0014950000Y0014500000D03*
D14*
X0053000000Y0010649999D03*
X0053000000Y0008999999D03*
D32*
X0017474922Y0026365257D03*
X0017474922Y0024465257D03*
D14*
X0011250000Y0012715257D03*
X0011250000Y0011065257D03*
D33*
X0018500000Y0010000000D03*
X0016850000Y0010000000D03*
D29*
X0049724922Y0010252756D03*
X0049724922Y0008677756D03*
D16*
X0005000000Y0015100000D03*
X0005000000Y0016750000D03*
D34*
X0030250000Y0009549999D03*
X0029450001Y0009549999D03*
X0029850001Y0008305399D03*
D35*
X0049724922Y0017462499D03*
X0049724922Y0019037499D03*
D36*
X0039930000Y0011119999D03*
D37*
X0037910000Y0011119999D03*
D38*
X0036680000Y0011119999D03*
D39*
X0038930000Y0011119999D03*
D40*
X0040950000Y0011119999D03*
D41*
X0042180000Y0011119999D03*
D42*
X0043750000Y0011199999D03*
X0043750000Y0014999999D03*
X0035110000Y0011199999D03*
X0035110000Y0014999999D03*
D28*
X0009000000Y0008950000D03*
X0009000000Y0010500000D03*
D35*
X0017724922Y0028677757D03*
X0017724922Y0030252757D03*
D29*
X0049224922Y0025215256D03*
X0049224922Y0023640256D03*
D28*
X0044474922Y0026165256D03*
X0044474922Y0027715256D03*
D16*
X0014250000Y0005100000D03*
X0014250000Y0006750000D03*
D43*
X0021399921Y0010215257D03*
X0022974922Y0010215257D03*
D35*
X0064224922Y0031427756D03*
X0064224922Y0033002756D03*
D16*
X0025974922Y0015065256D03*
X0025974922Y0016715256D03*
D18*
X0046224922Y0034965256D03*
X0046224922Y0034005256D03*
D27*
X0044474922Y0035215256D03*
X0044474922Y0033665256D03*
D44*
X0017750000Y0014500000D03*
X0023750000Y0014500000D03*
D28*
X0008224921Y0028165256D03*
X0008224921Y0029715257D03*
D16*
X0053000000Y0005499999D03*
X0053000000Y0007149999D03*
D28*
X0008750000Y0004950000D03*
X0008750000Y0006500000D03*
D45*
X0031824922Y0033965256D03*
X0033474922Y0033965256D03*
D14*
X0009974922Y0032040256D03*
X0009974922Y0030390257D03*
D15*
X0052224922Y0013455256D03*
X0052224922Y0014475256D03*
D30*
X0013774921Y0023715257D03*
X0014274921Y0023715257D03*
X0013274921Y0023715257D03*
X0012774921Y0023715257D03*
X0011774921Y0023715257D03*
X0012274921Y0023715257D03*
X0011274921Y0023715257D03*
X0010774921Y0023715257D03*
X0010274921Y0023715257D03*
X0009774921Y0023715257D03*
X0009274921Y0023715257D03*
X0008774921Y0023715257D03*
D31*
X0015224922Y0026215257D03*
X0007824922Y0026215257D03*
D16*
X0038474922Y0030401166D03*
X0038474922Y0032051166D03*
D14*
X0033224922Y0032465256D03*
X0033224922Y0030815256D03*
D15*
X0009000000Y0011990000D03*
X0009000000Y0013009999D03*
D35*
X0064224922Y0028177756D03*
X0064224922Y0029752756D03*
D16*
X0015974922Y0028640257D03*
X0015974922Y0030290256D03*
D15*
X0015974922Y0034205257D03*
X0015974922Y0035225257D03*
D46*
X0011750000Y0006270000D03*
X0011750000Y0005250000D03*
D14*
X0054724922Y0015790256D03*
X0054724922Y0014140256D03*
D29*
X0047724922Y0018965256D03*
X0047724922Y0017390256D03*
D11*
X0007000000Y0011456116D03*
X0004862712Y0008777484D03*
X0007000000Y0007706116D03*
X0004862712Y0008027484D03*
X0007000000Y0008456116D03*
X0007000000Y0009956116D03*
X0005521321Y0007175401D03*
D47*
X0005950000Y0009956116D03*
D11*
X0006246178Y0007190989D03*
X0007000000Y0012206116D03*
X0004862712Y0011777484D03*
X0004862712Y0011027484D03*
X0004862712Y0010277484D03*
X0004862712Y0009527484D03*
X0007000000Y0010706116D03*
X0007000000Y0009206116D03*
D16*
X0042500000Y0004849999D03*
X0042500000Y0006499999D03*
D34*
X0029600001Y0012377699D03*
X0030399999Y0012377699D03*
X0030000000Y0013622299D03*
D16*
X0013500000Y0008850000D03*
X0013500000Y0010500000D03*
D28*
X0044474922Y0029665256D03*
X0044474922Y0031215256D03*
D48*
X0032500000Y0016999999D03*
X0032500000Y0014049999D03*
D16*
X0013974922Y0033815257D03*
X0013974922Y0035465257D03*
D14*
X0004474921Y0025465257D03*
X0004474921Y0023815257D03*
M02*