G04 #@! TF.GenerationSoftware,KiCad,Pcbnew,8.0.7*
G04 #@! TF.CreationDate,2025-06-23T12:01:53+08:00*
G04 #@! TF.ProjectId,Pagtingin_Final,50616774-696e-4676-996e-5f46696e616c,rev?*
G04 #@! TF.SameCoordinates,Original*
G04 #@! TF.FileFunction,Profile,NP*
%FSLAX46Y46*%
G04 Gerber Fmt 4.6, Leading zero omitted, Abs format (unit mm)*
G04 Created by KiCad (PCBNEW 8.0.7) date 2025-06-23 12:01:53*
%MOMM*%
%LPD*%
G01*
G04 APERTURE LIST*
G04 #@! TA.AperFunction,Profile*
%ADD10C,0.05*%
G04 #@! TD*
G04 APERTURE END LIST*
D10*
X0001724921Y0018465257D02*
X0001724921Y0003215256D01*
X0057224922Y0035965256D02*
X0062974922Y0034965256D01*
X0056724922Y0004715256D02*
X0062974922Y0007965256D01*
X0053474922Y0004215256D02*
X0056724922Y0004715256D01*
X0001724921Y0003215256D02*
X0044724922Y0002965256D01*
X0045475078Y0018465256D02*
X0047750000Y0020999999D01*
X0104974921Y0036715256D02*
X0099224921Y0035465256D01*
X0079974922Y0007715256D02*
X0089000000Y0007715256D01*
X0062974922Y0027215256D02*
X0079974922Y0027465256D01*
X0105474921Y0023965256D02*
X0104974921Y0036715256D01*
X0051974922Y0036715256D02*
X0057224922Y0035965256D01*
X0062500000Y0014749999D02*
X0078000000Y0014749999D01*
X0079974922Y0027465256D02*
X0088974922Y0027465256D01*
X0077974922Y0033715256D02*
X0090224922Y0033715256D01*
X0044224922Y0022215256D02*
X0045724922Y0022215256D01*
X0106250000Y0017749999D02*
X0099250000Y0016499999D01*
X0002974921Y0018465257D02*
X0001724921Y0018465257D01*
X0090224922Y0033715256D02*
X0099224921Y0035465256D01*
X0089000000Y0007715256D02*
X0100500000Y0006249999D01*
X0050981903Y0003729881D02*
X0053474922Y0004215256D01*
X0049249999Y0022249999D02*
X0052700000Y0024999999D01*
X0088974922Y0027465256D02*
X0100474921Y0025215256D01*
X0002974921Y0018465257D02*
X0045475078Y0018465256D01*
X0001724921Y0021715257D02*
X0001724922Y0037215256D01*
X0001724921Y0021715257D02*
X0044224922Y0022215256D01*
X0090250000Y0014749999D02*
X0099250000Y0016499999D01*
X0044724922Y0002965256D02*
X0050981903Y0003729881D01*
X0106750000Y0004749999D02*
X0106250000Y0017749999D01*
X0001724922Y0037215256D02*
X0051974922Y0036715256D01*
X0062974922Y0034965256D02*
X0077974922Y0033715256D01*
X0100474921Y0025215256D02*
X0105474921Y0023965256D01*
X0100500000Y0006249999D02*
X0106750000Y0004749999D01*
X0057250000Y0017215256D02*
X0062500000Y0014749999D01*
X0052974922Y0017965256D02*
X0057250000Y0017215256D01*
X0062974922Y0007965256D02*
X0079974922Y0007715256D01*
X0078000000Y0014749999D02*
X0090250000Y0014749999D01*
X0062974922Y0027215256D02*
X0052700000Y0024999999D01*
X0045724922Y0022215256D02*
X0047750000Y0021750000D01*
X0049707736Y0020457736D02*
X0052974922Y0017965256D01*
X0049249999Y0022249999D02*
G75*
G02*
X0047750000Y0021750000I-0000999999J0000500000D01*
G01*
X0047750000Y0020999998D02*
G75*
G02*
X0049707736Y0020457736I0000499999J-0001999999D01*
G01*
M02*