G04 #@! TF.GenerationSoftware,KiCad,Pcbnew,8.0.7*
G04 #@! TF.CreationDate,2025-06-23T12:01:53+08:00*
G04 #@! TF.ProjectId,Pagtingin_Final,50616774-696e-4676-996e-5f46696e616c,rev?*
G04 #@! TF.SameCoordinates,Original*
G04 #@! TF.FileFunction,Paste,Bot*
G04 #@! TF.FilePolarity,Positive*
%FSLAX46Y46*%
G04 Gerber Fmt 4.6, Leading zero omitted, Abs format (unit mm)*
G04 Created by KiCad (PCBNEW 8.0.7) date 2025-06-23 12:01:53*
%MOMM*%
%LPD*%
G01*
G04 APERTURE LIST*
G04 Aperture macros list*
%AMRoundRect*
4,1,4,-3,2,-5,4,-7,6,-9,8,-3,2,0*
1,1,$1,$2,$3*
1,1,$1,$2,$3*
1,1,$1,$2,$3*
1,1,$1,$2,$3*
20,1,$1,$2,$3,$4,$5,90*
20,1,$1,$2,$3,$4,$5,90*
20,1,$1,$2,$3,$4,$5,90*
20,1,$1,$2,$3,$4,$5,90*%
G04 Aperture macros list end*
%AMCOMP20*
4,1,3,
-0.475,0.25000000000000006,
-0.475,-0.24999999999999997,
0.475,-0.25000000000000006,
0.475,0.24999999999999997,
0*
4,1,19,
-0.725,0.25000000000000006,
-0.71276412907378839,0.32725424859373692,
-0.67725424859373684,0.39694631307311834,
-0.62194631307311821,0.45225424859373692,
-0.55225424859373684,0.48776412907378847,
-0.47499999999999992,0.5,
-0.39774575140626306,0.48776412907378841,
-0.32805368692688175,0.45225424859373686,
-0.27274575140626311,0.39694631307311834,
-0.23723587092621157,0.32725424859373686,
-0.22499999999999995,0.25000000000000006,
-0.2372358709262116,0.17274575140626311,
-0.27274575140626311,0.10305368692688176,
-0.32805368692688164,0.047745751406263186,
-0.39774575140626311,0.012235870926211641,
-0.47499999999999992,0.000000000000000029084400903281456,
-0.55225424859373673,0.012235870926211622,
-0.62194631307311821,0.047745751406263144,
-0.67725424859373684,0.1030536869268817,
-0.71276412907378839,0.17274575140626314,
0*
4,1,19,
-0.725,-0.24999999999999994,
-0.71276412907378839,-0.17274575140626308,
-0.67725424859373684,-0.10305368692688167,
-0.62194631307311821,-0.0477457514062631,
-0.55225424859373684,-0.012235870926211584,
-0.475,0.000000000000000029084400903281456,
-0.39774575140626311,-0.012235870926211565,
-0.32805368692688175,-0.047745751406263116,
-0.27274575140626311,-0.10305368692688167,
-0.2372358709262116,-0.17274575140626311,
-0.225,-0.24999999999999997,
-0.23723587092621162,-0.32725424859373692,
-0.27274575140626311,-0.39694631307311823,
-0.32805368692688164,-0.45225424859373686,
-0.39774575140626317,-0.48776412907378841,
-0.475,-0.49999999999999994,
-0.55225424859373673,-0.48776412907378836,
-0.62194631307311821,-0.45225424859373681,
-0.67725424859373684,-0.39694631307311828,
-0.71276412907378839,-0.32725424859373686,
0*
4,1,19,
0.22499999999999995,-0.25,
0.2372358709262116,-0.17274575140626316,
0.27274575140626311,-0.10305368692688173,
0.32805368692688169,-0.047745751406263158,
0.39774575140626311,-0.012235870926211641,
0.475,-0.000000000000000029084400903281456,
0.55225424859373684,-0.012235870926211622,
0.62194631307311821,-0.047745751406263172,
0.67725424859373684,-0.10305368692688173,
0.71276412907378839,-0.17274575140626319,
0.725,-0.25,
0.71276412907378839,-0.327254248593737,
0.67725424859373684,-0.39694631307311828,
0.62194631307311832,-0.45225424859373692,
0.55225424859373684,-0.48776412907378847,
0.475,-0.5,
0.39774575140626311,-0.48776412907378841,
0.32805368692688175,-0.45225424859373686,
0.27274575140626311,-0.39694631307311834,
0.23723587092621157,-0.32725424859373692,
0*
4,1,19,
0.225,0.25,
0.23723587092621162,0.32725424859373686,
0.27274575140626311,0.39694631307311828,
0.32805368692688169,0.45225424859373686,
0.39774575140626317,0.48776412907378841,
0.47500000000000003,0.49999999999999994,
0.55225424859373684,0.48776412907378836,
0.62194631307311821,0.45225424859373681,
0.67725424859373684,0.39694631307311828,
0.71276412907378839,0.32725424859373681,
0.725,0.25,
0.71276412907378839,0.17274575140626303,
0.67725424859373684,0.1030536869268817,
0.62194631307311832,0.04774575140626313,
0.55225424859373684,0.012235870926211584,
0.47500000000000003,-0.000000000000000029084400903281462,
0.39774575140626317,0.012235870926211565,
0.32805368692688175,0.047745751406263089,
0.27274575140626311,0.10305368692688165,
0.2372358709262116,0.17274575140626305,
0*
4,1,3,
-0.725,0.25000000000000006,
-0.22499999999999995,0.24999999999999997,
-0.225,-0.25,
-0.725,-0.24999999999999992,
0*
4,1,3,
-0.47500000000000003,-0.49999999999999994,
-0.475,0.000000000000000029084400903281456,
0.475,-0.000000000000000029084400903281456,
0.47499999999999992,-0.5,
0*
4,1,3,
0.725,-0.25000000000000006,
0.22499999999999995,-0.24999999999999997,
0.225,0.25,
0.725,0.24999999999999992,
0*
4,1,3,
0.47500000000000003,0.49999999999999994,
0.475,-0.000000000000000029084400903281456,
-0.475,0.000000000000000029084400903281456,
-0.47499999999999992,0.5,
0*%
%ADD10COMP20,0.25X0.25X0.475X-0.25X0.475X-0.25X-0.475X0.25X-0.475X0*%
%AMCOMP21*
4,1,3,
0.25625,-0.21875000000000003,
0.25625,0.21874999999999997,
-0.25625,0.21875000000000003,
-0.25625,-0.21874999999999997,
0*
4,1,19,
0.037499999999999964,-0.21875,
0.048206387060435139,-0.15115253248048027,
0.079277532480480223,-0.090171976061021508,
0.12767197606102149,-0.041777532480480252,
0.18865253248048022,-0.010706387060435181,
0.25625,-0.000000000000000015690268908349208,
0.32384746751951971,-0.01070638706043516,
0.38482802393897841,-0.041777532480480266,
0.43322246751951971,-0.090171976061021508,
0.46429361293956484,-0.15115253248048025,
0.475,-0.21875,
0.46429361293956484,-0.28634746751951984,
0.43322246751951976,-0.34732802393897844,
0.38482802393897853,-0.39572246751951973,
0.32384746751951976,-0.42679361293956486,
0.25625000000000003,-0.4375,
0.18865253248048025,-0.42679361293956486,
0.12767197606102151,-0.39572246751951978,
0.079277532480480223,-0.34732802393897855,
0.048206387060435126,-0.28634746751951978,
0*
4,1,19,
0.037499999999999992,0.21875,
0.048206387060435167,0.28634746751951973,
0.079277532480480251,0.34732802393897849,
0.12767197606102151,0.39572246751951978,
0.18865253248048025,0.42679361293956486,
0.25625,0.4375,
0.32384746751951971,0.42679361293956486,
0.38482802393897841,0.39572246751951978,
0.43322246751951971,0.34732802393897855,
0.46429361293956484,0.28634746751951973,
0.475,0.21875,
0.46429361293956484,0.15115253248048016,
0.43322246751951976,0.090171976061021508,
0.38482802393897853,0.041777532480480252,
0.32384746751951976,0.010706387060435149,
0.25625000000000003,-0.000000000000000015690268908349211,
0.18865253248048028,0.010706387060435129,
0.12767197606102154,0.04177753248048021,
0.079277532480480251,0.090171976061021453,
0.048206387060435153,0.15115253248048022,
0*
4,1,19,
-0.475,0.21875000000000003,
-0.46429361293956484,0.28634746751951978,
-0.43322246751951976,0.34732802393897849,
-0.38482802393897847,0.39572246751951978,
-0.32384746751951976,0.42679361293956486,
-0.25625,0.4375,
-0.18865253248048022,0.42679361293956486,
-0.12767197606102149,0.39572246751951978,
-0.079277532480480223,0.34732802393897855,
-0.048206387060435126,0.28634746751951978,
-0.037499999999999964,0.21875000000000003,
-0.048206387060435139,0.15115253248048019,
-0.0792775324804802,0.090171976061021536,
-0.12767197606102146,0.04177753248048028,
-0.1886525324804802,0.010706387060435181,
-0.25624999999999992,0.000000000000000015690268908349205,
-0.32384746751951965,0.01070638706043516,
-0.38482802393897841,0.041777532480480238,
-0.43322246751951971,0.09017197606102148,
-0.46429361293956484,0.15115253248048025,
0*
4,1,19,
-0.475,-0.21874999999999997,
-0.46429361293956484,-0.15115253248048025,
-0.43322246751951976,-0.09017197606102148,
-0.38482802393897847,-0.041777532480480224,
-0.32384746751951976,-0.010706387060435149,
-0.25625,0.000000000000000015690268908349208,
-0.18865253248048025,-0.010706387060435129,
-0.12767197606102151,-0.041777532480480238,
-0.079277532480480251,-0.09017197606102148,
-0.048206387060435153,-0.15115253248048022,
-0.037499999999999992,-0.21874999999999997,
-0.048206387060435167,-0.28634746751951978,
-0.079277532480480223,-0.34732802393897844,
-0.12767197606102149,-0.39572246751951973,
-0.18865253248048022,-0.42679361293956486,
-0.25624999999999992,-0.4375,
-0.32384746751951965,-0.42679361293956486,
-0.38482802393897841,-0.39572246751951978,
-0.43322246751951971,-0.34732802393897855,
-0.46429361293956484,-0.28634746751951973,
0*
4,1,3,
0.475,-0.21875000000000003,
0.037499999999999964,-0.21875,
0.037499999999999992,0.21875,
0.475,0.21874999999999997,
0*
4,1,3,
0.25625,0.4375,
0.25625,-0.000000000000000015690268908349208,
-0.25625,0.000000000000000015690268908349208,
-0.25625,0.4375,
0*
4,1,3,
-0.475,0.21875000000000003,
-0.037499999999999964,0.21875,
-0.037499999999999992,-0.21875,
-0.475,-0.21874999999999997,
0*
4,1,3,
-0.25625,-0.4375,
-0.25625,0.000000000000000015690268908349208,
0.25625,-0.000000000000000015690268908349208,
0.25625,-0.4375,
0*%
%ADD11COMP21,0.21875X-0.21875X-0.25625X0.21875X-0.25625X0.21875X0.25625X-0.21875X0.25625X0*%
%AMCOMP22*
4,1,3,
-0.099999999999999964,0.6375,
-0.10000000000000005,-0.6375,
0.099999999999999964,-0.6375,
0.10000000000000005,0.6375,
0*
4,1,19,
-0.19999999999999998,0.6375,
-0.19510565162951535,0.66840169943749472,
-0.18090169943749471,0.69627852522924727,
-0.15877852522924726,0.71840169943749466,
-0.13090169943749469,0.7326056516295153,
-0.099999999999999964,0.73749999999999993,
-0.069098300562505224,0.7326056516295153,
-0.041221474770752657,0.71840169943749466,
-0.019098300562505222,0.69627852522924727,
-0.0048943483704846089,0.66840169943749472,
0.000000000000000039034327528088274,0.6375,
-0.0048943483704846124,0.60659830056250519,
-0.019098300562505215,0.57872147477075264,
-0.041221474770752643,0.55659830056250525,
-0.069098300562505224,0.54239434837048461,
-0.099999999999999964,0.5375,
-0.13090169943749472,0.54239434837048461,
-0.15877852522924726,0.55659830056250525,
-0.18090169943749471,0.57872147477075264,
-0.19510565162951535,0.60659830056250519,
0*
4,1,19,
-0.20000000000000004,-0.6375,
-0.1951056516295154,-0.60659830056250519,
-0.18090169943749479,-0.57872147477075264,
-0.15877852522924735,-0.55659830056250525,
-0.13090169943749477,-0.54239434837048461,
-0.10000000000000003,-0.5375,
-0.0690983005625053,-0.54239434837048461,
-0.041221474770752733,-0.55659830056250525,
-0.019098300562505298,-0.57872147477075264,
-0.004894348370484687,-0.60659830056250519,
-0.000000000000000039034327528088274,-0.6375,
-0.00489434837048469,-0.66840169943749472,
-0.019098300562505291,-0.69627852522924727,
-0.04122147477075272,-0.71840169943749466,
-0.0690983005625053,-0.7326056516295153,
-0.10000000000000003,-0.73749999999999993,
-0.1309016994374948,-0.7326056516295153,
-0.15877852522924735,-0.71840169943749466,
-0.18090169943749479,-0.69627852522924727,
-0.1951056516295154,-0.66840169943749472,
0*
4,1,19,
-0.000000000000000039034327528088274,-0.6375,
0.0048943483704846124,-0.60659830056250519,
0.019098300562505215,-0.57872147477075264,
0.041221474770752657,-0.55659830056250525,
0.069098300562505238,-0.54239434837048461,
0.099999999999999978,-0.5375,
0.13090169943749472,-0.54239434837048461,
0.15877852522924729,-0.55659830056250525,
0.18090169943749471,-0.57872147477075264,
0.19510565162951535,-0.60659830056250519,
0.19999999999999998,-0.6375,
0.19510565162951535,-0.66840169943749472,
0.18090169943749471,-0.69627852522924727,
0.15877852522924729,-0.71840169943749466,
0.13090169943749472,-0.7326056516295153,
0.099999999999999978,-0.73749999999999993,
0.069098300562505238,-0.7326056516295153,
0.041221474770752671,-0.71840169943749466,
0.019098300562505222,-0.69627852522924727,
0.0048943483704846089,-0.66840169943749472,
0*
4,1,19,
0.000000000000000039034327528088274,0.6375,
0.00489434837048469,0.66840169943749472,
0.019098300562505291,0.69627852522924727,
0.041221474770752733,0.71840169943749466,
0.069098300562505308,0.7326056516295153,
0.10000000000000005,0.73749999999999993,
0.1309016994374948,0.7326056516295153,
0.15877852522924737,0.71840169943749466,
0.18090169943749479,0.69627852522924727,
0.1951056516295154,0.66840169943749472,
0.20000000000000004,0.6375,
0.1951056516295154,0.60659830056250519,
0.18090169943749479,0.57872147477075264,
0.15877852522924737,0.55659830056250525,
0.1309016994374948,0.54239434837048461,
0.10000000000000005,0.5375,
0.069098300562505308,0.54239434837048461,
0.041221474770752747,0.55659830056250525,
0.019098300562505298,0.57872147477075264,
0.004894348370484687,0.60659830056250519,
0*
4,1,3,
-0.19999999999999998,0.6375,
0.000000000000000039034327528088274,0.6375,
-0.000000000000000039034327528088274,-0.6375,
-0.20000000000000004,-0.6375,
0*
4,1,3,
-0.10000000000000005,-0.73749999999999993,
-0.10000000000000003,-0.5375,
0.099999999999999978,-0.5375,
0.099999999999999964,-0.73749999999999993,
0*
4,1,3,
0.19999999999999998,-0.6375,
-0.000000000000000039034327528088274,-0.6375,
0.000000000000000039034327528088274,0.6375,
0.20000000000000004,0.6375,
0*
4,1,3,
0.10000000000000005,0.73749999999999993,
0.10000000000000003,0.5375,
-0.099999999999999978,0.5375,
-0.099999999999999964,0.73749999999999993,
0*%
%ADD12COMP22,0.1X0.6375X0.1X-0.6375X0.1X-0.6375X-0.1X0.6375X-0.1X0*%
%AMCOMP23*
4,1,3,
0.25,-0.22500000000000003,
0.25,0.22499999999999998,
-0.25,0.22500000000000003,
-0.25,-0.22499999999999998,
0*
4,1,19,
0.024999999999999981,-0.225,
0.036012283833590446,-0.15547117626563683,
0.067971176265636812,-0.09274831823419355,
0.11774831823419354,-0.042971176265636825,
0.1804711762656368,-0.011012283833590469,
0.25,-0.000000000000000015307579422779716,
0.31952882373436314,-0.01101228383359045,
0.38225168176580643,-0.042971176265636839,
0.43202882373436313,-0.09274831823419355,
0.46398771616640955,-0.15547117626563686,
0.475,-0.225,
0.46398771616640955,-0.29452882373436329,
0.43202882373436324,-0.35725168176580646,
0.38225168176580648,-0.40702882373436317,
0.3195288237343632,-0.43898771616640953,
0.25000000000000006,-0.45,
0.18047117626563683,-0.43898771616640958,
0.11774831823419357,-0.40702882373436322,
0.067971176265636812,-0.35725168176580652,
0.036012283833590432,-0.29452882373436323,
0*
4,1,19,
0.025000000000000008,0.225,
0.036012283833590474,0.29452882373436318,
0.06797117626563684,0.35725168176580646,
0.11774831823419357,0.40702882373436322,
0.18047117626563683,0.43898771616640953,
0.25,0.45,
0.31952882373436314,0.43898771616640958,
0.38225168176580643,0.40702882373436322,
0.43202882373436313,0.35725168176580646,
0.46398771616640955,0.29452882373436312,
0.475,0.225,
0.46398771616640955,0.15547117626563675,
0.43202882373436324,0.09274831823419355,
0.38225168176580648,0.042971176265636825,
0.3195288237343632,0.011012283833590439,
0.25000000000000006,-0.000000000000000015307579422779719,
0.18047117626563686,0.01101228383359042,
0.1177483182341936,0.042971176265636783,
0.06797117626563684,0.0927483182341935,
0.03601228383359046,0.15547117626563678,
0*
4,1,19,
-0.475,0.22500000000000003,
-0.46398771616640955,0.29452882373436323,
-0.43202882373436319,0.35725168176580646,
-0.38225168176580648,0.40702882373436322,
-0.3195288237343632,0.43898771616640953,
-0.24999999999999997,0.45,
-0.18047117626563683,0.43898771616640958,
-0.11774831823419354,0.40702882373436322,
-0.067971176265636812,0.35725168176580646,
-0.036012283833590432,0.29452882373436318,
-0.024999999999999981,0.22500000000000003,
-0.036012283833590446,0.15547117626563678,
-0.067971176265636785,0.092748318234193577,
-0.11774831823419352,0.042971176265636853,
-0.1804711762656368,0.011012283833590469,
-0.24999999999999997,0.000000000000000015307579422779713,
-0.31952882373436314,0.01101228383359045,
-0.38225168176580637,0.042971176265636811,
-0.43202882373436313,0.092748318234193522,
-0.46398771616640955,0.15547117626563681,
0*
4,1,19,
-0.475,-0.22499999999999998,
-0.46398771616640955,-0.15547117626563681,
-0.43202882373436319,-0.092748318234193522,
-0.38225168176580648,-0.0429711762656368,
-0.3195288237343632,-0.011012283833590439,
-0.25,0.000000000000000015307579422779716,
-0.18047117626563686,-0.01101228383359042,
-0.11774831823419357,-0.042971176265636811,
-0.06797117626563684,-0.092748318234193522,
-0.03601228383359046,-0.15547117626563683,
-0.025000000000000008,-0.22499999999999998,
-0.036012283833590474,-0.29452882373436323,
-0.067971176265636812,-0.35725168176580646,
-0.11774831823419354,-0.40702882373436317,
-0.18047117626563683,-0.43898771616640953,
-0.25,-0.45,
-0.31952882373436314,-0.43898771616640958,
-0.38225168176580637,-0.40702882373436322,
-0.43202882373436313,-0.35725168176580652,
-0.46398771616640955,-0.29452882373436318,
0*
4,1,3,
0.475,-0.22500000000000003,
0.024999999999999981,-0.225,
0.025000000000000008,0.225,
0.475,0.22499999999999998,
0*
4,1,3,
0.25,0.45,
0.25,-0.000000000000000015307579422779716,
-0.25,0.000000000000000015307579422779716,
-0.24999999999999997,0.45,
0*
4,1,3,
-0.475,0.22500000000000003,
-0.024999999999999981,0.225,
-0.025000000000000008,-0.225,
-0.475,-0.22499999999999998,
0*
4,1,3,
-0.25,-0.45,
-0.25,0.000000000000000015307579422779716,
0.25,-0.000000000000000015307579422779716,
0.24999999999999997,-0.45,
0*%
%ADD13COMP23,0.225X-0.225X-0.25X0.225X-0.25X0.225X0.25X-0.225X0.25X0*%
%AMCOMP24*
4,1,3,
0.17,-0.14,
0.17,0.14,
-0.17,0.14,
-0.17,-0.14,
0*
4,1,19,
0.029999999999999992,-0.14,
0.036852087718678504,-0.096737620787507375,
0.056737620787507347,-0.05771006467905377,
0.087710064679053762,-0.026737620787507362,
0.12673762078750736,-0.00685208771867852,
0.17,-0.000000000000000010409154007490207,
0.21326237921249264,-0.0068520877186784976,
0.25228993532094623,-0.026737620787507368,
0.28326237921249264,-0.057710064679053763,
0.30314791228132154,-0.096737620787507375,
0.31000000000000005,-0.14,
0.30314791228132154,-0.18326237921249272,
0.2832623792124927,-0.22228993532094629,
0.25228993532094629,-0.25326237921249267,
0.21326237921249266,-0.27314791228132151,
0.17,-0.28,
0.12673762078750736,-0.27314791228132151,
0.087710064679053776,-0.25326237921249267,
0.056737620787507353,-0.22228993532094629,
0.0368520877186785,-0.18326237921249269,
0*
4,1,19,
0.030000000000000006,0.14,
0.036852087718678525,0.18326237921249267,
0.056737620787507367,0.22228993532094626,
0.087710064679053776,0.25326237921249267,
0.12673762078750739,0.27314791228132151,
0.17000000000000004,0.28,
0.21326237921249266,0.27314791228132151,
0.25228993532094623,0.25326237921249267,
0.28326237921249264,0.22228993532094624,
0.30314791228132154,0.18326237921249264,
0.31000000000000005,0.14,
0.30314791228132154,0.09673762078750732,
0.2832623792124927,0.057710064679053763,
0.25228993532094629,0.026737620787507355,
0.21326237921249269,0.0068520877186784993,
0.17000000000000004,-0.000000000000000010409154007490209,
0.12673762078750739,0.0068520877186784767,
0.08771006467905379,0.026737620787507334,
0.056737620787507374,0.057710064679053728,
0.036852087718678518,0.096737620787507334,
0*
4,1,19,
-0.31000000000000005,0.14000000000000004,
-0.30314791228132154,0.18326237921249269,
-0.28326237921249264,0.22228993532094629,
-0.25228993532094623,0.25326237921249267,
-0.21326237921249264,0.27314791228132151,
-0.16999999999999998,0.28,
-0.12673762078750736,0.27314791228132151,
-0.087710064679053762,0.25326237921249267,
-0.056737620787507353,0.22228993532094626,
-0.0368520877186785,0.18326237921249267,
-0.029999999999999992,0.14000000000000004,
-0.036852087718678504,0.096737620787507334,
-0.056737620787507333,0.057710064679053784,
-0.087710064679053748,0.026737620787507375,
-0.12673762078750733,0.00685208771867852,
-0.16999999999999998,0.000000000000000010409154007490206,
-0.21326237921249264,0.0068520877186784976,
-0.25228993532094623,0.026737620787507355,
-0.28326237921249264,0.057710064679053749,
-0.30314791228132154,0.096737620787507347,
0*
4,1,19,
-0.31000000000000005,-0.13999999999999999,
-0.30314791228132154,-0.096737620787507361,
-0.28326237921249264,-0.057710064679053749,
-0.25228993532094623,-0.026737620787507341,
-0.21326237921249266,-0.0068520877186784993,
-0.17,0.000000000000000010409154007490207,
-0.12673762078750739,-0.0068520877186784767,
-0.087710064679053776,-0.026737620787507348,
-0.056737620787507374,-0.057710064679053742,
-0.036852087718678518,-0.096737620787507361,
-0.030000000000000006,-0.13999999999999999,
-0.036852087718678525,-0.18326237921249269,
-0.056737620787507353,-0.22228993532094626,
-0.087710064679053762,-0.25326237921249267,
-0.12673762078750736,-0.27314791228132151,
-0.17,-0.28,
-0.21326237921249266,-0.27314791228132151,
-0.25228993532094623,-0.25326237921249267,
-0.28326237921249264,-0.22228993532094626,
-0.30314791228132154,-0.18326237921249267,
0*
4,1,3,
0.31000000000000005,-0.14000000000000004,
0.029999999999999992,-0.14,
0.030000000000000006,0.14,
0.31000000000000005,0.13999999999999999,
0*
4,1,3,
0.17000000000000004,0.28,
0.17,-0.000000000000000010409154007490207,
-0.17,0.000000000000000010409154007490207,
-0.16999999999999998,0.28,
0*
4,1,3,
-0.31000000000000005,0.14000000000000004,
-0.029999999999999992,0.14,
-0.030000000000000006,-0.14,
-0.31000000000000005,-0.13999999999999999,
0*
4,1,3,
-0.17000000000000004,-0.28,
-0.17,0.000000000000000010409154007490207,
0.17,-0.000000000000000010409154007490207,
0.16999999999999998,-0.28,
0*%
%ADD14COMP24,0.14X-0.14X-0.17X0.14X-0.17X0.14X0.17X-0.14X0.17X0*%
%AMCOMP25*
4,1,3,
-0.14999999999999997,0.5125,
-0.15000000000000002,-0.5125,
0.14999999999999997,-0.5125,
0.15000000000000002,0.5125,
0*
4,1,19,
-0.29999999999999993,0.5125,
-0.29265847744427292,0.558852549156242,
-0.271352549156242,0.60066778784387087,
-0.23816778784387094,0.63385254915624212,
-0.19635254915624209,0.65515847744427291,
-0.14999999999999997,0.6625,
-0.10364745084375786,0.655158477444273,
-0.061832212156128996,0.63385254915624212,
-0.028647450843757864,0.600667787843871,
-0.0073415225557269476,0.558852549156242,
0.000000000000000031380537816698416,0.5125,
-0.0073415225557269528,0.4661474508437578,
-0.028647450843757836,0.424332212156129,
-0.061832212156128989,0.39114745084375785,
-0.10364745084375784,0.36984152255572694,
-0.14999999999999994,0.36249999999999993,
-0.19635254915624203,0.36984152255572689,
-0.23816778784387091,0.39114745084375779,
-0.27135254915624207,0.42433221215612893,
-0.29265847744427292,0.4661474508437578,
0*
4,1,19,
-0.30000000000000004,-0.5125,
-0.29265847744427304,-0.46614745084375786,
-0.27135254915624207,-0.424332212156129,
-0.238167787843871,-0.39114745084375785,
-0.19635254915624215,-0.36984152255572694,
-0.15000000000000002,-0.36249999999999993,
-0.10364745084375793,-0.36984152255572689,
-0.061832212156129059,-0.39114745084375785,
-0.028647450843757926,-0.424332212156129,
-0.00734152255572701,-0.46614745084375786,
-0.000000000000000031380537816698416,-0.5125,
-0.0073415225557270153,-0.55885254915624216,
-0.028647450843757898,-0.60066778784387087,
-0.061832212156129052,-0.633852549156242,
-0.10364745084375791,-0.65515847744427291,
-0.15,-0.6625,
-0.19635254915624209,-0.655158477444273,
-0.23816778784387097,-0.63385254915624212,
-0.27135254915624213,-0.600667787843871,
-0.29265847744427304,-0.558852549156242,
0*
4,1,19,
-0.000000000000000031380537816698416,-0.5125,
0.0073415225557269528,-0.46614745084375786,
0.028647450843757864,-0.424332212156129,
0.061832212156129,-0.39114745084375785,
0.10364745084375784,-0.36984152255572694,
0.14999999999999997,-0.36249999999999993,
0.19635254915624206,-0.36984152255572689,
0.23816778784387091,-0.39114745084375785,
0.27135254915624207,-0.424332212156129,
0.29265847744427292,-0.46614745084375786,
0.29999999999999993,-0.5125,
0.29265847744427292,-0.55885254915624216,
0.27135254915624207,-0.60066778784387087,
0.23816778784387097,-0.633852549156242,
0.19635254915624209,-0.65515847744427291,
0.15,-0.6625,
0.10364745084375787,-0.655158477444273,
0.061832212156129024,-0.63385254915624212,
0.028647450843757864,-0.600667787843871,
0.0073415225557269476,-0.558852549156242,
0*
4,1,19,
0.000000000000000031380537816698416,0.5125,
0.0073415225557270153,0.558852549156242,
0.028647450843757926,0.60066778784387087,
0.061832212156129066,0.63385254915624212,
0.10364745084375791,0.65515847744427291,
0.15000000000000002,0.6625,
0.19635254915624212,0.655158477444273,
0.23816778784387097,0.63385254915624212,
0.27135254915624213,0.600667787843871,
0.29265847744427304,0.558852549156242,
0.30000000000000004,0.5125,
0.29265847744427304,0.4661474508437578,
0.27135254915624213,0.424332212156129,
0.23816778784387102,0.39114745084375785,
0.19635254915624215,0.36984152255572694,
0.15000000000000005,0.36249999999999993,
0.10364745084375794,0.36984152255572689,
0.061832212156129086,0.39114745084375779,
0.028647450843757926,0.42433221215612893,
0.00734152255572701,0.4661474508437578,
0*
4,1,3,
-0.29999999999999993,0.5125,
0.000000000000000031380537816698416,0.5125,
-0.000000000000000031380537816698416,-0.5125,
-0.30000000000000004,-0.5125,
0*
4,1,3,
-0.15000000000000002,-0.6625,
-0.15000000000000002,-0.36249999999999993,
0.14999999999999997,-0.36249999999999993,
0.14999999999999997,-0.6625,
0*
4,1,3,
0.29999999999999993,-0.5125,
-0.000000000000000031380537816698416,-0.5125,
0.000000000000000031380537816698416,0.5125,
0.30000000000000004,0.5125,
0*
4,1,3,
0.15000000000000002,0.6625,
0.15000000000000002,0.36249999999999993,
-0.14999999999999997,0.36249999999999993,
-0.14999999999999997,0.6625,
0*%
%ADD15COMP25,0.15X0.5125X0.15X-0.5125X0.15X-0.5125X-0.15X0.5125X-0.15X0*%
%AMCOMP26*
4,1,3,
-0.275,0.20000000000000004,
-0.275,-0.19999999999999998,
0.275,-0.20000000000000004,
0.275,0.19999999999999998,
0*
4,1,19,
-0.47500000000000003,0.20000000000000004,
-0.46521130325903071,0.26180339887498955,
-0.43680339887498953,0.31755705045849464,
-0.39255705045849465,0.36180339887498952,
-0.3368033988749895,0.39021130325903075,
-0.275,0.4,
-0.21319660112501052,0.39021130325903075,
-0.15744294954150537,0.36180339887498952,
-0.11319660112501052,0.31755705045849469,
-0.0847886967409693,0.26180339887498949,
-0.075,0.20000000000000004,
-0.0847886967409693,0.13819660112501048,
-0.11319660112501051,0.0824429495415054,
-0.15744294954150537,0.038196601125010533,
-0.21319660112501052,0.0097886967409693132,
-0.27499999999999997,0.000000000000000016838337365057685,
-0.33680339887498945,0.0097886967409692924,
-0.39255705045849459,0.038196601125010519,
-0.43680339887498953,0.082442949541505356,
-0.46521130325903071,0.1381966011250105,
0*
4,1,19,
-0.47500000000000003,-0.19999999999999998,
-0.46521130325903071,-0.1381966011250105,
-0.43680339887498953,-0.082442949541505356,
-0.39255705045849465,-0.038196601125010478,
-0.3368033988749895,-0.0097886967409692785,
-0.275,0.000000000000000016838337365057688,
-0.21319660112501054,-0.0097886967409692577,
-0.15744294954150539,-0.038196601125010492,
-0.11319660112501054,-0.082442949541505356,
-0.084788696740969324,-0.1381966011250105,
-0.075000000000000025,-0.19999999999999998,
-0.084788696740969324,-0.26180339887498955,
-0.11319660112501052,-0.31755705045849464,
-0.15744294954150539,-0.36180339887498947,
-0.21319660112501054,-0.39021130325903075,
-0.27499999999999997,-0.4,
-0.33680339887498945,-0.39021130325903075,
-0.39255705045849459,-0.36180339887498952,
-0.43680339887498953,-0.31755705045849469,
-0.46521130325903071,-0.26180339887498949,
0*
4,1,19,
0.075,-0.2,
0.0847886967409693,-0.13819660112501053,
0.11319660112501051,-0.082442949541505384,
0.15744294954150539,-0.038196601125010506,
0.21319660112501054,-0.0097886967409693132,
0.275,-0.000000000000000016838337365057688,
0.3368033988749895,-0.0097886967409692924,
0.39255705045849465,-0.038196601125010519,
0.43680339887498953,-0.082442949541505384,
0.46521130325903071,-0.13819660112501053,
0.47500000000000003,-0.2,
0.46521130325903071,-0.2618033988749896,
0.43680339887498953,-0.31755705045849464,
0.39255705045849465,-0.36180339887498947,
0.33680339887498956,-0.39021130325903075,
0.27500000000000008,-0.4,
0.21319660112501054,-0.39021130325903075,
0.15744294954150542,-0.36180339887498952,
0.11319660112501052,-0.31755705045849469,
0.0847886967409693,-0.26180339887498955,
0*
4,1,19,
0.075000000000000025,0.2,
0.084788696740969324,0.26180339887498949,
0.11319660112501052,0.31755705045849464,
0.15744294954150542,0.36180339887498952,
0.21319660112501057,0.39021130325903075,
0.275,0.4,
0.3368033988749895,0.39021130325903075,
0.39255705045849465,0.36180339887498952,
0.43680339887498953,0.31755705045849469,
0.46521130325903071,0.26180339887498943,
0.47500000000000003,0.2,
0.46521130325903071,0.13819660112501045,
0.43680339887498953,0.08244294954150537,
0.39255705045849465,0.038196601125010506,
0.33680339887498956,0.0097886967409692785,
0.27500000000000008,-0.000000000000000016838337365057691,
0.21319660112501057,0.0097886967409692577,
0.15744294954150545,0.038196601125010492,
0.11319660112501054,0.082442949541505328,
0.084788696740969324,0.13819660112501048,
0*
4,1,3,
-0.47500000000000003,0.20000000000000004,
-0.075,0.2,
-0.075000000000000025,-0.2,
-0.47500000000000003,-0.19999999999999998,
0*
4,1,3,
-0.275,-0.4,
-0.275,0.000000000000000016838337365057688,
0.275,-0.000000000000000016838337365057688,
0.275,-0.4,
0*
4,1,3,
0.47500000000000003,-0.20000000000000004,
0.075,-0.2,
0.075000000000000025,0.2,
0.47500000000000003,0.19999999999999998,
0*
4,1,3,
0.275,0.4,
0.275,-0.000000000000000016838337365057688,
-0.275,0.000000000000000016838337365057688,
-0.275,0.4,
0*%
%ADD16COMP26,0.2X0.2X0.275X-0.2X0.275X-0.2X-0.275X0.2X-0.275X0*%
%AMCOMP27*
4,1,3,
0.185,-0.135,
0.185,0.135,
-0.185,0.135,
-0.185,-0.135,
0*
4,1,19,
0.049999999999999982,-0.135,
0.056607370300154246,-0.0932827057593821,
0.075782705759382091,-0.05564899094051614,
0.10564899094051612,-0.025782705759382109,
0.1432827057593821,-0.0066073703001542725,
0.185,-0.00000000000000001132760877285699,
0.2267172942406179,-0.0066073703001542777,
0.26435100905948383,-0.025782705759382119,
0.29421729424061788,-0.05564899094051614,
0.31339262969984572,-0.0932827057593821,
0.32,-0.135,
0.31339262969984572,-0.17671729424061797,
0.29421729424061793,-0.2143510090594839,
0.26435100905948389,-0.24421729424061792,
0.2267172942406179,-0.26339262969984578,
0.185,-0.27,
0.1432827057593821,-0.26339262969984578,
0.10564899094051614,-0.24421729424061794,
0.075782705759382091,-0.2143510090594839,
0.056607370300154239,-0.17671729424061794,
0*
4,1,19,
0.049999999999999996,0.135,
0.056607370300154267,0.17671729424061791,
0.0757827057593821,0.2143510090594839,
0.10564899094051614,0.24421729424061792,
0.14328270575938212,0.26339262969984578,
0.18500000000000003,0.27,
0.22671729424061793,0.26339262969984578,
0.26435100905948383,0.24421729424061789,
0.29421729424061788,0.21435100905948387,
0.31339262969984572,0.17671729424061791,
0.32,0.135,
0.31339262969984572,0.093282705759382051,
0.29421729424061793,0.055648990940516126,
0.26435100905948389,0.0257827057593821,
0.22671729424061793,0.00660737030015425,
0.18500000000000003,-0.000000000000000011327608772856992,
0.14328270575938212,0.0066073703001542552,
0.10564899094051615,0.025782705759382067,
0.0757827057593821,0.0556489909405161,
0.05660737030015426,0.093282705759382079,
0*
4,1,19,
-0.32,0.13500000000000004,
-0.31339262969984572,0.17671729424061794,
-0.29421729424061793,0.21435100905948393,
-0.26435100905948389,0.24421729424061794,
-0.22671729424061787,0.26339262969984578,
-0.18499999999999997,0.27,
-0.14328270575938207,0.26339262969984578,
-0.10564899094051612,0.24421729424061792,
-0.075782705759382091,0.2143510090594839,
-0.056607370300154239,0.17671729424061794,
-0.049999999999999982,0.13500000000000004,
-0.056607370300154246,0.093282705759382065,
-0.075782705759382063,0.055648990940516153,
-0.10564899094051611,0.025782705759382123,
-0.14328270575938207,0.0066073703001542725,
-0.18499999999999997,0.000000000000000011327608772856987,
-0.22671729424061787,0.0066073703001542777,
-0.26435100905948383,0.025782705759382091,
-0.29421729424061788,0.055648990940516126,
-0.31339262969984572,0.093282705759382092,
0*
4,1,19,
-0.32,-0.13499999999999998,
-0.31339262969984572,-0.093282705759382092,
-0.29421729424061793,-0.055648990940516112,
-0.26435100905948389,-0.025782705759382085,
-0.2267172942406179,-0.00660737030015425,
-0.185,0.00000000000000001132760877285699,
-0.1432827057593821,-0.0066073703001542552,
-0.10564899094051614,-0.025782705759382095,
-0.0757827057593821,-0.055648990940516112,
-0.05660737030015426,-0.093282705759382092,
-0.049999999999999996,-0.13499999999999998,
-0.056607370300154267,-0.17671729424061794,
-0.075782705759382077,-0.21435100905948387,
-0.10564899094051612,-0.24421729424061789,
-0.1432827057593821,-0.26339262969984578,
-0.185,-0.27,
-0.2267172942406179,-0.26339262969984578,
-0.26435100905948383,-0.24421729424061792,
-0.29421729424061788,-0.21435100905948387,
-0.31339262969984572,-0.17671729424061791,
0*
4,1,3,
0.32,-0.13500000000000004,
0.049999999999999982,-0.135,
0.049999999999999996,0.135,
0.32,0.13499999999999998,
0*
4,1,3,
0.18500000000000003,0.27,
0.185,-0.00000000000000001132760877285699,
-0.185,0.00000000000000001132760877285699,
-0.18499999999999997,0.27,
0*
4,1,3,
-0.32,0.13500000000000004,
-0.049999999999999982,0.135,
-0.049999999999999996,-0.135,
-0.32,-0.13499999999999998,
0*
4,1,3,
-0.18500000000000003,-0.27,
-0.185,0.00000000000000001132760877285699,
0.185,-0.00000000000000001132760877285699,
0.18499999999999997,-0.27,
0*%
%ADD17COMP27,0.135X-0.135X-0.185X0.135X-0.185X0.135X0.185X-0.135X0.185X0*%
%AMCOMP28*
4,1,3,
-0.32500000000000007,-0.65,
0.32499999999999996,-0.65,
0.32500000000000007,0.65,
-0.32499999999999996,0.65,
0*
4,1,19,
-0.575,-0.65,
-0.56276412907378837,-0.57274575140626316,
-0.52725424859373682,-0.50305368692688179,
-0.4719463130731183,-0.4477457514062631,
-0.40225424859373687,-0.41223587092621161,
-0.325,-0.4,
-0.2477457514062632,-0.41223587092621161,
-0.17805368692688178,-0.44774575140626316,
-0.1227457514062632,-0.50305368692688168,
-0.08723587092621167,-0.57274575140626316,
-0.075000000000000053,-0.65,
-0.08723587092621167,-0.727254248593737,
-0.12274575140626318,-0.79694631307311825,
-0.17805368692688175,-0.85225424859373689,
-0.24774575140626318,-0.88776412907378843,
-0.325,-0.9,
-0.40225424859373687,-0.88776412907378843,
-0.4719463130731183,-0.85225424859373689,
-0.52725424859373682,-0.79694631307311836,
-0.56276412907378837,-0.72725424859373689,
0*
4,1,19,
0.074999999999999969,-0.65,
0.087235870926211587,-0.57274575140626316,
0.12274575140626312,-0.50305368692688179,
0.1780536869268817,-0.44774575140626316,
0.24774575140626312,-0.41223587092621161,
0.325,-0.4,
0.40225424859373682,-0.41223587092621161,
0.4719463130731183,-0.44774575140626321,
0.52725424859373682,-0.50305368692688168,
0.56276412907378837,-0.57274575140626316,
0.575,-0.65,
0.56276412907378837,-0.727254248593737,
0.52725424859373693,-0.79694631307311825,
0.47194631307311824,-0.85225424859373689,
0.40225424859373687,-0.88776412907378843,
0.325,-0.9,
0.24774575140626315,-0.88776412907378843,
0.17805368692688173,-0.85225424859373689,
0.12274575140626312,-0.79694631307311836,
0.087235870926211587,-0.72725424859373689,
0*
4,1,19,
0.075000000000000053,0.65,
0.08723587092621167,0.72725424859373689,
0.1227457514062632,0.79694631307311825,
0.17805368692688178,0.85225424859373689,
0.2477457514062632,0.88776412907378843,
0.32500000000000007,0.9,
0.40225424859373687,0.88776412907378843,
0.47194631307311835,0.85225424859373689,
0.52725424859373682,0.79694631307311836,
0.56276412907378837,0.72725424859373689,
0.575,0.65,
0.56276412907378837,0.572745751406263,
0.52725424859373693,0.50305368692688179,
0.4719463130731183,0.4477457514062631,
0.40225424859373693,0.41223587092621161,
0.32500000000000007,0.4,
0.24774575140626323,0.41223587092621161,
0.17805368692688181,0.44774575140626316,
0.1227457514062632,0.50305368692688168,
0.08723587092621167,0.57274575140626316,
0*
4,1,19,
-0.575,0.65,
-0.56276412907378837,0.72725424859373689,
-0.52725424859373682,0.79694631307311825,
-0.47194631307311824,0.85225424859373689,
-0.40225424859373682,0.88776412907378843,
-0.32499999999999996,0.9,
-0.24774575140626312,0.88776412907378843,
-0.1780536869268817,0.85225424859373689,
-0.12274575140626312,0.79694631307311836,
-0.087235870926211587,0.72725424859373689,
-0.074999999999999969,0.65,
-0.087235870926211587,0.572745751406263,
-0.12274575140626309,0.50305368692688179,
-0.17805368692688167,0.44774575140626316,
-0.24774575140626309,0.41223587092621161,
-0.32499999999999996,0.4,
-0.40225424859373682,0.41223587092621161,
-0.47194631307311824,0.44774575140626321,
-0.52725424859373682,0.50305368692688168,
-0.56276412907378837,0.57274575140626316,
0*
4,1,3,
-0.32500000000000007,-0.9,
-0.325,-0.4,
0.325,-0.4,
0.32499999999999996,-0.9,
0*
4,1,3,
0.575,-0.65,
0.074999999999999969,-0.65,
0.075000000000000053,0.65,
0.575,0.65,
0*
4,1,3,
0.32500000000000007,0.9,
0.325,0.4,
-0.325,0.4,
-0.32499999999999996,0.9,
0*
4,1,3,
-0.575,0.65,
-0.074999999999999969,0.65,
-0.075000000000000053,-0.65,
-0.575,-0.65,
0*%
%ADD18COMP28,0.25X-0.65X0.325X-0.65X-0.325X0.65X-0.325X0.65X0.325X0*%
%ADD19R,0.5588X1.3208*%
%AMCOMP29*
4,1,3,
-0.25625,0.21875000000000003,
-0.25625,-0.21874999999999997,
0.25625,-0.21875000000000003,
0.25625,0.21874999999999997,
0*
4,1,19,
-0.475,0.21875000000000003,
-0.46429361293956484,0.28634746751951978,
-0.43322246751951976,0.34732802393897849,
-0.38482802393897847,0.39572246751951978,
-0.32384746751951976,0.42679361293956486,
-0.25625,0.4375,
-0.18865253248048022,0.42679361293956486,
-0.12767197606102149,0.39572246751951978,
-0.079277532480480223,0.34732802393897855,
-0.048206387060435126,0.28634746751951978,
-0.037499999999999964,0.21875000000000003,
-0.048206387060435139,0.15115253248048019,
-0.0792775324804802,0.090171976061021536,
-0.12767197606102146,0.04177753248048028,
-0.1886525324804802,0.010706387060435181,
-0.25624999999999992,0.000000000000000015690268908349205,
-0.32384746751951965,0.01070638706043516,
-0.38482802393897841,0.041777532480480238,
-0.43322246751951971,0.09017197606102148,
-0.46429361293956484,0.15115253248048025,
0*
4,1,19,
-0.475,-0.21874999999999997,
-0.46429361293956484,-0.15115253248048025,
-0.43322246751951976,-0.09017197606102148,
-0.38482802393897847,-0.041777532480480224,
-0.32384746751951976,-0.010706387060435149,
-0.25625,0.000000000000000015690268908349208,
-0.18865253248048025,-0.010706387060435129,
-0.12767197606102151,-0.041777532480480238,
-0.079277532480480251,-0.09017197606102148,
-0.048206387060435153,-0.15115253248048022,
-0.037499999999999992,-0.21874999999999997,
-0.048206387060435167,-0.28634746751951978,
-0.079277532480480223,-0.34732802393897844,
-0.12767197606102149,-0.39572246751951973,
-0.18865253248048022,-0.42679361293956486,
-0.25624999999999992,-0.4375,
-0.32384746751951965,-0.42679361293956486,
-0.38482802393897841,-0.39572246751951978,
-0.43322246751951971,-0.34732802393897855,
-0.46429361293956484,-0.28634746751951973,
0*
4,1,19,
0.037499999999999964,-0.21875,
0.048206387060435139,-0.15115253248048027,
0.079277532480480223,-0.090171976061021508,
0.12767197606102149,-0.041777532480480252,
0.18865253248048022,-0.010706387060435181,
0.25625,-0.000000000000000015690268908349208,
0.32384746751951971,-0.01070638706043516,
0.38482802393897841,-0.041777532480480266,
0.43322246751951971,-0.090171976061021508,
0.46429361293956484,-0.15115253248048025,
0.475,-0.21875,
0.46429361293956484,-0.28634746751951984,
0.43322246751951976,-0.34732802393897844,
0.38482802393897853,-0.39572246751951973,
0.32384746751951976,-0.42679361293956486,
0.25625000000000003,-0.4375,
0.18865253248048025,-0.42679361293956486,
0.12767197606102151,-0.39572246751951978,
0.079277532480480223,-0.34732802393897855,
0.048206387060435126,-0.28634746751951978,
0*
4,1,19,
0.037499999999999992,0.21875,
0.048206387060435167,0.28634746751951973,
0.079277532480480251,0.34732802393897849,
0.12767197606102151,0.39572246751951978,
0.18865253248048025,0.42679361293956486,
0.25625,0.4375,
0.32384746751951971,0.42679361293956486,
0.38482802393897841,0.39572246751951978,
0.43322246751951971,0.34732802393897855,
0.46429361293956484,0.28634746751951973,
0.475,0.21875,
0.46429361293956484,0.15115253248048016,
0.43322246751951976,0.090171976061021508,
0.38482802393897853,0.041777532480480252,
0.32384746751951976,0.010706387060435149,
0.25625000000000003,-0.000000000000000015690268908349211,
0.18865253248048028,0.010706387060435129,
0.12767197606102154,0.04177753248048021,
0.079277532480480251,0.090171976061021453,
0.048206387060435153,0.15115253248048022,
0*
4,1,3,
-0.475,0.21875000000000003,
-0.037499999999999964,0.21875,
-0.037499999999999992,-0.21875,
-0.475,-0.21874999999999997,
0*
4,1,3,
-0.25625,-0.4375,
-0.25625,0.000000000000000015690268908349208,
0.25625,-0.000000000000000015690268908349208,
0.25625,-0.4375,
0*
4,1,3,
0.475,-0.21875000000000003,
0.037499999999999964,-0.21875,
0.037499999999999992,0.21875,
0.475,0.21874999999999997,
0*
4,1,3,
0.25625,0.4375,
0.25625,-0.000000000000000015690268908349208,
-0.25625,0.000000000000000015690268908349208,
-0.25625,0.4375,
0*%
%ADD20COMP29,0.21875X0.21875X0.25625X-0.21875X0.25625X-0.21875X-0.25625X0.21875X-0.25625X0*%
%AMCOMP30*
4,1,3,
-0.17,0.14,
-0.17,-0.14,
0.17,-0.14,
0.17,0.14,
0*
4,1,19,
-0.31000000000000005,0.14000000000000004,
-0.30314791228132154,0.18326237921249269,
-0.28326237921249264,0.22228993532094629,
-0.25228993532094623,0.25326237921249267,
-0.21326237921249264,0.27314791228132151,
-0.16999999999999998,0.28,
-0.12673762078750736,0.27314791228132151,
-0.087710064679053762,0.25326237921249267,
-0.056737620787507353,0.22228993532094626,
-0.0368520877186785,0.18326237921249267,
-0.029999999999999992,0.14000000000000004,
-0.036852087718678504,0.096737620787507334,
-0.056737620787507333,0.057710064679053784,
-0.087710064679053748,0.026737620787507375,
-0.12673762078750733,0.00685208771867852,
-0.16999999999999998,0.000000000000000010409154007490206,
-0.21326237921249264,0.0068520877186784976,
-0.25228993532094623,0.026737620787507355,
-0.28326237921249264,0.057710064679053749,
-0.30314791228132154,0.096737620787507347,
0*
4,1,19,
-0.31000000000000005,-0.13999999999999999,
-0.30314791228132154,-0.096737620787507361,
-0.28326237921249264,-0.057710064679053749,
-0.25228993532094623,-0.026737620787507341,
-0.21326237921249266,-0.0068520877186784993,
-0.17,0.000000000000000010409154007490207,
-0.12673762078750739,-0.0068520877186784767,
-0.087710064679053776,-0.026737620787507348,
-0.056737620787507374,-0.057710064679053742,
-0.036852087718678518,-0.096737620787507361,
-0.030000000000000006,-0.13999999999999999,
-0.036852087718678525,-0.18326237921249269,
-0.056737620787507353,-0.22228993532094626,
-0.087710064679053762,-0.25326237921249267,
-0.12673762078750736,-0.27314791228132151,
-0.17,-0.28,
-0.21326237921249266,-0.27314791228132151,
-0.25228993532094623,-0.25326237921249267,
-0.28326237921249264,-0.22228993532094626,
-0.30314791228132154,-0.18326237921249267,
0*
4,1,19,
0.029999999999999992,-0.14,
0.036852087718678504,-0.096737620787507375,
0.056737620787507347,-0.05771006467905377,
0.087710064679053762,-0.026737620787507362,
0.12673762078750736,-0.00685208771867852,
0.17,-0.000000000000000010409154007490207,
0.21326237921249264,-0.0068520877186784976,
0.25228993532094623,-0.026737620787507368,
0.28326237921249264,-0.057710064679053763,
0.30314791228132154,-0.096737620787507375,
0.31000000000000005,-0.14,
0.30314791228132154,-0.18326237921249272,
0.2832623792124927,-0.22228993532094629,
0.25228993532094629,-0.25326237921249267,
0.21326237921249266,-0.27314791228132151,
0.17,-0.28,
0.12673762078750736,-0.27314791228132151,
0.087710064679053776,-0.25326237921249267,
0.056737620787507353,-0.22228993532094629,
0.0368520877186785,-0.18326237921249269,
0*
4,1,19,
0.030000000000000006,0.14,
0.036852087718678525,0.18326237921249267,
0.056737620787507367,0.22228993532094626,
0.087710064679053776,0.25326237921249267,
0.12673762078750739,0.27314791228132151,
0.17000000000000004,0.28,
0.21326237921249266,0.27314791228132151,
0.25228993532094623,0.25326237921249267,
0.28326237921249264,0.22228993532094624,
0.30314791228132154,0.18326237921249264,
0.31000000000000005,0.14,
0.30314791228132154,0.09673762078750732,
0.2832623792124927,0.057710064679053763,
0.25228993532094629,0.026737620787507355,
0.21326237921249269,0.0068520877186784993,
0.17000000000000004,-0.000000000000000010409154007490209,
0.12673762078750739,0.0068520877186784767,
0.08771006467905379,0.026737620787507334,
0.056737620787507374,0.057710064679053728,
0.036852087718678518,0.096737620787507334,
0*
4,1,3,
-0.31000000000000005,0.14000000000000004,
-0.029999999999999992,0.14,
-0.030000000000000006,-0.14,
-0.31000000000000005,-0.13999999999999999,
0*
4,1,3,
-0.17000000000000004,-0.28,
-0.17,0.000000000000000010409154007490207,
0.17,-0.000000000000000010409154007490207,
0.16999999999999998,-0.28,
0*
4,1,3,
0.31000000000000005,-0.14000000000000004,
0.029999999999999992,-0.14,
0.030000000000000006,0.14,
0.31000000000000005,0.13999999999999999,
0*
4,1,3,
0.17000000000000004,0.28,
0.17,-0.000000000000000010409154007490207,
-0.17,0.000000000000000010409154007490207,
-0.16999999999999998,0.28,
0*%
%ADD21COMP30,0.14X0.14X0.17X-0.14X0.17X-0.14X-0.17X0.14X-0.17X0*%
%AMCOMP31*
4,1,3,
-0.22500000000000003,-0.25,
0.22499999999999998,-0.25,
0.22500000000000003,0.25,
-0.22499999999999998,0.25,
0*
4,1,19,
-0.45,-0.24999999999999997,
-0.43898771616640953,-0.1804711762656368,
-0.40702882373436322,-0.11774831823419352,
-0.35725168176580646,-0.067971176265636785,
-0.29452882373436318,-0.036012283833590432,
-0.225,-0.024999999999999981,
-0.15547117626563683,-0.036012283833590418,
-0.092748318234193577,-0.067971176265636812,
-0.042971176265636853,-0.11774831823419352,
-0.011012283833590469,-0.1804711762656368,
-0.000000000000000015307579422779713,-0.24999999999999997,
-0.011012283833590477,-0.31952882373436325,
-0.042971176265636811,-0.38225168176580643,
-0.09274831823419355,-0.43202882373436313,
-0.15547117626563683,-0.46398771616640955,
-0.225,-0.475,
-0.29452882373436318,-0.46398771616640955,
-0.35725168176580641,-0.43202882373436324,
-0.40702882373436317,-0.38225168176580648,
-0.43898771616640953,-0.3195288237343632,
0*
4,1,19,
-0.000000000000000015307579422779716,-0.25,
0.011012283833590448,-0.18047117626563683,
0.042971176265636811,-0.11774831823419354,
0.09274831823419355,-0.067971176265636812,
0.15547117626563683,-0.03601228383359046,
0.225,-0.025000000000000008,
0.29452882373436318,-0.036012283833590446,
0.35725168176580646,-0.06797117626563684,
0.40702882373436317,-0.11774831823419354,
0.43898771616640953,-0.18047117626563683,
0.45,-0.25,
0.43898771616640953,-0.31952882373436325,
0.40702882373436322,-0.38225168176580643,
0.35725168176580646,-0.43202882373436313,
0.29452882373436312,-0.46398771616640955,
0.225,-0.475,
0.15547117626563686,-0.46398771616640955,
0.092748318234193577,-0.43202882373436324,
0.042971176265636825,-0.38225168176580648,
0.011012283833590439,-0.3195288237343632,
0*
4,1,19,
0.000000000000000015307579422779716,0.25,
0.011012283833590477,0.3195288237343632,
0.042971176265636839,0.38225168176580648,
0.092748318234193577,0.43202882373436319,
0.15547117626563686,0.46398771616640955,
0.22500000000000003,0.475,
0.29452882373436323,0.46398771616640955,
0.35725168176580646,0.43202882373436319,
0.40702882373436317,0.38225168176580648,
0.43898771616640953,0.3195288237343632,
0.45,0.24999999999999997,
0.43898771616640953,0.18047117626563672,
0.40702882373436322,0.11774831823419354,
0.35725168176580646,0.067971176265636812,
0.29452882373436318,0.036012283833590432,
0.22500000000000003,0.024999999999999981,
0.15547117626563689,0.036012283833590418,
0.0927483182341936,0.067971176265636785,
0.042971176265636853,0.11774831823419349,
0.011012283833590469,0.1804711762656368,
0*
4,1,19,
-0.45,0.25,
-0.43898771616640953,0.3195288237343632,
-0.40702882373436322,0.38225168176580648,
-0.35725168176580646,0.43202882373436319,
-0.29452882373436312,0.46398771616640955,
-0.22499999999999998,0.475,
-0.15547117626563681,0.46398771616640955,
-0.09274831823419355,0.43202882373436319,
-0.042971176265636825,0.38225168176580648,
-0.011012283833590439,0.3195288237343632,
0.000000000000000015307579422779716,0.25,
-0.011012283833590448,0.18047117626563675,
-0.042971176265636783,0.11774831823419357,
-0.092748318234193522,0.06797117626563684,
-0.15547117626563681,0.03601228383359046,
-0.22499999999999998,0.025000000000000008,
-0.29452882373436312,0.036012283833590446,
-0.35725168176580641,0.067971176265636812,
-0.40702882373436317,0.11774831823419352,
-0.43898771616640953,0.18047117626563683,
0*
4,1,3,
-0.22500000000000003,-0.475,
-0.225,-0.024999999999999981,
0.225,-0.025000000000000008,
0.22499999999999998,-0.475,
0*
4,1,3,
0.45,-0.25,
-0.000000000000000015307579422779716,-0.25,
0.000000000000000015307579422779716,0.25,
0.45,0.24999999999999997,
0*
4,1,3,
0.22500000000000003,0.475,
0.225,0.024999999999999981,
-0.225,0.025000000000000008,
-0.22499999999999998,0.475,
0*
4,1,3,
-0.45,0.25,
0.000000000000000015307579422779716,0.25,
-0.000000000000000015307579422779716,-0.25,
-0.45,-0.24999999999999997,
0*%
%ADD22COMP31,0.225X-0.25X0.225X-0.25X-0.225X0.25X-0.225X0.25X0.225X0*%
%AMCOMP32*
4,1,3,
-0.25,0.22500000000000003,
-0.25,-0.22499999999999998,
0.25,-0.22500000000000003,
0.25,0.22499999999999998,
0*
4,1,19,
-0.475,0.22500000000000003,
-0.46398771616640955,0.29452882373436323,
-0.43202882373436319,0.35725168176580646,
-0.38225168176580648,0.40702882373436322,
-0.3195288237343632,0.43898771616640953,
-0.24999999999999997,0.45,
-0.18047117626563683,0.43898771616640958,
-0.11774831823419354,0.40702882373436322,
-0.067971176265636812,0.35725168176580646,
-0.036012283833590432,0.29452882373436318,
-0.024999999999999981,0.22500000000000003,
-0.036012283833590446,0.15547117626563678,
-0.067971176265636785,0.092748318234193577,
-0.11774831823419352,0.042971176265636853,
-0.1804711762656368,0.011012283833590469,
-0.24999999999999997,0.000000000000000015307579422779713,
-0.31952882373436314,0.01101228383359045,
-0.38225168176580637,0.042971176265636811,
-0.43202882373436313,0.092748318234193522,
-0.46398771616640955,0.15547117626563681,
0*
4,1,19,
-0.475,-0.22499999999999998,
-0.46398771616640955,-0.15547117626563681,
-0.43202882373436319,-0.092748318234193522,
-0.38225168176580648,-0.0429711762656368,
-0.3195288237343632,-0.011012283833590439,
-0.25,0.000000000000000015307579422779716,
-0.18047117626563686,-0.01101228383359042,
-0.11774831823419357,-0.042971176265636811,
-0.06797117626563684,-0.092748318234193522,
-0.03601228383359046,-0.15547117626563683,
-0.025000000000000008,-0.22499999999999998,
-0.036012283833590474,-0.29452882373436323,
-0.067971176265636812,-0.35725168176580646,
-0.11774831823419354,-0.40702882373436317,
-0.18047117626563683,-0.43898771616640953,
-0.25,-0.45,
-0.31952882373436314,-0.43898771616640958,
-0.38225168176580637,-0.40702882373436322,
-0.43202882373436313,-0.35725168176580652,
-0.46398771616640955,-0.29452882373436318,
0*
4,1,19,
0.024999999999999981,-0.225,
0.036012283833590446,-0.15547117626563683,
0.067971176265636812,-0.09274831823419355,
0.11774831823419354,-0.042971176265636825,
0.1804711762656368,-0.011012283833590469,
0.25,-0.000000000000000015307579422779716,
0.31952882373436314,-0.01101228383359045,
0.38225168176580643,-0.042971176265636839,
0.43202882373436313,-0.09274831823419355,
0.46398771616640955,-0.15547117626563686,
0.475,-0.225,
0.46398771616640955,-0.29452882373436329,
0.43202882373436324,-0.35725168176580646,
0.38225168176580648,-0.40702882373436317,
0.3195288237343632,-0.43898771616640953,
0.25000000000000006,-0.45,
0.18047117626563683,-0.43898771616640958,
0.11774831823419357,-0.40702882373436322,
0.067971176265636812,-0.35725168176580652,
0.036012283833590432,-0.29452882373436323,
0*
4,1,19,
0.025000000000000008,0.225,
0.036012283833590474,0.29452882373436318,
0.06797117626563684,0.35725168176580646,
0.11774831823419357,0.40702882373436322,
0.18047117626563683,0.43898771616640953,
0.25,0.45,
0.31952882373436314,0.43898771616640958,
0.38225168176580643,0.40702882373436322,
0.43202882373436313,0.35725168176580646,
0.46398771616640955,0.29452882373436312,
0.475,0.225,
0.46398771616640955,0.15547117626563675,
0.43202882373436324,0.09274831823419355,
0.38225168176580648,0.042971176265636825,
0.3195288237343632,0.011012283833590439,
0.25000000000000006,-0.000000000000000015307579422779719,
0.18047117626563686,0.01101228383359042,
0.1177483182341936,0.042971176265636783,
0.06797117626563684,0.0927483182341935,
0.03601228383359046,0.15547117626563678,
0*
4,1,3,
-0.475,0.22500000000000003,
-0.024999999999999981,0.225,
-0.025000000000000008,-0.225,
-0.475,-0.22499999999999998,
0*
4,1,3,
-0.25,-0.45,
-0.25,0.000000000000000015307579422779716,
0.25,-0.000000000000000015307579422779716,
0.24999999999999997,-0.45,
0*
4,1,3,
0.475,-0.22500000000000003,
0.024999999999999981,-0.225,
0.025000000000000008,0.225,
0.475,0.22499999999999998,
0*
4,1,3,
0.25,0.45,
0.25,-0.000000000000000015307579422779716,
-0.25,0.000000000000000015307579422779716,
-0.24999999999999997,0.45,
0*%
%ADD23COMP32,0.225X0.225X0.25X-0.225X0.25X-0.225X-0.25X0.225X-0.25X0*%
%AMCOMP33*
4,1,3,
0.475,-0.25000000000000006,
0.475,0.24999999999999997,
-0.475,0.25000000000000006,
-0.475,-0.24999999999999997,
0*
4,1,19,
0.22499999999999995,-0.25,
0.2372358709262116,-0.17274575140626316,
0.27274575140626311,-0.10305368692688173,
0.32805368692688169,-0.047745751406263158,
0.39774575140626311,-0.012235870926211641,
0.475,-0.000000000000000029084400903281456,
0.55225424859373684,-0.012235870926211622,
0.62194631307311821,-0.047745751406263172,
0.67725424859373684,-0.10305368692688173,
0.71276412907378839,-0.17274575140626319,
0.725,-0.25,
0.71276412907378839,-0.327254248593737,
0.67725424859373684,-0.39694631307311828,
0.62194631307311832,-0.45225424859373692,
0.55225424859373684,-0.48776412907378847,
0.475,-0.5,
0.39774575140626311,-0.48776412907378841,
0.32805368692688175,-0.45225424859373686,
0.27274575140626311,-0.39694631307311834,
0.23723587092621157,-0.32725424859373692,
0*
4,1,19,
0.225,0.25,
0.23723587092621162,0.32725424859373686,
0.27274575140626311,0.39694631307311828,
0.32805368692688169,0.45225424859373686,
0.39774575140626317,0.48776412907378841,
0.47500000000000003,0.49999999999999994,
0.55225424859373684,0.48776412907378836,
0.62194631307311821,0.45225424859373681,
0.67725424859373684,0.39694631307311828,
0.71276412907378839,0.32725424859373681,
0.725,0.25,
0.71276412907378839,0.17274575140626303,
0.67725424859373684,0.1030536869268817,
0.62194631307311832,0.04774575140626313,
0.55225424859373684,0.012235870926211584,
0.47500000000000003,-0.000000000000000029084400903281462,
0.39774575140626317,0.012235870926211565,
0.32805368692688175,0.047745751406263089,
0.27274575140626311,0.10305368692688165,
0.2372358709262116,0.17274575140626305,
0*
4,1,19,
-0.725,0.25000000000000006,
-0.71276412907378839,0.32725424859373692,
-0.67725424859373684,0.39694631307311834,
-0.62194631307311821,0.45225424859373692,
-0.55225424859373684,0.48776412907378847,
-0.47499999999999992,0.5,
-0.39774575140626306,0.48776412907378841,
-0.32805368692688175,0.45225424859373686,
-0.27274575140626311,0.39694631307311834,
-0.23723587092621157,0.32725424859373686,
-0.22499999999999995,0.25000000000000006,
-0.2372358709262116,0.17274575140626311,
-0.27274575140626311,0.10305368692688176,
-0.32805368692688164,0.047745751406263186,
-0.39774575140626311,0.012235870926211641,
-0.47499999999999992,0.000000000000000029084400903281456,
-0.55225424859373673,0.012235870926211622,
-0.62194631307311821,0.047745751406263144,
-0.67725424859373684,0.1030536869268817,
-0.71276412907378839,0.17274575140626314,
0*
4,1,19,
-0.725,-0.24999999999999994,
-0.71276412907378839,-0.17274575140626308,
-0.67725424859373684,-0.10305368692688167,
-0.62194631307311821,-0.0477457514062631,
-0.55225424859373684,-0.012235870926211584,
-0.475,0.000000000000000029084400903281456,
-0.39774575140626311,-0.012235870926211565,
-0.32805368692688175,-0.047745751406263116,
-0.27274575140626311,-0.10305368692688167,
-0.2372358709262116,-0.17274575140626311,
-0.225,-0.24999999999999997,
-0.23723587092621162,-0.32725424859373692,
-0.27274575140626311,-0.39694631307311823,
-0.32805368692688164,-0.45225424859373686,
-0.39774575140626317,-0.48776412907378841,
-0.475,-0.49999999999999994,
-0.55225424859373673,-0.48776412907378836,
-0.62194631307311821,-0.45225424859373681,
-0.67725424859373684,-0.39694631307311828,
-0.71276412907378839,-0.32725424859373686,
0*
4,1,3,
0.725,-0.25000000000000006,
0.22499999999999995,-0.24999999999999997,
0.225,0.25,
0.725,0.24999999999999992,
0*
4,1,3,
0.47500000000000003,0.49999999999999994,
0.475,-0.000000000000000029084400903281456,
-0.475,0.000000000000000029084400903281456,
-0.47499999999999992,0.5,
0*
4,1,3,
-0.725,0.25000000000000006,
-0.22499999999999995,0.24999999999999997,
-0.225,-0.25,
-0.725,-0.24999999999999992,
0*
4,1,3,
-0.47500000000000003,-0.49999999999999994,
-0.475,0.000000000000000029084400903281456,
0.475,-0.000000000000000029084400903281456,
0.47499999999999992,-0.5,
0*%
%ADD24COMP33,0.25X-0.25X-0.475X0.25X-0.475X0.25X0.475X-0.25X0.475X0*%
%AMCOMP34*
4,1,3,
0.65,-0.32500000000000007,
0.65,0.32499999999999996,
-0.65,0.32500000000000007,
-0.65,-0.32499999999999996,
0*
4,1,19,
0.4,-0.325,
0.41223587092621161,-0.24774575140626318,
0.44774575140626316,-0.17805368692688175,
0.50305368692688179,-0.12274575140626318,
0.57274575140626316,-0.08723587092621167,
0.65,-0.075000000000000053,
0.72725424859373689,-0.087235870926211642,
0.79694631307311825,-0.1227457514062632,
0.85225424859373689,-0.17805368692688175,
0.88776412907378843,-0.2477457514062632,
0.9,-0.325,
0.88776412907378843,-0.402254248593737,
0.85225424859373689,-0.47194631307311835,
0.79694631307311836,-0.52725424859373682,
0.72725424859373689,-0.56276412907378837,
0.65,-0.575,
0.57274575140626327,-0.56276412907378837,
0.50305368692688179,-0.52725424859373693,
0.4477457514062631,-0.47194631307311835,
0.41223587092621161,-0.40225424859373693,
0*
4,1,19,
0.4,0.325,
0.41223587092621161,0.40225424859373687,
0.44774575140626321,0.4719463130731183,
0.50305368692688179,0.52725424859373682,
0.57274575140626316,0.56276412907378837,
0.65,0.575,
0.72725424859373689,0.56276412907378837,
0.79694631307311825,0.52725424859373682,
0.85225424859373689,0.47194631307311824,
0.88776412907378843,0.40225424859373682,
0.9,0.325,
0.88776412907378843,0.24774575140626304,
0.85225424859373689,0.1780536869268817,
0.79694631307311836,0.12274575140626312,
0.72725424859373689,0.087235870926211587,
0.65,0.074999999999999969,
0.57274575140626327,0.087235870926211559,
0.50305368692688179,0.12274575140626309,
0.44774575140626316,0.17805368692688164,
0.41223587092621161,0.24774575140626307,
0*
4,1,19,
-0.9,0.32500000000000007,
-0.88776412907378843,0.40225424859373693,
-0.85225424859373689,0.47194631307311835,
-0.79694631307311825,0.52725424859373682,
-0.72725424859373689,0.56276412907378837,
-0.65,0.575,
-0.57274575140626316,0.56276412907378837,
-0.50305368692688179,0.52725424859373682,
-0.4477457514062631,0.4719463130731183,
-0.41223587092621161,0.40225424859373687,
-0.4,0.32500000000000007,
-0.41223587092621161,0.24774575140626312,
-0.44774575140626316,0.17805368692688178,
-0.50305368692688168,0.1227457514062632,
-0.57274575140626316,0.08723587092621167,
-0.65,0.075000000000000053,
-0.72725424859373677,0.087235870926211642,
-0.79694631307311825,0.12274575140626318,
-0.85225424859373689,0.17805368692688173,
-0.88776412907378843,0.24774575140626315,
0*
4,1,19,
-0.9,-0.32499999999999996,
-0.88776412907378843,-0.24774575140626309,
-0.85225424859373689,-0.17805368692688167,
-0.79694631307311825,-0.12274575140626309,
-0.72725424859373689,-0.087235870926211587,
-0.65,-0.074999999999999969,
-0.57274575140626316,-0.087235870926211559,
-0.50305368692688179,-0.12274575140626312,
-0.44774575140626316,-0.17805368692688167,
-0.41223587092621161,-0.24774575140626312,
-0.4,-0.32499999999999996,
-0.41223587092621161,-0.40225424859373693,
-0.44774575140626321,-0.4719463130731183,
-0.50305368692688168,-0.52725424859373682,
-0.57274575140626316,-0.56276412907378837,
-0.65,-0.575,
-0.72725424859373677,-0.56276412907378837,
-0.79694631307311825,-0.52725424859373693,
-0.85225424859373689,-0.4719463130731183,
-0.88776412907378843,-0.40225424859373687,
0*
4,1,3,
0.9,-0.32500000000000007,
0.4,-0.325,
0.4,0.325,
0.9,0.32499999999999996,
0*
4,1,3,
0.65,0.575,
0.65,0.074999999999999969,
-0.65,0.075000000000000053,
-0.65,0.575,
0*
4,1,3,
-0.9,0.32500000000000007,
-0.4,0.325,
-0.4,-0.325,
-0.9,-0.32499999999999996,
0*
4,1,3,
-0.65,-0.575,
-0.65,-0.074999999999999969,
0.65,-0.075000000000000053,
0.65,-0.575,
0*%
%ADD25COMP34,0.25X-0.325X-0.65X0.325X-0.65X0.325X0.65X-0.325X0.65X0*%
%AMCOMP35*
4,1,3,
-0.65,0.32500000000000007,
-0.65,-0.32499999999999996,
0.65,-0.32500000000000007,
0.65,0.32499999999999996,
0*
4,1,19,
-0.9,0.32500000000000007,
-0.88776412907378843,0.40225424859373693,
-0.85225424859373689,0.47194631307311835,
-0.79694631307311825,0.52725424859373682,
-0.72725424859373689,0.56276412907378837,
-0.65,0.575,
-0.57274575140626316,0.56276412907378837,
-0.50305368692688179,0.52725424859373682,
-0.4477457514062631,0.4719463130731183,
-0.41223587092621161,0.40225424859373687,
-0.4,0.32500000000000007,
-0.41223587092621161,0.24774575140626312,
-0.44774575140626316,0.17805368692688178,
-0.50305368692688168,0.1227457514062632,
-0.57274575140626316,0.08723587092621167,
-0.65,0.075000000000000053,
-0.72725424859373677,0.087235870926211642,
-0.79694631307311825,0.12274575140626318,
-0.85225424859373689,0.17805368692688173,
-0.88776412907378843,0.24774575140626315,
0*
4,1,19,
-0.9,-0.32499999999999996,
-0.88776412907378843,-0.24774575140626309,
-0.85225424859373689,-0.17805368692688167,
-0.79694631307311825,-0.12274575140626309,
-0.72725424859373689,-0.087235870926211587,
-0.65,-0.074999999999999969,
-0.57274575140626316,-0.087235870926211559,
-0.50305368692688179,-0.12274575140626312,
-0.44774575140626316,-0.17805368692688167,
-0.41223587092621161,-0.24774575140626312,
-0.4,-0.32499999999999996,
-0.41223587092621161,-0.40225424859373693,
-0.44774575140626321,-0.4719463130731183,
-0.50305368692688168,-0.52725424859373682,
-0.57274575140626316,-0.56276412907378837,
-0.65,-0.575,
-0.72725424859373677,-0.56276412907378837,
-0.79694631307311825,-0.52725424859373693,
-0.85225424859373689,-0.4719463130731183,
-0.88776412907378843,-0.40225424859373687,
0*
4,1,19,
0.4,-0.325,
0.41223587092621161,-0.24774575140626318,
0.44774575140626316,-0.17805368692688175,
0.50305368692688179,-0.12274575140626318,
0.57274575140626316,-0.08723587092621167,
0.65,-0.075000000000000053,
0.72725424859373689,-0.087235870926211642,
0.79694631307311825,-0.1227457514062632,
0.85225424859373689,-0.17805368692688175,
0.88776412907378843,-0.2477457514062632,
0.9,-0.325,
0.88776412907378843,-0.402254248593737,
0.85225424859373689,-0.47194631307311835,
0.79694631307311836,-0.52725424859373682,
0.72725424859373689,-0.56276412907378837,
0.65,-0.575,
0.57274575140626327,-0.56276412907378837,
0.50305368692688179,-0.52725424859373693,
0.4477457514062631,-0.47194631307311835,
0.41223587092621161,-0.40225424859373693,
0*
4,1,19,
0.4,0.325,
0.41223587092621161,0.40225424859373687,
0.44774575140626321,0.4719463130731183,
0.50305368692688179,0.52725424859373682,
0.57274575140626316,0.56276412907378837,
0.65,0.575,
0.72725424859373689,0.56276412907378837,
0.79694631307311825,0.52725424859373682,
0.85225424859373689,0.47194631307311824,
0.88776412907378843,0.40225424859373682,
0.9,0.325,
0.88776412907378843,0.24774575140626304,
0.85225424859373689,0.1780536869268817,
0.79694631307311836,0.12274575140626312,
0.72725424859373689,0.087235870926211587,
0.65,0.074999999999999969,
0.57274575140626327,0.087235870926211559,
0.50305368692688179,0.12274575140626309,
0.44774575140626316,0.17805368692688164,
0.41223587092621161,0.24774575140626307,
0*
4,1,3,
-0.9,0.32500000000000007,
-0.4,0.325,
-0.4,-0.325,
-0.9,-0.32499999999999996,
0*
4,1,3,
-0.65,-0.575,
-0.65,-0.074999999999999969,
0.65,-0.075000000000000053,
0.65,-0.575,
0*
4,1,3,
0.9,-0.32500000000000007,
0.4,-0.325,
0.4,0.325,
0.9,0.32499999999999996,
0*
4,1,3,
0.65,0.575,
0.65,0.074999999999999969,
-0.65,0.075000000000000053,
-0.65,0.575,
0*%
%ADD26COMP35,0.25X0.325X0.65X-0.325X0.65X-0.325X-0.65X0.325X-0.65X0*%
G04 APERTURE END LIST*
D10*
X-0033000000Y-0028000000D02*
X0028224922Y0010165256D03*
X0028224922Y0008265256D03*
D11*
X0020500000Y0014212499D03*
X0020500000Y0015787500D03*
D12*
X0032549921Y0031827756D03*
X0033199922Y0031827756D03*
X0033849922Y0031827756D03*
X0034499922Y0031827756D03*
X0035149922Y0031827756D03*
X0035799921Y0031827756D03*
X0036449922Y0031827756D03*
X0037099922Y0031827756D03*
X0037749922Y0031827756D03*
X0038399922Y0031827756D03*
X0038399922Y0026102756D03*
X0037749922Y0026102756D03*
X0037099922Y0026102756D03*
X0036449922Y0026102756D03*
X0035799921Y0026102756D03*
X0035149922Y0026102756D03*
X0034499922Y0026102756D03*
X0033849922Y0026102756D03*
X0033199922Y0026102756D03*
X0032549921Y0026102756D03*
D13*
X0035474922Y0033690256D03*
X0035474922Y0035240256D03*
D14*
X0044724922Y0027215256D03*
X0044724922Y0028175256D03*
D13*
X0031224922Y0028440256D03*
X0031224922Y0029990256D03*
D15*
X0021062500Y0012465257D03*
X0022012500Y0012465257D03*
X0022962500Y0012465257D03*
X0022962500Y0010190257D03*
X0022012500Y0010190257D03*
X0021062500Y0010190257D03*
D14*
X0031474922Y0031505256D03*
X0031474922Y0032465256D03*
D16*
X0032474922Y0016465256D03*
X0032474922Y0014815256D03*
D17*
X0043224922Y0026965256D03*
X0043224922Y0027985256D03*
D18*
X0037749922Y0010215256D03*
X0040699922Y0010215256D03*
D19*
X0034120400Y0007999999D03*
X0035060199Y0007999999D03*
X0036000000Y0007999999D03*
X0036012699Y0005612399D03*
X0034107699Y0005612399D03*
D14*
X0029724922Y0005755256D03*
X0029724922Y0006715256D03*
D20*
X0032224922Y0007252756D03*
X0032224922Y0005677756D03*
D21*
X0024224922Y0016175257D03*
X0024224922Y0015215257D03*
D22*
X0031949922Y0024215256D03*
X0033499921Y0024215256D03*
D14*
X0043224922Y0024715256D03*
X0043224922Y0025675256D03*
D16*
X0030724922Y0009965256D03*
X0030724922Y0008315256D03*
D17*
X0042224922Y0032445256D03*
X0042224922Y0033465256D03*
D23*
X0022224922Y0006015256D03*
X0022224922Y0004465257D03*
D24*
X0040224922Y0025265256D03*
X0040224922Y0027165256D03*
D13*
X0040474922Y0032215256D03*
X0040474922Y0033765256D03*
D25*
X0018474922Y0012490257D03*
X0018474922Y0015440257D03*
D16*
X0027724922Y0006749999D03*
X0027724922Y0005099999D03*
D25*
X0026724922Y0014015256D03*
X0026724922Y0016965256D03*
D17*
X0024500000Y0010705257D03*
X0024500000Y0011725257D03*
D23*
X0024974922Y0007465257D03*
X0024974922Y0005915256D03*
D18*
X0019999921Y0007965257D03*
X0022949922Y0007965257D03*
D26*
X0039500000Y0008249999D03*
X0039500000Y0005299999D03*
M02*